<?xml version="1.0" standalone="no"?>
<!DOCTYPE svg PUBLIC "-//W3C//DTD SVG 1.1//EN" "http://www.w3.org/Graphics/SVG/1.1/DTD/svg11.dtd" >
<svg xmlns="http://www.w3.org/2000/svg" xmlns:xlink="http://www.w3.org/1999/xlink" version="1.1">
<metadata>
Created by FontForge 20170924 at Wed Oct  9 19:08:36 2019
 By www-data
Copyright (c) 2014  https://mmunicode.org/fonts. All Rights Reserved
</metadata>
<defs>
<font id="MUAWebPro" horiz-adv-x="0" >
  <font-face 
    font-family="MUA Web Pro"
    font-weight="400"
    font-stretch="normal"
    units-per-em="2048"
    panose-1="2 11 5 2 4 2 4 2 2 3"
    ascent="1638"
    descent="-410"
    x-height="1051"
    cap-height="1414"
    bbox="-2133 -1506 4317 2205"
    underline-thickness="100"
    underline-position="-950"
    unicode-range="U+001D-F018"
  />
<missing-glyph horiz-adv-x="1024" 
d="M100 0v1434h824v-1434h-824zM174 83h683v1258h-683v-1258z" />
    <glyph glyph-name=".notdef" horiz-adv-x="1024" 
d="M100 0v1434h824v-1434h-824zM174 83h683v1258h-683v-1258z" />
    <glyph glyph-name=".null" 
 />
    <glyph glyph-name=".null" 
 />
    <glyph glyph-name="nonmarkingreturn" horiz-adv-x="508" 
 />
    <glyph glyph-name="space" unicode=" " horiz-adv-x="508" 
 />
    <glyph glyph-name="space" unicode="&#xa0;" horiz-adv-x="508" 
 />
    <glyph glyph-name="exclam" unicode="!" horiz-adv-x="512" 
d="M337 399h-162l-13 1015h189zM182 163.5q27 29.5 79.5 29.5t79.5 -29.5t27 -73t-27 -72.5t-79.5 -29t-79.5 29t-27 72.5t27 73z" />
    <glyph glyph-name="quotedbl" unicode="&#x22;" horiz-adv-x="637" 
d="M269 1359l-29 -347h-108l1 480h136v-133zM532 1359l-30 -347h-108l1 480h137v-133z" />
    <glyph glyph-name="numbersign" unicode="#" horiz-adv-x="1239" 
d="M695 398h-256l-78 -398h-138l77 398h-232v134h258l66 343h-250v135h277l79 404h140l-81 -404h257l80 404h140l-80 -404h198v-135h-224l-68 -343h219v-134h-243l-79 -398h-139zM464 532h257l67 343h-256z" />
    <glyph glyph-name="dollar" unicode="$" horiz-adv-x="1117" 
d="M832 364q0 89 -63 150.5t-212 111.5q-206 63 -301 164.5t-95 258.5q0 158 93 260t255 122v213h144v-214q164 -22 254.5 -137t90.5 -314h-178q0 137 -65 217.5t-176 80.5q-116 0 -177 -60t-61 -166q0 -99 64.5 -157.5t212.5 -106.5t231.5 -106t122.5 -135t39 -180
q0 -164 -98.5 -264t-275.5 -119v-185h-145v185q-180 17 -282.5 129.5t-102.5 304.5h179q0 -135 71.5 -208t200.5 -73q128 0 201 61t73 167z" />
    <glyph glyph-name="percent" unicode="%" horiz-adv-x="1457" 
d="M393 777q-126 0 -208.5 81.5t-82.5 215.5v69q0 126 81 209t208 83q130 0 210 -83.5t80 -214.5v-70q0 -127 -81 -208.5t-207 -81.5zM393 894q69 0 111.5 47.5t42.5 129.5v72q0 75 -42 124.5t-114 49.5q-71 0 -113 -49.5t-42 -128.5v-72q0 -75 43 -124t114 -49zM1082 -21
q-127 0 -209 81.5t-82 216.5v70q0 127 81 209.5t209 82.5q126 0 207.5 -82t81.5 -217v-69q0 -127 -81 -209.5t-207 -82.5zM1082 96q70 0 112 48t42 131v72q0 77 -42 125.5t-114 48.5q-69 0 -112 -48t-43 -130v-72q0 -77 42.5 -126t114.5 -49zM435 107l-102 64l690 1105
l102 -64z" />
    <glyph glyph-name="ampersand" unicode="&#x26;" horiz-adv-x="1237" 
d="M98 380q0 102 57 187.5t217 198.5q-94 115 -126 185t-32 139q0 162 95 253t258 91q146 0 241 -85.5t95 -213.5q0 -85 -43 -158t-151 -152l-104 -77l315 -376q66 126 66 281h163q0 -248 -120 -411l202 -242h-216l-94 112q-72 -64 -169 -98t-197 -34q-206 0 -331.5 110
t-125.5 290zM555 128q143 0 262 108l-345 413l-32 -23q-162 -120 -162 -246q0 -115 74.5 -183.5t202.5 -68.5zM393 1096q0 -94 115 -234l115 82q66 46 90.5 88t24.5 103q0 65 -49 108t-123 43q-80 0 -126.5 -54t-46.5 -136z" />
    <glyph glyph-name="quotesingle" unicode="'" horiz-adv-x="347" 
d="M246 1384l-20 -357h-126l1 465h145v-108z" />
    <glyph glyph-name="parenleft" unicode="(" horiz-adv-x="788" 
d="M149 574q0 220 59 422t175 367t242 233l37 -119q-142 -109 -233 -332t-99 -500l-1 -83q0 -375 137 -650q82 -165 196 -259l-37 -109q-130 72 -247 240q-229 331 -229 790z" />
    <glyph glyph-name="parenright" unicode=")" horiz-adv-x="739" 
d="M610 564q0 -216 -57 -415t-174 -366.5t-246 -238.5l-37 109q149 115 240 356.5t93 535.5v31q0 204 -43 379.5t-119 314t-171 216.5l37 110q129 -71 245 -237t174 -366t58 -429z" />
    <glyph glyph-name="asterisk" unicode="*" horiz-adv-x="856" 
d="M321 954l-294 89l45 146l293 -109l-9 334h149l-10 -339l289 107l45 -147l-298 -88l192 -264l-121 -92l-180 280l-175 -273l-121 89z" />
    <glyph glyph-name="plus" unicode="+" horiz-adv-x="1128" 
d="M651 758h395v-169h-395v-447h-181v447h-394v169h394v413h181v-413z" />
    <glyph glyph-name="comma" unicode="," horiz-adv-x="390" 
d="M130 -282l-102 70q92 128 96 262v163h175v-141q0 -98 -48 -196.5t-121 -157.5z" />
    <glyph glyph-name="hyphen" unicode="-" horiz-adv-x="549" 
d="M510 528h-474v146h474v-146z" />
    <glyph glyph-name="period" unicode="." horiz-adv-x="524" 
d="M140 94q0 47 27.5 78t83 31t84 -31t28.5 -78q0 -44 -28.5 -74.5t-84 -30.5t-83 30.5t-27.5 74.5z" />
    <glyph glyph-name="slash" unicode="/" horiz-adv-x="820" 
d="M172 -122h-154l590 1536h153z" />
    <glyph glyph-name="zero" unicode="0" horiz-adv-x="1117" 
d="M1004 603q0 -316 -107.5 -469.5t-337.5 -153.5q-226 0 -334.5 150.5t-112.5 448.5v240q0 312 108 463.5t337 151.5t336.5 -146t110.5 -451v-234zM825 849q0 228 -64.5 332.5t-203.5 104.5q-137 0 -200.5 -104t-65.5 -320v-287q0 -229 67 -338t201 -109q133 0 198 102.5
t68 323.5v295z" />
    <glyph glyph-name="one" unicode="1" horiz-adv-x="1117" 
d="M708 0h-180v1198l-363 -134v164l515 193h28v-1421z" />
    <glyph glyph-name="two" unicode="2" horiz-adv-x="1117" 
d="M1045 0h-927v129l489 544q109 123 150 200.5t41 160.5q0 111 -67 181.5t-179 70.5q-133 0 -207.5 -76t-74.5 -212h-180q0 195 126 315.5t336 120.5q198 0 312.5 -103.5t114.5 -276.5q0 -208 -266 -497l-379 -410h711v-147z" />
    <glyph glyph-name="three" unicode="3" horiz-adv-x="1117" 
d="M379 794h135q127 2 200 67.5t73 176.5q0 248 -248 248q-116 0 -186 -66.5t-70 -175.5h-179q0 167 123 278.5t312 111.5q201 0 314 -106t113 -294q0 -92 -59.5 -179t-162.5 -129q116 -37 180 -122.5t64 -209.5q0 -190 -124 -302t-323.5 -112t-324.5 108t-125 285h181
q0 -112 73 -178.5t195 -66.5q130 0 199 67.5t69 194.5q0 124 -76 190t-218 68h-135v146z" />
    <glyph glyph-name="four" unicode="4" horiz-adv-x="1117" 
d="M876 475h196v-146h-196v-329h-181v329h-644v106l634 979h191v-939zM255 475h440v693l-21 -38z" />
    <glyph glyph-name="five" unicode="5" horiz-adv-x="1142" 
d="M200 709l72 705h725v-165h-572l-43 -387q104 62 236 62q193 0 307 -128t114 -345q0 -219 -118.5 -345t-330.5 -126q-187 0 -305.5 104t-134.5 288h170q16 -121 86 -182.5t184 -61.5q126 0 197 85t71 236q0 141 -77 227t-205 86q-118 0 -185 -51l-47 -39z" />
    <glyph glyph-name="six" unicode="6" horiz-adv-x="1131" 
d="M822 1415v-153h-33q-210 -4 -334 -124t-144 -339q112 129 305 129q184 0 294.5 -130.5t110.5 -336.5q0 -218 -119 -349.5t-319 -131.5q-203 0 -329 156t-126 402v69q0 391 166 597t496 211h32zM586 778q-93 0 -170.5 -55.5t-107.5 -138.5v-66q0 -175 78.5 -282
t196.5 -107q120 0 191 88.5t71 234.5q0 143 -71 234.5t-188 91.5z" />
    <glyph glyph-name="seven" unicode="7" horiz-adv-x="1117" 
d="M1031 1313l-586 -1313h-189l585 1266h-766v148h956v-101z" />
    <glyph glyph-name="eight" unicode="8" horiz-adv-x="1117" 
d="M975 1046q0 -106 -56 -189t-151 -129q111 -48 175.5 -139.5t64.5 -206.5q0 -184 -124 -293t-326 -109q-204 0 -326.5 109.5t-122.5 292.5q0 114 62.5 206.5t173.5 140.5q-94 46 -148.5 129t-54.5 188q0 178 114.5 283t301.5 105t302 -105t115 -283zM829 385
q0 119 -75.5 193.5t-197 74.5t-195 -73.5t-73.5 -194t72 -189t198 -68.5q127 0 199 69t72 188zM728 1218.5q-67 67.5 -170 67.5q-106 0 -171 -65.5t-65 -177.5q0 -108 64.5 -175t172 -67t172 67t64.5 175t-67 175.5z" />
    <glyph glyph-name="nine" unicode="9" horiz-adv-x="1117" 
d="M806 622q-56 -68 -134.5 -108.5t-171.5 -40.5q-122 0 -213 60t-140.5 169.5t-49.5 242.5q0 141 54 254.5t153 174t232 60.5q209 0 330 -157t121 -428v-53q0 -412 -163.5 -602t-491.5 -195h-36v152h38q222 3 341.5 115.5t130.5 355.5zM530 622q90 0 166 55.5t111 136.5v72
q0 176 -77 287t-193 111q-119 0 -191 -91t-72 -239q0 -145 69.5 -238.5t186.5 -93.5z" />
    <glyph glyph-name="colon" unicode=":" horiz-adv-x="482" 
d="M130 94q0 47 27.5 78t83 31t84 -31t28.5 -78q0 -44 -28.5 -74.5t-84 -30.5t-83 30.5t-27.5 74.5zM131 952q0 46 27.5 77t83 31t84 -31t28.5 -77q0 -45 -28.5 -75t-84 -30t-83 30t-27.5 75z" />
    <glyph glyph-name="semicolon" unicode=";" horiz-adv-x="421" 
d="M108 952q0 46 27.5 77t83 31t84.5 -31t29 -77q0 -45 -29 -75t-84.5 -30t-83 30t-27.5 75zM142 -282l-102 70q91 128 95 262v163h176v-141q0 -98 -48 -196.5t-121 -157.5z" />
    <glyph glyph-name="semicolon" unicode="&#x37e;" horiz-adv-x="421" 
d="M108 952q0 46 27.5 77t83 31t84.5 -31t29 -77q0 -45 -29 -75t-84.5 -30t-83 30t-27.5 75zM142 -282l-102 70q91 128 95 262v163h176v-141q0 -98 -48 -196.5t-121 -157.5z" />
    <glyph glyph-name="less" unicode="&#x3c;" horiz-adv-x="1011" 
d="M256 626l608 -246v-191l-794 368v142l794 367v-190z" />
    <glyph glyph-name="equal" unicode="=" horiz-adv-x="1092" 
d="M957 791h-809v156h809v-156zM957 387h-809v156h809v-156z" />
    <glyph glyph-name="greater" unicode="&#x3e;" horiz-adv-x="1040" 
d="M772 632l-642 251v184l829 -367v-142l-829 -368v187z" />
    <glyph glyph-name="question" unicode="?" horiz-adv-x="940" 
d="M347 398q2 116 26 183t99 149l127 130q82 93 82 198q0 102 -53.5 160t-155.5 58q-99 0 -159.5 -52.5t-60.5 -140.5h-179q2 158 112 254.5t287 96.5q183 0 285.5 -98.5t102.5 -271.5q0 -169 -157 -334l-106 -105q-70 -79 -70 -227h-180zM365.5 163.5q26.5 29.5 79 29.5
t80 -29.5t27.5 -73t-27.5 -72.5t-80 -29t-79 29t-26.5 72.5t26.5 73z" />
    <glyph glyph-name="at" unicode="@" horiz-adv-x="1786" 
d="M1688 487q-12 -235 -117 -371t-280 -136q-182 0 -234 164q-52 -83 -119.5 -123.5t-139.5 -40.5q-138 0 -208.5 113t-51.5 312q14 160 72.5 286t151.5 197.5t195 71.5q79 0 140.5 -20.5t140.5 -82.5l-51 -537q-19 -225 124 -225q110 0 178.5 109t73.5 283q18 378 -141 576
t-482 198q-195 0 -347 -96.5t-239.5 -279t-98.5 -421.5q-11 -240 59 -417.5t213 -271.5t346 -94q87 0 175.5 21.5t146.5 55.5l36 -111q-61 -38 -160.5 -62.5t-201.5 -24.5q-242 0 -417 109t-262 314.5t-75 480.5q12 268 119.5 480.5t292 329t417.5 116.5q241 0 414 -109
t257.5 -314t72.5 -480zM692 405q-14 -138 25 -211.5t126 -73.5q57 0 111 49.5t90 141.5l1 9l44 488q-54 29 -117 29q-114 0 -188 -116t-92 -316z" />
    <glyph glyph-name="A" unicode="A" horiz-adv-x="1298" 
d="M946 369h-594l-132 -369h-193l540 1414h164l540 -1414h-191zM409 523h481l-241 661z" />
    <glyph glyph-name="B" unicode="B" horiz-adv-x="1239" 
d="M164 0v1414h463q229 0 345.5 -95t116.5 -281q0 -99 -56.5 -175.5t-153.5 -118.5q115 -32 181.5 -121.5t66.5 -214.5q0 -190 -123.5 -299t-349.5 -109h-490zM351 661v-509h307q131 0 206.5 67.5t75.5 186.5q0 255 -279 255h-310zM351 811h282q121 0 194.5 61.5t73.5 166.5
q0 116 -68 168.5t-206 52.5h-276v-449z" />
    <glyph glyph-name="C" unicode="C" horiz-adv-x="1295" 
d="M1204 449q-26 -224 -165.5 -346.5t-370.5 -122.5q-250 0 -401 180t-151 481v136q0 197 70 346.5t199.5 230t299.5 80.5q225 0 361 -126t158 -349h-187q-24 170 -105 245.5t-227 75.5q-179 0 -280.5 -132t-101.5 -376v-136q0 -231 96 -367t269 -136q156 0 239 70.5
t110 245.5h187z" />
    <glyph glyph-name="D" unicode="D" horiz-adv-x="1305" 
d="M164 0v1414h399q185 0 327 -81t219 -232t78 -347v-90q0 -200 -77 -350.5t-220.5 -231t-334.5 -82.5h-391zM351 1260v-1108h196q215 0 335 134.5t120 381.5v83q0 241 -113 374t-321 135h-217z" />
    <glyph glyph-name="E" unicode="E" horiz-adv-x="1131" 
d="M963 653h-612v-501h711v-152h-898v1414h889v-154h-702v-454h612v-153z" />
    <glyph glyph-name="F" unicode="F" horiz-adv-x="1100" 
d="M945 625h-594v-625h-187v1414h877v-154h-690v-483h594v-152z" />
    <glyph glyph-name="G" unicode="G" horiz-adv-x="1356" 
d="M1208 185q-71 -103 -200 -154t-300 -51q-172 0 -306.5 81.5t-207.5 231t-75 347.5v122q0 320 149 496t419 176q221 0 356 -113.5t165 -321.5h-186q-53 281 -334 281q-188 0 -284.5 -131.5t-97.5 -381.5v-115q0 -238 109 -378.5t294 -140.5q105 0 183.5 23t130.5 79v317
h-328v152h513v-519z" />
    <glyph glyph-name="H" unicode="H" horiz-adv-x="1418" 
d="M1252 0h-189v653h-712v-653h-187v1414h187v-608h712v608h189v-1414z" />
    <glyph glyph-name="I" unicode="I" horiz-adv-x="541" 
d="M364 0h-186v1414h186v-1414z" />
    <glyph glyph-name="J" unicode="J" horiz-adv-x="1098" 
d="M756 1414h189v-1001q0 -203 -122.5 -318t-325.5 -115q-211 0 -328.5 108t-117.5 302h187q0 -121 66.5 -189t192.5 -68q116 0 187 73t72 204v1004z" />
    <glyph glyph-name="K" unicode="K" horiz-adv-x="1248" 
d="M524 657l-173 -179v-478h-187v1414h187v-699l628 699h225l-556 -624l601 -790h-224z" />
    <glyph glyph-name="L" unicode="L" horiz-adv-x="1070" 
d="M351 152h671v-152h-858v1414h187v-1262z" />
    <glyph glyph-name="M" unicode="M" horiz-adv-x="1737" 
d="M405 1414l462 -1154l463 1154h241v-1414h-186v551l18 595l-464 -1146h-144l-462 1143l18 -592v-551h-187v1414h241z" />
    <glyph glyph-name="N" unicode="N" horiz-adv-x="1418" 
d="M1252 0h-189l-712 1090v-1090h-187v1414h187l714 -1094v1094h187v-1414z" />
    <glyph glyph-name="O" unicode="O" horiz-adv-x="1367" 
d="M1253 661q0 -208 -70.5 -362.5t-199 -236.5t-298.5 -82q-167 0 -296.5 82.5t-200.5 234.5t-73 352v102q0 203 70.5 359.5t200.5 240t297 83.5q170 0 299.5 -82.5t200 -238.5t70.5 -362v-90zM1066 753q0 251 -101 385.5t-282 134.5q-177 0 -278.5 -134.5t-104.5 -373.5
v-104q0 -243 102.5 -382.5t282.5 -139.5t279 131.5t102 377.5v105z" />
    <glyph glyph-name="P" unicode="P" horiz-adv-x="1255" 
d="M351 553v-553h-187v1414h522q232 0 363.5 -118.5t131.5 -313.5q0 -206 -128.5 -317.5t-368.5 -111.5h-333zM351 706h335q150 0 229.5 70.5t79.5 203.5q0 126 -79.5 201.5t-219.5 78.5h-345v-554z" />
    <glyph glyph-name="Q" unicode="Q" horiz-adv-x="1367" 
d="M1122 -239l-298 237q-71 -18 -148 -18q-251 0 -409 180.5t-161 488.5v102q0 309 155.5 496t412.5 187q262 0 416.5 -184t154.5 -498v-91q0 -409 -248 -584l253 -199zM676 139q180 0 279 131.5t102 377.5v105q0 249 -99.5 384.5t-283.5 135.5q-176 0 -277.5 -134.5
t-104.5 -373.5v-104q0 -242 101.5 -382t282.5 -140z" />
    <glyph glyph-name="R" unicode="R" horiz-adv-x="1225" 
d="M683 572h-332v-572h-188v1414h469q238 0 367 -108.5t129 -316.5q0 -133 -71.5 -231t-199.5 -146l333 -600v-12h-200zM351 725h287q138 0 220.5 71.5t82.5 192.5q0 131 -78.5 200.5t-225.5 70.5h-286v-535z" />
    <glyph glyph-name="S" unicode="S" horiz-adv-x="1180" 
d="M613 -20q-222 0 -379 118t-157 312h188q0 -128 94.5 -202.5t253.5 -74.5q147 0 226 60t79 164t-73 161t-264 113q-240 68 -349 168.5t-109 249.5q0 166 133 275.5t347 109.5q222 0 360.5 -122.5t138.5 -306.5h-187q0 129 -81.5 202t-230.5 73q-138 0 -215 -61t-77 -168
q0 -87 73 -146.5t249.5 -109t276 -109t147.5 -139.5t48 -188q0 -172 -133.5 -275.5t-358.5 -103.5z" />
    <glyph glyph-name="T" unicode="T" horiz-adv-x="1187" 
d="M1142 1260h-455v-1260h-186v1260h-453v154h1094v-154z" />
    <glyph glyph-name="U" unicode="U" horiz-adv-x="1290" 
d="M1159 1414v-962q-1 -200 -125.5 -327t-338.5 -143l-49 -2q-232 0 -370 125.5t-140 345.5v963h185v-958q0 -153 84 -238t241 -85q158 0 242 84.5t84 237.5v959h187z" />
    <glyph glyph-name="V" unicode="V" horiz-adv-x="1265" 
d="M633 248l404 1166h204l-525 -1414h-165l-524 1414h203z" />
    <glyph glyph-name="W" unicode="W" horiz-adv-x="1765" 
d="M469 446l27 -187l41 169l279 986h157l274 -986l38 -172l30 191l220 967h187l-343 -1414h-170l-291 1031l-22 108l-23 -108l-302 -1031h-170l-342 1414h187z" />
    <glyph glyph-name="X" unicode="X" horiz-adv-x="1248" 
d="M626 872l338 542h220l-446 -701l457 -713h-222l-347 552l-350 -552h-221l459 713l-448 701h218z" />
    <glyph glyph-name="Y" unicode="Y" horiz-adv-x="1195" 
d="M595 704l369 710h212l-487 -886v-528h-187v528l-487 886h214z" />
    <glyph glyph-name="Z" unicode="Z" horiz-adv-x="1191" 
d="M304 152h809v-152h-1030v140l775 1120h-762v154h986v-137z" />
    <glyph glyph-name="bracketleft" unicode="[" horiz-adv-x="528" 
d="M508 1468h-185v-1623h185v-148h-366v1919h366v-148z" />
    <glyph glyph-name="backslash" unicode="\" horiz-adv-x="816" 
d="M39 1414h171l590 -1536h-170z" />
    <glyph glyph-name="bracketright" unicode="]" horiz-adv-x="528" 
d="M9 1616h367v-1919h-367v148h187v1623h-187v148z" />
    <glyph glyph-name="asciicircum" unicode="^" horiz-adv-x="832" 
d="M414 1176l-184 -468h-168l290 706h124l289 -706h-166z" />
    <glyph glyph-name="underscore" unicode="_" horiz-adv-x="897" 
d="M894 -147h-890v147h890v-147z" />
    <glyph glyph-name="grave" unicode="`" horiz-adv-x="615" 
d="M460 1204h-154l-251 286h217z" />
    <glyph glyph-name="a" unicode="a" horiz-adv-x="1082" 
d="M785 0q-16 31 -26 111q-124 -131 -299 -131q-155 0 -254.5 88t-99.5 223q0 164 124.5 255.5t351.5 91.5h174v82q0 94 -56 150t-165 56q-97 0 -162 -48.5t-65 -118.5h-180q0 80 55.5 153t151.5 115.5t210 42.5q182 0 285 -90.5t107 -249.5v-484q0 -145 36 -230v-16h-188z
M486 137q85 0 161 44t109 113v216h-140q-331 0 -331 -193q0 -85 56.5 -132.5t144.5 -47.5z" />
    <glyph glyph-name="b" unicode="b" horiz-adv-x="1116" 
d="M1026 514q0 -241 -111 -387.5t-297 -146.5q-199 0 -308 142l-9 -122h-165v1492h180v-556q109 134 300 134t300.5 -144.5t109.5 -395.5v-16zM846 535q0 183 -71 283t-204 100q-178 0 -255 -165v-455q82 -165 257 -165q129 0 201 100t72 302z" />
    <glyph glyph-name="c" unicode="c" horiz-adv-x="1042" 
d="M557 128q96 0 168 58t80 146h170q-5 -91 -62.5 -173t-153 -130.5t-202.5 -48.5q-214 0 -341 143.5t-127 392.5v30q0 153 56.5 273t162 185.5t248.5 65.5q178 0 294.5 -106t124.5 -274h-170q-8 102 -77.5 167.5t-171.5 65.5q-136 0 -211.5 -98.5t-75.5 -285.5v-34
q0 -181 75 -279t213 -98z" />
    <glyph glyph-name="d" unicode="d" horiz-adv-x="1122" 
d="M92 535q0 241 115 388t300 147q184 0 292 -125v547h180v-1492h-165l-9 113q-108 -133 -300 -133q-182 0 -297.5 150t-115.5 391v14zM272 514q0 -179 74 -280t204 -101q171 0 249 153v483q-80 149 -247 149q-132 0 -206 -102t-74 -302z" />
    <glyph glyph-name="e" unicode="e" horiz-adv-x="1054" 
d="M572 -20q-214 0 -348 140.5t-134 375.5v34q0 156 60 279t167.5 192t232.5 69q204 0 318 -135t114 -386v-75h-712q4 -155 91 -250.5t221 -95.5q95 0 161 38.5t115 102.5l110 -86q-131 -203 -396 -203zM550 923q-109 0 -183 -79.5t-91 -221.5h526v14q-8 136 -74 211.5
t-178 75.5z" />
    <glyph glyph-name="f" unicode="f" horiz-adv-x="691" 
d="M225 0v912h-167v139h167v107q0 170 90 262t255 92q63 0 123 -16l-9 -145q-45 7 -97 7q-88 0 -135.5 -51t-47.5 -146v-110h225v-139h-225v-912h-179z" />
    <glyph glyph-name="g" unicode="g" horiz-adv-x="1116" 
d="M93 535q0 245 114 390t301 145q192 0 300 -135l9 116h164v-1025q0 -205 -120.5 -322.5t-324.5 -117.5q-114 0 -223 48.5t-166 133.5l93 107q115 -142 283 -142q130 0 203.5 73.5t73.5 208.5v90q-108 -125 -294 -125q-184 0 -298.5 149t-114.5 406zM274 514
q0 -178 73 -279.5t204 -101.5q170 0 249 154v480q-82 151 -248 151q-130 0 -204 -102t-74 -302z" />
    <glyph glyph-name="h" unicode="h" horiz-adv-x="1096" 
d="M316 924q119 146 311 146q332 0 335 -376v-694h-179v695q-1 114 -52 168.5t-159 54.5q-87 0 -153.5 -46.5t-102.5 -122.5v-749h-180v1492h180v-568z" />
    <glyph glyph-name="i" unicode="i" horiz-adv-x="483" 
d="M332 0h-181v1051h181v-1051zM163.5 1403.5q26.5 30.5 79 30.5t80 -30.5t27.5 -74t-27.5 -72.5t-80 -29t-79 29t-26.5 72.5t26.5 74z" />
    <glyph glyph-name="j" unicode="j" horiz-adv-x="475" 
d="M322 1051v-1173q0 -303 -275 -303q-60 0 -110 18v144q31 -8 82 -8q59 0 91 32.5t32 112.5v1177h180zM124 1330q0 42 26.5 73t78.5 31t79 -30.5t27 -74t-27 -72.5t-79.5 -29t-78.5 29t-26 73z" />
    <glyph glyph-name="k" unicode="k" horiz-adv-x="1008" 
d="M430 486l-113 -117v-369h-180v1492h180v-903l96 116l328 346h217l-408 -439l456 -612h-211z" />
    <glyph glyph-name="l" unicode="l" horiz-adv-x="483" 
d="M332 0h-181v1492h181v-1492z" />
    <glyph glyph-name="m" unicode="m" horiz-adv-x="1744" 
d="M305 1051l5 -116q116 135 312 135q221 0 300 -169q52 76 136.5 122.5t197.5 46.5q347 0 353 -366v-704h-180v693q0 113 -51.5 169t-173.5 56q-100 0 -166 -60t-77 -161v-697h-180v689q0 229 -225 229q-176 0 -241 -151v-767h-180v1051h170z" />
    <glyph glyph-name="n" unicode="n" horiz-adv-x="1098" 
d="M306 1051l6 -132q121 151 315 151q332 0 335 -376v-694h-179v695q-1 114 -52 168.5t-159 54.5q-87 0 -153.5 -46.5t-102.5 -122.5v-749h-180v1051h170z" />
    <glyph glyph-name="o" unicode="o" horiz-adv-x="1135" 
d="M88 536q0 154 61 277.5t169.5 190t246.5 66.5q215 0 348 -148.5t133 -394.5v-13q0 -154 -59 -275.5t-168.5 -190t-251.5 -68.5q-214 0 -346.5 149t-132.5 394v13zM269 514q0 -175 81.5 -280.5t216.5 -105.5q137 0 217.5 107t80.5 301q0 172 -82 279.5t-218 107.5
q-132 0 -214 -106t-82 -303z" />
    <glyph glyph-name="p" unicode="p" horiz-adv-x="1116" 
d="M1024 514q0 -240 -110 -387t-297 -147q-191 0 -301 122v-506h-180v1455h164l9 -116q110 135 305 135q189 0 299.5 -142.5t110.5 -396.5v-17zM845 535q0 177 -76.5 280t-208.5 103q-163 0 -244 -145v-502q80 -143 246 -143q129 0 206 102.5t77 304.5z" />
    <glyph glyph-name="q" unicode="q" horiz-adv-x="1131" 
d="M92 535q0 247 114 391t305 144q186 0 294 -124l8 105h165v-1455h-180v501q-108 -117 -289 -117q-190 0 -303.5 148.5t-113.5 393.5v13zM272 514q0 -181 76.5 -283.5t204.5 -102.5q161 0 245 141v515q-85 139 -243 139q-129 0 -206 -103.5t-77 -305.5z" />
    <glyph glyph-name="r" unicode="r" horiz-adv-x="673" 
d="M644 890q-41 6 -89 6q-176 0 -239 -150v-746h-180v1051h175l3 -121q88 140 250 140q53 0 80 -14v-166z" />
    <glyph glyph-name="s" unicode="s" horiz-adv-x="1026" 
d="M748 279q0 72 -54.5 113t-191.5 69.5t-217 69.5t-118.5 97.5t-38.5 133.5q0 130 109.5 219t279.5 89q178 0 289.5 -92t111.5 -236h-180q0 74 -63 127.5t-158 53.5q-98 0 -153.5 -42.5t-55.5 -112.5q0 -65 51.5 -97.5t186 -63t218 -72.5t124 -100.5t40.5 -143.5
q0 -140 -113 -225.5t-292 -85.5q-127 0 -224 45t-152 125t-55 174h180q5 -91 72.5 -143.5t178.5 -52.5q102 0 163.5 41t61.5 110z" />
    <glyph glyph-name="t" unicode="t" horiz-adv-x="650" 
d="M380 1306v-274h196v-139h-196v-633q0 -63 26.5 -94.5t88.5 -31.5q32 0 86 12v-146q-71 -20 -138 -20q-120 0 -181.5 73.5t-61.5 206.5v633h-191v139h191v274h180z" />
    <glyph glyph-name="u" unicode="u" horiz-adv-x="1097" 
d="M785 104q-105 -124 -308 -124q-168 0 -256 98t-89 289v684h180v-679q0 -239 194 -239q206 0 274 153v765h179v-1051h-170z" />
    <glyph glyph-name="v" unicode="v" horiz-adv-x="963" 
d="M483 244l260 807h184l-377 -1051h-137l-381 1051h184z" />
    <glyph glyph-name="w" unicode="w" horiz-adv-x="1495" 
d="M1066 248l202 803h181l-306 -1051h-146l-255 796l-250 -796h-145l-305 1051h179l207 -787l244 787h145z" />
    <glyph glyph-name="x" unicode="x" horiz-adv-x="986" 
d="M488 667l234 384h210l-344 -519l355 -532h-208l-244 393l-242 -393h-209l354 532l-344 519h208z" />
    <glyph glyph-name="y" unicode="y" horiz-adv-x="942" 
d="M480 263l245 788h192l-423 -1213q-98 -263 -312 -263l-33 3l-68 13v146l49 -4q92 0 143 37t83 135l40 107l-374 1039h196z" />
    <glyph glyph-name="z" unicode="z" horiz-adv-x="986" 
d="M305 147h615v-147h-835v132l580 770h-571v149h797v-127z" />
    <glyph glyph-name="braceleft" unicode="{" horiz-adv-x="673" 
d="M614 -355q-172 48 -259 159.5t-87 293.5v193q0 237 -206 237v140q206 0 206 235v202q2 178 87 287.5t259 159.5l37 -112q-203 -66 -203 -339v-197q0 -220 -163 -307q163 -87 163 -310v-200q3 -266 203 -331z" />
    <glyph glyph-name="bar" unicode="|" horiz-adv-x="485" 
d="M315 -262h-145v1676h145v-1676z" />
    <glyph glyph-name="braceright" unicode="}" horiz-adv-x="673" 
d="M19 -244q197 64 204 321v214q0 225 175 306q-175 80 -175 306v198q0 273 -203 339l36 112q173 -49 259 -158.5t87 -289.5v-204q0 -232 206 -232v-140q-206 0 -206 -237v-196q0 -182 -87.5 -292t-258.5 -158z" />
    <glyph glyph-name="asciitilde" unicode="~" horiz-adv-x="1354" 
d="M1227 754q0 -153 -90.5 -258.5t-224.5 -105.5q-69 0 -131.5 26t-145 98t-118 89.5t-76.5 17.5q-76 0 -117 -52t-41 -143l-155 -2q0 155 89 255t224 100q74 0 142 -31t153.5 -109.5t147.5 -87.5l28 -2q74 0 120 56t46 148z" />
    <glyph glyph-name="exclamdown" unicode="&#xa1;" horiz-adv-x="485" 
d="M165 664h164l12 -1014h-189zM321 893.5q-27 -30.5 -79.5 -30.5t-79.5 30.5t-27 74t27 72.5t79.5 29t79.5 -29t27 -72.5t-27 -74z" />
    <glyph glyph-name="cent" unicode="&#xa2;" horiz-adv-x="1088" 
d="M569 128q97 0 169 58.5t80 145.5h170q-6 -123 -102 -220.5t-236 -123.5v-226h-180v227q-174 34 -271 171.5t-97 351.5v34q0 206 98 344.5t270 169.5v220h180v-217q145 -21 238.5 -124t99.5 -249h-170q-8 102 -77.5 167.5t-171.5 65.5q-136 0 -211.5 -98.5t-75.5 -285.5
v-34q0 -181 75.5 -279t211.5 -98z" />
    <glyph glyph-name="sterling" unicode="&#xa3;" horiz-adv-x="1155" 
d="M436 604l8 -214q0 -149 -60 -238h712l-1 -152h-1003v152h75q39 9 63 72.5t26 157.5v7l-7 215h-161v152h156l-9 253q0 194 119 309.5t313 115.5q185 0 292.5 -103t107.5 -276h-185q0 104 -62 164.5t-169 60.5q-102 0 -165 -74.5t-63 -196.5l9 -253h310v-152h-306z" />
    <glyph glyph-name="currency" unicode="&#xa4;" horiz-adv-x="1418" 
d="M1071 109q-154 -129 -357 -129q-201 0 -356 127l-129 -133l-127 132l135 137q-101 151 -101 347q0 201 109 359l-143 147l127 132l142 -146q154 117 343 117q190 0 344 -118l145 148l129 -133l-147 -149q107 -159 107 -357q0 -190 -99 -344l139 -140l-129 -132zM302 590
q0 -119 56 -222t151 -162t205 -59t205 59.5t150 162t55 221.5t-55 221.5t-150.5 161.5t-204.5 59q-110 0 -205 -58.5t-151 -161.5t-56 -222z" />
    <glyph glyph-name="yen" unicode="&#xa5;" horiz-adv-x="1204" 
d="M596 759l354 655h212l-406 -699h303v-122h-372v-159h372v-121h-372v-313h-188v313h-367v121h367v159h-367v122h304l-406 699h214z" />
    <glyph glyph-name="brokenbar" unicode="&#xa6;" horiz-adv-x="477" 
d="M143 -262v768h181v-768h-181zM324 678h-181v736h181v-736z" />
    <glyph glyph-name="section" unicode="&#xa7;" horiz-adv-x="1220" 
d="M1112 419q0 -184 -180 -267q66 -47 101 -113t35 -164q0 -162 -126 -259t-348 -97q-108 0 -206 27t-165 83q-136 110 -136 309l181 2q0 -126 87.5 -199.5t238.5 -73.5q133 0 213.5 56.5t80.5 149.5q0 87 -69 138t-272 112q-177 46 -270.5 100t-138.5 129.5t-45 183.5
q0 180 177 265q-64 48 -98.5 114t-34.5 163q0 162 129.5 259t345.5 97q226 0 352 -110t126 -309h-180q0 122 -81.5 197t-216.5 75q-138 0 -216 -56t-78 -151q0 -67 27 -105.5t92.5 -70.5t205 -71t222 -73.5t136.5 -81.5t82.5 -110t28.5 -149zM585 671q-88 23 -160 50
q-78 -19 -114.5 -68t-36.5 -115q0 -69 26.5 -108t90.5 -70.5t202.5 -71.5t180.5 -57q76 20 117 69t41 116q0 85 -68 138t-279 117z" />
    <glyph glyph-name="dieresis" unicode="&#xa8;" horiz-adv-x="832" 
d="M125.5 1405q26.5 30 79 30t80 -30t27.5 -73.5t-27.5 -72.5t-80 -29t-79 29t-26.5 72.5t26.5 73.5zM543.5 1403.5q26.5 30.5 79 30.5t80 -30.5t27.5 -74t-27.5 -72.5t-80 -29t-79 29t-26.5 72.5t26.5 74z" />
    <glyph glyph-name="copyright" unicode="&#xa9;" horiz-adv-x="1562" 
d="M1087 580q0 -148 -84 -226.5t-238 -78.5q-152 0 -243.5 102.5t-91.5 278.5v107q0 172 92.5 274.5t242.5 102.5q156 0 239.5 -80t83.5 -224h-141q0 96 -47 137t-135 41q-91 0 -143.5 -67t-52.5 -187v-109q0 -116 52.5 -183.5t143.5 -67.5q89 0 135 41t46 139h141zM200 708
q0 -167 77.5 -309.5t211.5 -223t289.5 -80.5t288.5 80.5t211 223t78 309.5q0 165 -77 306t-210.5 222t-290.5 81q-155 0 -289.5 -80.5t-211.5 -222t-77 -306.5zM88 708q0 196 91 364.5t251.5 265t347 96.5t347 -96.5t251 -265t90.5 -364.5q0 -191 -87 -358.5t-248 -269
t-353 -101.5q-191 0 -352 100.5t-249.5 268t-88.5 360.5z" />
    <glyph glyph-name="ordfeminine" unicode="&#xaa;" horiz-adv-x="889" 
d="M600 685q-11 33 -17 69q-74 -83 -199 -83q-115 0 -178 60.5t-63 160.5q0 107 81 165.5t248 58.5h105v50q0 132 -121 132q-67 0 -105 -26t-38 -76l-157 11q0 100 84 163.5t216 63.5q130 0 205 -69.5t75 -200.5v-307q0 -94 24 -172h-160zM423 804q41 0 84 20t70 45v138
h-109q-81 -1 -124 -31t-43 -80q0 -92 122 -92z" />
    <glyph glyph-name="guillemotleft" unicode="&#xab;" horiz-adv-x="934" 
d="M272 533l251 -386h-138l-286 377v18l286 378h138zM592 533l252 -386h-138l-286 377v18l286 378h138z" />
    <glyph glyph-name="logicalnot" unicode="&#xac;" horiz-adv-x="1101" 
d="M931 364h-181v257h-626v156h807v-413z" />
    <glyph glyph-name="registered" unicode="&#xae;" horiz-adv-x="1563" 
d="M87 708q0 196 91 364.5t251.5 265t347 96.5t347 -96.5t251 -265t90.5 -364.5q0 -191 -87 -358.5t-248 -269t-353 -101.5q-191 0 -352 100.5t-249.5 268t-88.5 360.5zM199 708q0 -167 77.5 -309.5t211.5 -223t289 -80.5q157 0 291 82t210.5 223t76.5 308
q0 166 -76.5 306.5t-210.5 221.5t-291 81q-155 0 -289.5 -80.5t-211.5 -222t-77 -306.5zM635 636v-329h-138v825h268q149 0 231 -64t82 -185q0 -120 -124 -183q118 -48 119 -198v-59q0 -84 17 -120v-16h-141q-13 35 -13 125t-3 106q-16 94 -128 98h-170zM635 759h151
q69 2 112.5 34.5t43.5 84.5q0 71 -38.5 100.5t-135.5 29.5h-133v-249z" />
    <glyph glyph-name="macron" unicode="&#xaf;" horiz-adv-x="911" 
d="M810 1275h-693v139h693v-139z" />
    <glyph glyph-name="degree" unicode="&#xb0;" horiz-adv-x="743" 
d="M127 1181q0 101 72 177t175 76q101 0 172.5 -75.5t71.5 -177.5q0 -103 -71.5 -175.5t-172.5 -72.5q-102 0 -174.5 72.5t-72.5 175.5zM284.5 1092.5q36.5 -36.5 89.5 -36.5t88.5 35t35.5 90q0 57 -35.5 93t-88.5 36t-89.5 -38t-36.5 -90.5t36.5 -89z" />
    <glyph glyph-name="plusminus" unicode="&#xb1;" horiz-adv-x="1062" 
d="M631 830h353v-147h-353v-402h-163v402h-374v147h374v401h163v-401zM943 0h-812v148h812v-148z" />
    <glyph glyph-name="uni00B2" unicode="&#xb2;" horiz-adv-x="730" 
d="M663 648h-582v105l292 274q106 99 106 166q0 48 -31 77.5t-90 29.5q-73 0 -107 -37t-34 -93h-153q0 111 81.5 183t209.5 72t203 -61.5t75 -168.5q0 -101 -104 -205l-82 -77l-171 -141h387v-124z" />
    <glyph glyph-name="uni00B3" unicode="&#xb3;" horiz-adv-x="730" 
d="M257 1093h82q72 0 107 29.5t35 76.5q0 44 -30.5 72t-99.5 28q-55 0 -91 -24.5t-36 -65.5h-153q0 96 79.5 155.5t199.5 59.5q133 0 209 -59t76 -160q0 -53 -34.5 -97.5t-98.5 -67.5q145 -41 145 -180q0 -103 -82.5 -163t-214.5 -60q-128 0 -209 60.5t-81 164.5h154
q0 -43 38 -72.5t103 -29.5q69 0 104 29.5t35 78.5q0 110 -151 112h-86v113z" />
    <glyph glyph-name="acute" unicode="&#xb4;" horiz-adv-x="624" 
d="M307 1490h218l-261 -286h-144z" />
    <glyph glyph-name="mu" unicode="&#xb5;" horiz-adv-x="1127" 
d="M330 1051v-615q1 -158 51 -233.5t162 -75.5q194 0 253 147v777h181v-1051h-162l-9 112q-90 -132 -255 -132q-143 0 -221 71v-455h-180v1455h180z" />
    <glyph glyph-name="paragraph" unicode="&#xb6;" horiz-adv-x="972" 
d="M628 0v505h-82q-223 0 -352 123.5t-129 330.5t129.5 331t352.5 124h261v-1414h-180z" />
    <glyph glyph-name="periodcentered" unicode="&#xb7;" horiz-adv-x="519" 
d="M143 708q0 46 27.5 77.5t83 31.5t84 -31.5t28.5 -77.5t-28.5 -76.5t-84 -30.5t-83 30.5t-27.5 76.5z" />
    <glyph glyph-name="periodcentered" unicode="&#x2219;" horiz-adv-x="519" 
d="M143 708q0 46 27.5 77.5t83 31.5t84 -31.5t28.5 -77.5t-28.5 -76.5t-84 -30.5t-83 30.5t-27.5 76.5z" />
    <glyph glyph-name="cedilla" unicode="&#xb8;" horiz-adv-x="492" 
d="M277 0l-12 -50q149 -27 149 -169q0 -94 -78 -149t-216 -55l-7 104q76 0 118.5 25.5t42.5 70.5q0 44 -31 64t-126 29l31 130h129z" />
    <glyph glyph-name="uni00B9" unicode="&#xb9;" horiz-adv-x="677" 
d="M481 654h-152v585l-210 -56v124l344 114h18v-767z" />
    <glyph glyph-name="ordmasculine" unicode="&#xba;" horiz-adv-x="904" 
d="M119 1091q0 154 91 248.5t241 94.5t241.5 -93.5t91.5 -255.5v-72q0 -155 -91 -249t-240.5 -94t-241.5 94t-92 255v72zM277 1013q0 -97 47 -152.5t128 -55.5q82 0 128 56t46 154v76q0 96 -47 151.5t-128 55.5q-79 0 -125.5 -53.5t-48.5 -147.5v-84z" />
    <glyph glyph-name="guillemotright" unicode="&#xbb;" horiz-adv-x="933" 
d="M237 922l287 -378v-18l-287 -378h-138l251 387l-251 387h138zM576 922l286 -378v-18l-286 -378h-138l251 387l-251 387h138z" />
    <glyph glyph-name="onequarter" unicode="&#xbc;" horiz-adv-x="1457" 
d="M445 645h-153v584l-210 -56v125l346 113h17v-766zM431 115l-101 64l690 1105l101 -64zM1280 290h104v-126h-104v-164h-152v164h-365l-6 99l367 503h156v-476zM911 290h217v281l-17 -27z" />
    <glyph glyph-name="onehalf" unicode="&#xbd;" horiz-adv-x="1544" 
d="M387 115l-101 64l691 1105l101 -64zM440 645h-153v584l-210 -56v125l346 113h17v-766zM1439 0h-583v105l293 274q105 99 105 166q0 47 -31 77t-89 30q-74 0 -108 -37t-34 -92h-152q0 111 80.5 182.5t208.5 71.5t203.5 -62t75.5 -168q0 -101 -104 -205l-82 -77l-171 -140
h388v-125z" />
    <glyph glyph-name="threequarters" unicode="&#xbe;" horiz-adv-x="1548" 
d="M553 115l-101 64l692 1105l101 -64zM1369 290h104v-126h-104v-164h-152v164h-364l-6 99l366 503h156v-476zM1000 290h217v281l-16 -27zM305 1094h81q72 0 107.5 29.5t35.5 76.5q0 44 -31 72t-99 28q-55 0 -91.5 -24.5t-36.5 -65.5h-152q0 96 79 155.5t199 59.5
q134 0 209.5 -59t75.5 -160q0 -53 -34 -97.5t-98 -67.5q144 -41 144 -180q0 -103 -82 -163t-215 -60q-128 0 -208.5 60.5t-80.5 164.5h153q0 -43 38.5 -72.5t103.5 -29.5q68 0 103.5 29.5t35.5 78.5q0 110 -152 112h-85v113z" />
    <glyph glyph-name="questiondown" unicode="&#xbf;" horiz-adv-x="942" 
d="M571 660q-1 -103 -20.5 -164t-66.5 -118.5t-136.5 -151.5t-99.5 -190l-2 -36q0 -106 56 -162t162 -56q97 0 158 55t61 143h179q-2 -156 -111 -255t-287 -99q-190 0 -294 97.5t-104 271.5q0 168 156 338l106 110q63 76 63 217h180zM579 968q0 -43 -26.5 -73.5t-79 -30.5
t-80 30.5t-27.5 73.5t27.5 72t80 29t79 -29t26.5 -72z" />
    <glyph glyph-name="Agrave" unicode="&#xc0;" horiz-adv-x="1298" 
d="M946 369h-594l-132 -369h-193l540 1414h164l540 -1414h-191zM409 523h481l-241 661zM755 1506h-154l-250 285h216z" />
    <glyph glyph-name="Aacute" unicode="&#xc1;" horiz-adv-x="1298" 
d="M946 369h-594l-132 -369h-193l540 1414h164l540 -1414h-191zM409 523h481l-241 661zM742 1791h216l-260 -285h-145z" />
    <glyph glyph-name="Acircumflex" unicode="&#xc2;" horiz-adv-x="1298" 
d="M946 369h-594l-132 -369h-193l540 1414h164l540 -1414h-191zM409 523h481l-241 661zM947 1527v-10h-149l-145 165l-145 -165h-149v12l239 264h109z" />
    <glyph glyph-name="Atilde" unicode="&#xc3;" horiz-adv-x="1298" 
d="M946 369h-594l-132 -369h-193l540 1414h164l540 -1414h-191zM409 523h481l-241 661zM998 1762q0 -104 -60 -169.5t-149 -65.5q-40 0 -69 10t-76.5 40t-68.5 36t-47 6q-41 0 -68.5 -30.5t-27.5 -78.5l-121 7q0 104 59 172.5t149 68.5q33 0 60.5 -10t74 -38.5t71.5 -37
t55 -8.5q42 0 69.5 33t27.5 76z" />
    <glyph glyph-name="Adieresis" unicode="&#xc4;" horiz-adv-x="1298" 
d="M946 369h-594l-132 -369h-193l540 1414h164l540 -1414h-191zM409 523h481l-241 661zM367.5 1706q26.5 30 79 30t79.5 -30t27 -73.5t-27 -72.5t-79.5 -29t-79 29t-26.5 72.5t26.5 73.5zM785 1704.5q27 30.5 79.5 30.5t79.5 -30.5t27 -74t-27 -72.5t-79.5 -29t-79.5 29
t-27 72.5t27 74z" />
    <glyph glyph-name="Aring" unicode="&#xc5;" horiz-adv-x="1298" 
d="M946 369h-594l-132 -369h-193l540 1414h164l540 -1414h-191zM409 523h481l-241 661zM503.5 1822q59.5 59 149 59t149 -59t59.5 -143t-59.5 -141t-148.5 -57q-90 0 -149.5 57.5t-59.5 141t59.5 142.5zM540 1679q0 -45 32.5 -78.5t80.5 -33.5q46 0 79 32.5t33 80t-32.5 81
t-79.5 33.5q-49 0 -81 -34t-32 -81z" />
    <glyph glyph-name="AE" unicode="&#xc6;" horiz-adv-x="1859" 
d="M1825 0h-858l-14 343h-548l-199 -343h-220l856 1414h923v-148h-671l19 -457h573v-147h-567l22 -515h684v-147zM503 512h444l-31 712z" />
    <glyph glyph-name="Ccedilla" unicode="&#xc7;" horiz-adv-x="1295" 
d="M1204 449q-26 -224 -165.5 -346.5t-370.5 -122.5q-250 0 -401 180t-151 481v136q0 197 70 346.5t199.5 230t299.5 80.5q225 0 361 -126t158 -349h-187q-24 170 -105 245.5t-227 75.5q-179 0 -280.5 -132t-101.5 -376v-136q0 -231 96 -367t269 -136q156 0 239 70.5
t110 245.5h187zM730 -9l-12 -50q148 -26 148 -169q0 -94 -77.5 -149t-216.5 -55l-7 104q77 0 119.5 25.5t42.5 71.5q0 43 -31.5 63t-126.5 29l31 130h130z" />
    <glyph glyph-name="Egrave" unicode="&#xc8;" horiz-adv-x="1131" 
d="M963 653h-612v-501h711v-152h-898v1414h889v-154h-702v-454h612v-153zM704 1517h-154l-251 286h217z" />
    <glyph glyph-name="Eacute" unicode="&#xc9;" horiz-adv-x="1131" 
d="M963 653h-612v-501h711v-152h-898v1414h889v-154h-702v-454h612v-153zM690 1803h217l-260 -286h-145z" />
    <glyph glyph-name="Ecircumflex" unicode="&#xca;" horiz-adv-x="1131" 
d="M963 653h-612v-501h711v-152h-898v1414h889v-154h-702v-454h612v-153zM896 1539v-10h-149l-146 165l-145 -165h-148v12l239 264h108z" />
    <glyph glyph-name="Edieresis" unicode="&#xcb;" horiz-adv-x="1131" 
d="M1062 0h-898v1414h889v-154h-702v-454h612v-153h-612v-501h711v-152zM396 1543q-53 0 -80 29t-27 73q0 43 27 73t80 30q52 0 79 -30t27 -73q0 -44 -27 -73t-79 -29zM813 1541q-53 0 -79.5 29t-26.5 73q0 43 26.5 73.5t79.5 30.5q52 0 79.5 -30.5t27.5 -73.5
q0 -44 -27.5 -73t-79.5 -29z" />
    <glyph glyph-name="Igrave" unicode="&#xcc;" horiz-adv-x="541" 
d="M364 0h-186v1414h186v-1414zM374 1517h-154l-251 286h216z" />
    <glyph glyph-name="Iacute" unicode="&#xcd;" horiz-adv-x="541" 
d="M364 0h-186v1414h186v-1414zM358 1803h218l-260 -286h-145z" />
    <glyph glyph-name="Icircumflex" unicode="&#xce;" horiz-adv-x="541" 
d="M364 0h-186v1414h186v-1414zM565 1539v-10h-148l-146 165l-144 -165h-150v12l240 264h109z" />
    <glyph glyph-name="Idieresis" unicode="&#xcf;" horiz-adv-x="541" 
d="M364 0h-186v1414h186v-1414zM66 1543q-53 0 -80 29t-27 73q0 43 27 73t80 30q52 0 79 -30t27 -73q0 -44 -27 -73t-79 -29zM484 1541q-53 0 -80 29t-27 73q0 43 27 73.5t80 30.5q52 0 78.5 -30.5t26.5 -73.5q0 -44 -26.5 -73t-78.5 -29z" />
    <glyph glyph-name="Eth" unicode="&#xd0;" horiz-adv-x="1334" 
d="M193 0v647h-157v147h157v620h399q185 0 326.5 -81t219 -232t78.5 -347v-90q0 -200 -77.5 -350.5t-220.5 -231t-333 -82.5h-392zM653 647h-273v-495h195q216 0 336 133.5t121 374.5v91q0 241 -113.5 374t-321.5 135h-217v-466h273v-147z" />
    <glyph glyph-name="Ntilde" unicode="&#xd1;" horiz-adv-x="1418" 
d="M1252 0h-189l-712 1090v-1090h-187v1414h187l714 -1094v1094h187v-1414zM1050 1762q0 -104 -59.5 -169.5t-148.5 -65.5q-41 0 -70 10t-76 40t-68 36t-48 6q-40 0 -68 -30.5t-28 -78.5l-121 7q0 104 59 172.5t149 68.5q34 0 61 -10t74 -38.5t71.5 -37t55.5 -8.5
q41 0 69 33t28 76z" />
    <glyph glyph-name="Ograve" unicode="&#xd2;" horiz-adv-x="1367" 
d="M1253 661q0 -208 -70.5 -362.5t-199 -236.5t-298.5 -82q-167 0 -296.5 82.5t-200.5 234.5t-73 352v102q0 203 70.5 359.5t200.5 240t297 83.5q170 0 299.5 -82.5t200 -238.5t70.5 -362v-90zM1066 753q0 251 -101 385.5t-282 134.5q-177 0 -278.5 -134.5t-104.5 -373.5
v-104q0 -243 102.5 -382.5t282.5 -139.5t279 131.5t102 377.5v105zM789 1508h-154l-251 285h216z" />
    <glyph glyph-name="Oacute" unicode="&#xd3;" horiz-adv-x="1367" 
d="M1253 661q0 -208 -70.5 -362.5t-199 -236.5t-298.5 -82q-167 0 -296.5 82.5t-200.5 234.5t-73 352v102q0 203 70.5 359.5t200.5 240t297 83.5q170 0 299.5 -82.5t200 -238.5t70.5 -362v-90zM1066 753q0 251 -101 385.5t-282 134.5q-177 0 -278.5 -134.5t-104.5 -373.5
v-104q0 -243 102.5 -382.5t282.5 -139.5t279 131.5t102 377.5v105zM774 1793h218l-260 -285h-145z" />
    <glyph glyph-name="Ocircumflex" unicode="&#xd4;" horiz-adv-x="1367" 
d="M1253 661q0 -208 -70.5 -362.5t-199 -236.5t-298.5 -82q-167 0 -296.5 82.5t-200.5 234.5t-73 352v102q0 203 70.5 359.5t200.5 240t297 83.5q170 0 299.5 -82.5t200 -238.5t70.5 -362v-90zM1066 753q0 251 -101 385.5t-282 134.5q-177 0 -278.5 -134.5t-104.5 -373.5
v-104q0 -243 102.5 -382.5t282.5 -139.5t279 131.5t102 377.5v105zM980 1529v-10h-148l-146 165l-145 -165h-149v12l240 264h109z" />
    <glyph glyph-name="Otilde" unicode="&#xd5;" horiz-adv-x="1367" 
d="M1253 661q0 -208 -70.5 -362.5t-199 -236.5t-298.5 -82q-167 0 -296.5 82.5t-200.5 234.5t-73 352v102q0 203 70.5 359.5t200.5 240t297 83.5q170 0 299.5 -82.5t200 -238.5t70.5 -362v-90zM1066 753q0 251 -101 385.5t-282 134.5q-177 0 -278.5 -134.5t-104.5 -373.5
v-104q0 -243 102.5 -382.5t282.5 -139.5t279 131.5t102 377.5v105zM1031 1764q0 -105 -60 -170t-149 -65q-40 0 -69 10t-76 40t-68 36t-49 6q-39 0 -67.5 -30.5t-28.5 -78.5l-120 7q0 104 58.5 172t149.5 68q34 0 61 -9.5t74 -38t71.5 -37.5t54.5 -9q41 0 69 33.5t28 76.5z
" />
    <glyph glyph-name="Odieresis" unicode="&#xd6;" horiz-adv-x="1367" 
d="M685 -20q-256 0 -411.5 183t-158.5 486v102q0 312 156 497.5t412 185.5q261 0 415.5 -184t154.5 -499v-90q0 -315 -154.5 -498t-413.5 -183zM685 139q180 0 279 131.5t102 377.5v105q0 251 -101 385.5t-282 134.5q-177 0 -278.5 -134.5t-104.5 -373.5v-104
q0 -243 102.5 -382.5t282.5 -139.5zM481 1533q-53 0 -80 29t-27 73q0 43 27 73t80 30q52 0 79 -30t27 -73q0 -44 -27 -73t-79 -29zM898 1531q-53 0 -79.5 29t-26.5 73q0 43 26.5 73.5t79.5 30.5q52 0 79 -30.5t27 -73.5q0 -44 -27 -73t-79 -29z" />
    <glyph glyph-name="multiply" unicode="&#xd7;" horiz-adv-x="1359" 
d="M1163 199l-98 -88l-385 387l-385 -387l-99 88l397 394l-397 395l99 89l385 -387l385 387l98 -89l-397 -395z" />
    <glyph glyph-name="Oslash" unicode="&#xd8;" horiz-adv-x="1367" 
d="M1253 661q0 -208 -70.5 -362.5t-199 -236.5t-298.5 -82q-166 0 -294 80l-94 -150h-138l140 224q-184 187 -184 536v81q0 203 70.5 359.5t200.5 240t297 83.5q208 0 352 -122l100 160h136l-154 -247q134 -181 136 -468v-96zM300 661q0 -236 95 -374l549 878
q-99 108 -261 108q-177 0 -278.5 -134.5t-104.5 -373.5v-104zM1066 753q0 177 -54 303l-533 -855q88 -62 206 -62q180 0 279 131.5t102 377.5v105z" />
    <glyph glyph-name="Ugrave" unicode="&#xd9;" horiz-adv-x="1290" 
d="M1159 1414v-962q-1 -200 -125.5 -327t-338.5 -143l-49 -2q-232 0 -370 125.5t-140 345.5v963h185v-958q0 -153 84 -238t241 -85q158 0 242 84.5t84 237.5v959h187zM751 1506h-155l-250 285h216z" />
    <glyph glyph-name="Uacute" unicode="&#xda;" horiz-adv-x="1290" 
d="M1159 1414v-962q-1 -200 -125.5 -327t-338.5 -143l-49 -2q-232 0 -370 125.5t-140 345.5v963h185v-958q0 -153 84 -238t241 -85q158 0 242 84.5t84 237.5v959h187zM737 1791h217l-261 -285h-144z" />
    <glyph glyph-name="Ucircumflex" unicode="&#xdb;" horiz-adv-x="1290" 
d="M1159 1414v-962q-1 -200 -125.5 -327t-338.5 -143l-49 -2q-232 0 -370 125.5t-140 345.5v963h185v-958q0 -153 84 -238t241 -85q158 0 242 84.5t84 237.5v959h187zM943 1527v-10h-149l-146 165l-145 -165h-149v12l239 264h109z" />
    <glyph glyph-name="Udieresis" unicode="&#xdc;" horiz-adv-x="1290" 
d="M646 -20q-232 0 -370 125.5t-140 345.5v963h185v-958q0 -153 84 -238t241 -85q158 0 242 84.5t84 237.5v959h187v-962q-1 -200 -125.5 -327t-338.5 -143zM442 1531q-53 0 -79.5 29t-26.5 73q0 103 106 103q52 0 79.5 -30t27.5 -73q0 -44 -27.5 -73t-79.5 -29zM860 1529
q-53 0 -80 29t-27 73q0 43 27 73.5t80 30.5q52 0 79 -30.5t27 -73.5q0 -44 -27 -73t-79 -29z" />
    <glyph glyph-name="Yacute" unicode="&#xdd;" horiz-adv-x="1195" 
d="M595 704l369 710h212l-487 -886v-528h-187v528l-487 886h214zM688 1791h217l-260 -285h-145z" />
    <glyph glyph-name="Thorn" unicode="&#xde;" horiz-adv-x="1056" 
d="M997 718q0 -82 -31.5 -158.5t-85.5 -127.5q-71 -68 -170.5 -101t-237.5 -33h-165v-298h-165v1358h165v-249h172q121 0 209.5 -21t149.5 -60q74 -48 116.5 -124.5t42.5 -185.5zM825 714q0 69 -25 121t-79 85q-46 28 -106.5 40t-144.5 12h-163v-539h135q112 0 184 19
t117 63q43 39 62.5 88t19.5 111z" />
    <glyph glyph-name="germandbls" unicode="&#xdf;" horiz-adv-x="1251" 
d="M838 74q71 0 116 43.5t45 131.5q0 33 -6.5 60t-28 52.5t-58 51.5t-94.5 53q-60 30 -106.5 59.5t-77.5 65.5t-46.5 81t-15.5 107q0 59 19.5 107t59.5 82.5t99.5 53.5t141.5 19q0 90 -14 155.5t-43 108t-74 63t-112 20.5q-56 0 -101.5 -19t-74 -53t-43 -83.5t-14.5 -111.5
v-1121h-366v81h26q33 0 62 4.5t50 19.5t34 42t13 73v725h-157v92h157v57q0 107 31 179t87.5 118t133 65t164.5 19q121 0 201 -33.5t129 -100.5t69.5 -165.5t22.5 -226.5h-141q-103 0 -151 -38.5t-48 -117.5q0 -29 9.5 -53t33 -46.5t62 -44.5t96.5 -50q73 -33 119 -71
t72.5 -78t36.5 -82.5t10 -85.5q0 -73 -22.5 -130.5t-64.5 -95t-102.5 -56.5t-136.5 -19q-69 0 -125 12.5t-95.5 38.5t-60.5 64.5t-21 89.5q0 39 11.5 65t27.5 41.5t36 21t34 5.5q0 -50 10 -95t32.5 -78t59 -52.5t89.5 -19.5z" />
    <glyph glyph-name="agrave" unicode="&#xe0;" horiz-adv-x="1082" 
d="M785 0q-16 31 -26 111q-124 -131 -299 -131q-155 0 -254.5 88t-99.5 223q0 164 124.5 255.5t351.5 91.5h174v82q0 94 -56 150t-165 56q-97 0 -162 -48.5t-65 -118.5h-180q0 80 55.5 153t151.5 115.5t210 42.5q182 0 285 -90.5t107 -249.5v-484q0 -145 36 -230v-16h-188z
M486 137q85 0 161 44t109 113v216h-140q-331 0 -331 -193q0 -85 56.5 -132.5t144.5 -47.5zM667 1204h-154l-251 286h217z" />
    <glyph glyph-name="aacute" unicode="&#xe1;" horiz-adv-x="1082" 
d="M785 0q-16 31 -26 111q-124 -131 -299 -131q-155 0 -254.5 88t-99.5 223q0 164 124.5 255.5t351.5 91.5h174v82q0 94 -56 150t-165 56q-97 0 -162 -48.5t-65 -118.5h-180q0 80 55.5 153t151.5 115.5t210 42.5q182 0 285 -90.5t107 -249.5v-484q0 -145 36 -230v-16h-188z
M486 137q85 0 161 44t109 113v216h-140q-331 0 -331 -193q0 -85 56.5 -132.5t144.5 -47.5zM653 1490h217l-260 -286h-145z" />
    <glyph glyph-name="acircumflex" unicode="&#xe2;" horiz-adv-x="1082" 
d="M785 0q-16 31 -26 111q-124 -131 -299 -131q-155 0 -254.5 88t-99.5 223q0 164 124.5 255.5t351.5 91.5h174v82q0 94 -56 150t-165 56q-97 0 -162 -48.5t-65 -118.5h-180q0 80 55.5 153t151.5 115.5t210 42.5q182 0 285 -90.5t107 -249.5v-484q0 -145 36 -230v-16h-188z
M486 137q85 0 161 44t109 113v216h-140q-331 0 -331 -193q0 -85 56.5 -132.5t144.5 -47.5zM858 1226v-10h-148l-146 165l-144 -165h-149v12l239 264h109z" />
    <glyph glyph-name="atilde" unicode="&#xe3;" horiz-adv-x="1082" 
d="M785 0q-16 31 -26 111q-124 -131 -299 -131q-155 0 -254.5 88t-99.5 223q0 164 124.5 255.5t351.5 91.5h174v82q0 94 -56 150t-165 56q-97 0 -162 -48.5t-65 -118.5h-180q0 80 55.5 153t151.5 115.5t210 42.5q182 0 285 -90.5t107 -249.5v-484q0 -145 36 -230v-16h-188z
M486 137q85 0 161 44t109 113v216h-140q-331 0 -331 -193q0 -85 56.5 -132.5t144.5 -47.5zM909 1460q0 -104 -59.5 -169t-149.5 -65q-40 0 -69 10t-76 40t-68 36t-48 6q-40 0 -68 -31t-28 -78l-120 7q0 104 58.5 172.5t149.5 68.5q33 0 60.5 -10t74 -38.5t71 -37.5t54.5 -9
q43 0 70.5 33.5t27.5 76.5z" />
    <glyph glyph-name="adieresis" unicode="&#xe4;" horiz-adv-x="1082" 
d="M785 0q-16 31 -26 111q-124 -131 -299 -131q-155 0 -254.5 88t-99.5 223q0 164 124.5 255.5t351.5 91.5h174v82q0 94 -56 150t-165 56q-97 0 -162 -48.5t-65 -118.5h-180q0 80 55.5 153t151.5 115.5t210 42.5q182 0 285 -90.5t107 -249.5v-484q0 -145 36 -230v-16h-188z
M486 137q85 0 161 44t109 113v216h-140q-331 0 -331 -193q0 -85 56.5 -132.5t144.5 -47.5zM279 1405q27 30 79.5 30t79.5 -30t27 -73.5t-27 -72.5t-79.5 -29t-79.5 29t-27 72.5t27 73.5zM697 1403.5q27 30.5 79.5 30.5t79.5 -30.5t27 -74t-27 -72.5t-79.5 -29t-79.5 29
t-27 72.5t27 74z" />
    <glyph glyph-name="aring" unicode="&#xe5;" horiz-adv-x="1082" 
d="M785 0q-16 31 -26 111q-124 -131 -299 -131q-155 0 -254.5 88t-99.5 223q0 164 124.5 255.5t351.5 91.5h174v82q0 94 -56 150t-165 56q-97 0 -162 -48.5t-65 -118.5h-180q0 80 55.5 153t151.5 115.5t210 42.5q182 0 285 -90.5t107 -249.5v-484q0 -145 36 -230v-16h-188z
M486 137q85 0 161 44t109 113v216h-140q-331 0 -331 -193q0 -85 56.5 -132.5t144.5 -47.5zM415 1520.5q60 59.5 149 59.5t149 -59.5t60 -142.5q0 -84 -60 -141t-149 -57t-149 57.5t-60 140.5t60 142.5zM452 1378q0 -45 32.5 -78.5t79.5 -33.5t80 32.5t33 80t-32.5 81
t-80.5 33.5t-80 -34t-32 -81z" />
    <glyph glyph-name="ae" unicode="&#xe6;" horiz-adv-x="1679" 
d="M1226 -20q-254 0 -385 175q-64 -83 -174 -129t-246 -46q-163 0 -254 84.5t-91 230.5q0 153 110 237.5t325 84.5h217v82q0 104 -53.5 164t-154.5 60q-102 0 -170 -53.5t-68 -131.5l-179 17q0 140 117.5 227.5t299.5 87.5q112 0 197 -40t134 -121q61 77 145.5 119t186.5 42
q204 0 317 -124.5t113 -351.5v-111h-708q7 -171 91.5 -263.5t229.5 -92.5q143 0 261 73l46 30l62 -132q-153 -118 -369 -118zM455 127q71 0 147.5 35.5t125.5 88.5v230h-222q-114 -2 -182 -55.5t-68 -134.5q0 -74 51.5 -119t147.5 -45zM1183 923q-112 0 -184 -83.5
t-89 -217.5h523v30q0 128 -65 199.5t-185 71.5z" />
    <glyph glyph-name="ccedilla" unicode="&#xe7;" horiz-adv-x="1042" 
d="M557 128q96 0 168 58t80 146h170q-5 -91 -62.5 -173t-153 -130.5t-202.5 -48.5q-214 0 -341 143.5t-127 392.5v30q0 153 56.5 273t162 185.5t248.5 65.5q178 0 294.5 -106t124.5 -274h-170q-8 102 -77.5 167.5t-171.5 65.5q-136 0 -211.5 -98.5t-75.5 -285.5v-34
q0 -181 75 -279t213 -98zM587 -9l-12 -50q149 -26 149 -169q0 -94 -78 -149t-216 -55l-7 104q76 0 118.5 25.5t42.5 71.5q0 43 -31 63t-126 29l30 130h130z" />
    <glyph glyph-name="egrave" unicode="&#xe8;" horiz-adv-x="1054" 
d="M572 -20q-214 0 -348 140.5t-134 375.5v34q0 156 60 279t167.5 192t232.5 69q204 0 318 -135t114 -386v-75h-712q4 -155 91 -250.5t221 -95.5q95 0 161 38.5t115 102.5l110 -86q-131 -203 -396 -203zM550 923q-109 0 -183 -79.5t-91 -221.5h526v14q-8 136 -74 211.5
t-178 75.5zM652 1204h-155l-250 286h216z" />
    <glyph glyph-name="eacute" unicode="&#xe9;" horiz-adv-x="1054" 
d="M572 -20q-214 0 -348 140.5t-134 375.5v34q0 156 60 279t167.5 192t232.5 69q204 0 318 -135t114 -386v-75h-712q4 -155 91 -250.5t221 -95.5q95 0 161 38.5t115 102.5l110 -86q-131 -203 -396 -203zM550 923q-109 0 -183 -79.5t-91 -221.5h526v14q-8 136 -74 211.5
t-178 75.5zM638 1490h216l-260 -286h-144z" />
    <glyph glyph-name="ecircumflex" unicode="&#xea;" horiz-adv-x="1054" 
d="M572 -20q-214 0 -348 140.5t-134 375.5v34q0 156 60 279t167.5 192t232.5 69q204 0 318 -135t114 -386v-75h-712q4 -155 91 -250.5t221 -95.5q95 0 161 38.5t115 102.5l110 -86q-131 -203 -396 -203zM550 923q-109 0 -183 -79.5t-91 -221.5h526v14q-8 136 -74 211.5
t-178 75.5zM844 1226v-10h-150l-145 165l-145 -165h-149v12l239 264h109z" />
    <glyph glyph-name="edieresis" unicode="&#xeb;" horiz-adv-x="1054" 
d="M572 -20q-214 0 -348 140.5t-134 375.5v34q0 156 60 279t167.5 192t232.5 69q204 0 318 -135t114 -386v-75h-712q4 -155 91 -250.5t221 -95.5q95 0 161 38.5t115 102.5l110 -86q-131 -203 -396 -203zM550 923q-109 0 -183 -79.5t-91 -221.5h526v14q-8 136 -74 211.5
t-178 75.5zM263.5 1405q26.5 30 79 30t80 -30t27.5 -73.5t-27.5 -72.5t-80 -29t-79 29t-26.5 72.5t26.5 73.5zM681 1403.5q27 30.5 79.5 30.5t79.5 -30.5t27 -74t-27 -72.5t-79.5 -29t-79.5 29t-27 72.5t27 74z" />
    <glyph glyph-name="igrave" unicode="&#xec;" horiz-adv-x="491" 
d="M332 0h-181v1051h181v-1051zM349 1203h-155l-250 286h216z" />
    <glyph glyph-name="iacute" unicode="&#xed;" horiz-adv-x="491" 
d="M332 0h-181v1051h181v-1051zM333 1489h218l-261 -286h-144z" />
    <glyph glyph-name="icircumflex" unicode="&#xee;" horiz-adv-x="491" 
d="M332 0h-181v1051h181v-1051zM540 1225v-10h-149l-145 165l-145 -165h-149v12l239 264h109z" />
    <glyph glyph-name="idieresis" unicode="&#xef;" horiz-adv-x="491" 
d="M332 0h-181v1051h181v-1051zM-39.5 1404q26.5 30 79 30t80 -30t27.5 -73.5t-27.5 -72.5t-80 -29t-79 29t-26.5 72.5t26.5 73.5zM378 1402.5q27 30.5 79.5 30.5t79.5 -30.5t27 -74t-27 -72.5t-79.5 -29t-79.5 29t-27 72.5t27 74z" />
    <glyph glyph-name="eth" unicode="&#xf0;" horiz-adv-x="1165" 
d="M796 1263q243 -256 243 -653v-90q0 -154 -57 -276.5t-162 -193t-235 -70.5q-132 0 -238.5 63t-165 172t-58.5 238q0 143 54 256.5t155 176.5t225 63q159 0 277 -110q-47 189 -184 325l-212 -143l-71 96l186 128q-127 88 -305 135l55 155q233 -53 402 -187l184 124l70 -97
zM858 617l-2 54q-31 60 -98.5 95t-157.5 35q-141 0 -219.5 -92.5t-78.5 -255.5q0 -135 81 -230t206 -95q121 0 195 109.5t74 288.5v91z" />
    <glyph glyph-name="ntilde" unicode="&#xf1;" horiz-adv-x="1098" 
d="M306 1051l6 -132q121 151 315 151q332 0 335 -376v-694h-179v695q-1 114 -52 168.5t-159 54.5q-87 0 -153.5 -46.5t-102.5 -122.5v-749h-180v1051h170zM900 1460q0 -104 -59.5 -169t-149.5 -65q-39 0 -68.5 10t-76.5 40t-68 36t-47 6q-41 0 -69 -31t-28 -78l-120 7
q0 104 59 172.5t149 68.5q33 0 60.5 -10t74 -38.5t71.5 -37.5t55 -9q42 0 69.5 33.5t27.5 76.5z" />
    <glyph glyph-name="ograve" unicode="&#xf2;" horiz-adv-x="1135" 
d="M88 536q0 154 61 277.5t169.5 190t246.5 66.5q215 0 348 -148.5t133 -394.5v-13q0 -154 -59 -275.5t-168.5 -190t-251.5 -68.5q-214 0 -346.5 149t-132.5 394v13zM269 514q0 -175 81.5 -280.5t216.5 -105.5q137 0 217.5 107t80.5 301q0 172 -82 279.5t-218 107.5
q-132 0 -214 -106t-82 -303zM662 1204h-154l-251 286h217z" />
    <glyph glyph-name="oacute" unicode="&#xf3;" horiz-adv-x="1135" 
d="M88 536q0 154 61 277.5t169.5 190t246.5 66.5q215 0 348 -148.5t133 -394.5v-13q0 -154 -59 -275.5t-168.5 -190t-251.5 -68.5q-214 0 -346.5 149t-132.5 394v13zM269 514q0 -175 81.5 -280.5t216.5 -105.5q137 0 217.5 107t80.5 301q0 172 -82 279.5t-218 107.5
q-132 0 -214 -106t-82 -303zM648 1490h217l-260 -286h-145z" />
    <glyph glyph-name="ocircumflex" unicode="&#xf4;" horiz-adv-x="1135" 
d="M88 536q0 154 61 277.5t169.5 190t246.5 66.5q215 0 348 -148.5t133 -394.5v-13q0 -154 -59 -275.5t-168.5 -190t-251.5 -68.5q-214 0 -346.5 149t-132.5 394v13zM269 514q0 -175 81.5 -280.5t216.5 -105.5q137 0 217.5 107t80.5 301q0 172 -82 279.5t-218 107.5
q-132 0 -214 -106t-82 -303zM853 1226v-10h-148l-146 165l-144 -165h-149v12l239 264h109z" />
    <glyph glyph-name="otilde" unicode="&#xf5;" horiz-adv-x="1135" 
d="M88 536q0 154 61 277.5t169.5 190t246.5 66.5q215 0 348 -148.5t133 -394.5v-13q0 -154 -59 -275.5t-168.5 -190t-251.5 -68.5q-214 0 -346.5 149t-132.5 394v13zM269 514q0 -175 81.5 -280.5t216.5 -105.5q137 0 217.5 107t80.5 301q0 172 -82 279.5t-218 107.5
q-132 0 -214 -106t-82 -303zM904 1460q0 -104 -59.5 -169t-149.5 -65q-40 0 -69 10t-76 40t-68 36t-47 6q-41 0 -69 -31t-28 -78l-120 7q0 104 58.5 172.5t149.5 68.5q33 0 60.5 -10t74 -38.5t71 -37.5t55.5 -9q42 0 69.5 33.5t27.5 76.5z" />
    <glyph glyph-name="odieresis" unicode="&#xf6;" horiz-adv-x="1135" 
d="M88 536q0 154 61 277.5t169.5 190t246.5 66.5q215 0 348 -148.5t133 -394.5v-13q0 -154 -59 -275.5t-168.5 -190t-251.5 -68.5q-214 0 -346.5 149t-132.5 394v13zM269 514q0 -175 81.5 -280.5t216.5 -105.5q137 0 217.5 107t80.5 301q0 172 -82 279.5t-218 107.5
q-132 0 -214 -106t-82 -303zM274.5 1405q26.5 30 79 30t79.5 -30t27 -73.5t-27 -72.5t-79.5 -29t-79 29t-26.5 72.5t26.5 73.5zM692 1403.5q27 30.5 79.5 30.5t79.5 -30.5t27 -74t-27 -72.5t-79.5 -29t-79.5 29t-27 72.5t27 74z" />
    <glyph glyph-name="divide" unicode="&#xf7;" horiz-adv-x="1365" 
d="M784 937h-202v234h202v-234zM1217 530h-1069v147h1069v-147zM784 16h-202v235h202v-235z" />
    <glyph glyph-name="oslash" unicode="&#xf8;" horiz-adv-x="1127" 
d="M88 536q0 154 60 277t169.5 190t247.5 67q107 0 198 -40l72 143h119l-99 -199q191 -149 191 -460q0 -154 -60.5 -277t-169.5 -190t-249 -67q-101 0 -184 35l-72 -145h-121l97 197q-199 145 -199 469zM268 514q0 -188 94 -296l333 674q-59 31 -130 31q-133 0 -215 -106
t-82 -303zM864 536q0 176 -84 284l-330 -669q53 -23 117 -23q135 0 216 106t81 286v16z" />
    <glyph glyph-name="ugrave" unicode="&#xf9;" horiz-adv-x="1097" 
d="M785 104q-105 -124 -308 -124q-168 0 -256 98t-89 289v684h180v-679q0 -239 194 -239q206 0 274 153v765h179v-1051h-170zM653 1204h-154l-250 286h216z" />
    <glyph glyph-name="uacute" unicode="&#xfa;" horiz-adv-x="1097" 
d="M785 104q-105 -124 -308 -124q-168 0 -256 98t-89 289v684h180v-679q0 -239 194 -239q206 0 274 153v765h179v-1051h-170zM640 1490h216l-260 -286h-144z" />
    <glyph glyph-name="ucircumflex" unicode="&#xfb;" horiz-adv-x="1097" 
d="M785 104q-105 -124 -308 -124q-168 0 -256 98t-89 289v684h180v-679q0 -239 194 -239q206 0 274 153v765h179v-1051h-170zM845 1226v-10h-149l-145 165l-145 -165h-149v12l239 264h109z" />
    <glyph glyph-name="udieresis" unicode="&#xfc;" horiz-adv-x="1097" 
d="M785 104q-105 -124 -308 -124q-168 0 -256 98t-89 289v684h180v-679q0 -239 194 -239q206 0 274 153v765h179v-1051h-170zM265.5 1405q26.5 30 79 30t80 -30t27.5 -73.5t-27.5 -72.5t-80 -29t-79 29t-26.5 72.5t26.5 73.5zM683 1403.5q27 30.5 79.5 30.5t79.5 -30.5
t27 -74t-27 -72.5t-79.5 -29t-79.5 29t-27 72.5t27 74z" />
    <glyph glyph-name="yacute" unicode="&#xfd;" horiz-adv-x="942" 
d="M480 263l245 788h192l-423 -1213q-98 -263 -312 -263l-33 3l-68 13v146l49 -4q92 0 143 37t83 135l40 107l-374 1039h196zM582 1490h217l-260 -286h-145z" />
    <glyph glyph-name="thorn" unicode="&#xfe;" horiz-adv-x="1147" 
d="M1033 514q0 -240 -110 -387t-297 -147q-191 0 -301 122v-506h-180v1896h180v-549q110 127 298 127q189 0 299.5 -142.5t110.5 -396.5v-17zM853 535q0 177 -76 280t-208 103q-163 0 -244 -145v-502q80 -143 246 -143q129 0 205.5 102.5t76.5 304.5z" />
    <glyph glyph-name="ydieresis" unicode="&#xff;" horiz-adv-x="942" 
d="M480 263l245 788h192l-423 -1213q-98 -263 -312 -263l-33 3l-68 13v146l49 -4q92 0 143 37t83 135l40 107l-374 1039h196zM208 1405q27 30 79.5 30t79.5 -30t27 -73.5t-27 -72.5t-79.5 -29t-79.5 29t-27 72.5t27 73.5zM626 1403.5q27 30.5 79 30.5t79.5 -30.5t27.5 -74
t-27.5 -72.5t-79.5 -29t-79 29t-27 72.5t27 74z" />
    <glyph glyph-name="dotlessi" horiz-adv-x="483" 
d="M308 210q0 -163 94 -163h44v-47h-416v47h43q94 0 94 163v405q0 73 -104 73h-45v42q208 64 245 170h45v-690z" />
    <glyph glyph-name="circumflex" unicode="&#x2c6;" horiz-adv-x="964" 
d="M774 1262v-10h-153l-150 170l-149 -170h-153v12l246 272h112z" />
    <glyph glyph-name="caron" unicode="&#x2c7;" horiz-adv-x="909" 
d="M448 1365l150 170h160v-10l-254 -274h-113l-251 274v10h157z" />
    <glyph glyph-name="uni02C9" unicode="&#x2c9;" horiz-adv-x="1048" 
d="M260 1194v157h528v-157h-528z" />
    <glyph glyph-name="breve" unicode="&#x2d8;" horiz-adv-x="874" 
d="M728 1495q0 -121 -82.5 -194.5t-216.5 -73.5t-217 74t-83 194h151q0 -70 38 -109.5t111 -39.5q70 0 109.5 39t39.5 110h150z" />
    <glyph glyph-name="dotaccent" unicode="&#x2d9;" horiz-adv-x="1048" 
d="M384 1335l87 92q7 7 16 11t17 4q9 0 17 -4t16 -11l90 -96q5 -7 8.5 -14t3.5 -17q-2 -11 -5 -18.5t-10 -15.5l-91 -97q-14 -13 -19 -16t-10 -3q-11 0 -20 3t-13 11l-96 110q-4 5 -6.5 12t-2.5 17q0 7 4 15.5t14 16.5z" />
    <glyph glyph-name="ring" unicode="&#x2da;" horiz-adv-x="962" 
d="M343 1234q0 -52 35.5 -87.5t88.5 -35.5q52 0 87.5 35.5t35.5 87.5q0 49 -36.5 85.5t-86.5 36.5q-51 0 -87.5 -36.5t-36.5 -85.5zM249 1234q0 92 62.5 155t155.5 63q94 0 157.5 -63.5t63.5 -154.5q0 -94 -63.5 -157.5t-157.5 -63.5q-93 0 -155.5 63.5t-62.5 157.5z" />
    <glyph glyph-name="ogonek" unicode="&#x2db;" horiz-adv-x="554" 
d="M382 0l-58 -45q-113 -91 -113 -177q0 -72 78 -72q48 0 100 26l13 -121q-70 -44 -160 -44q-89 0 -140.5 52t-51.5 138q0 89 67 166t190 133z" />
    <glyph glyph-name="tilde" unicode="&#x2dc;" horiz-adv-x="966" 
d="M830 1500q0 -108 -61.5 -175t-153.5 -67q-41 0 -71 10t-78.5 41t-70 37.5t-49.5 6.5q-41 0 -70 -31.5t-29 -80.5l-124 7q0 107 60.5 177t153.5 70q35 0 63 -10t76 -39t73.5 -38t56.5 -9q43 0 71.5 34t28.5 79z" />
    <glyph glyph-name="hungarumlaut" unicode="&#x2dd;" horiz-adv-x="764" 
d="M605 1535h207l-269 -303h-169zM265 1535h197l-218 -303h-150z" />
    <glyph glyph-name="endash" unicode="&#x2013;" horiz-adv-x="1344" 
d="M1164 651h-1002v151h1002v-151z" />
    <glyph glyph-name="emdash" unicode="&#x2014;" horiz-adv-x="1599" 
d="M1480 651h-1336v151h1336v-151z" />
    <glyph glyph-name="quoteleft" unicode="&#x2018;" horiz-adv-x="409" 
d="M270 1555l106 -72q-93 -127 -96 -274v-136h-184v116q0 102 48.5 202t125.5 164z" />
    <glyph glyph-name="quoteright" unicode="&#x2019;" horiz-adv-x="409" 
d="M153 1046l-105 72q93 130 96 274v144h183v-130q-1 -100 -49.5 -199.5t-124.5 -160.5z" />
    <glyph glyph-name="quotesinglbase" unicode="&#x201a;" horiz-adv-x="407" 
d="M141 -283l-105 73q91 127 94 273v118h185v-100q0 -101 -49.5 -202t-124.5 -162z" />
    <glyph glyph-name="quotedblleft" unicode="&#x201c;" horiz-adv-x="724" 
d="M278 1555l106 -72q-93 -127 -96 -274v-136h-184v116q0 102 48.5 202t125.5 164zM593 1555l106 -72q-93 -127 -96 -274v-136h-184v116q0 102 48.5 202t125.5 164z" />
    <glyph glyph-name="quotedblright" unicode="&#x201d;" horiz-adv-x="731" 
d="M165 1046l-105 72q93 130 96 274v144h183v-130q-1 -100 -49.5 -199.5t-124.5 -160.5zM472 1046l-105 72q93 130 96 274v144h183v-130q-1 -100 -49.5 -199.5t-124.5 -160.5z" />
    <glyph glyph-name="quotedblbase" unicode="&#x201e;" horiz-adv-x="705" 
d="M141 -301l-105 72q91 137 94 290v185h185v-164q0 -108 -49.5 -213.5t-124.5 -169.5zM437 -301l-105 72q91 137 94 290v185h186v-164q0 -107 -48.5 -211.5t-126.5 -171.5z" />
    <glyph glyph-name="dagger" unicode="&#x2020;" horiz-adv-x="1025" 
d="M471 1032q-6 65 -49 139q-55 104 -55 136q0 55 40.5 89.5t105.5 34.5q60 0 103.5 -32t43.5 -84q0 -36 -57 -142q-42 -80 -48 -143q66 6 140 48q104 59 136 59q55 0 89 -41.5t34 -106.5q0 -62 -31 -104t-85 -42q-35 0 -142 54q-77 42 -142 51q7 -140 108 -242
q-105 -453 -111 -967h-75q-5 514 -111 967q100 102 107 243q-68 -8 -143 -50q-102 -56 -134 -56q-57 0 -90.5 41t-33.5 105q0 60 31 104t84 44q35 0 143 -57q77 -43 142 -48z" />
    <glyph glyph-name="daggerdbl" unicode="&#x2021;" horiz-adv-x="1025" 
d="M552 220q65 10 144 52q107 55 142 55q51 0 83.5 -42t32.5 -105q0 -65 -34 -106t-91 -41q-32 0 -134 58q-76 44 -142 49q6 -65 50 -145q55 -105 55 -140q0 -52 -42.5 -84t-104.5 -32q-65 0 -105.5 34.5t-40.5 88.5q0 32 57 136q43 74 49 141q-65 -6 -144 -49
q-106 -57 -141 -57q-52 0 -84.5 43t-32.5 104q0 66 34.5 106.5t89.5 40.5q33 0 136 -58q75 -41 143 -49q-9 193 -111 364q102 173 111 365q-68 -8 -143 -50q-103 -56 -136 -56q-55 0 -89.5 40.5t-34.5 105.5q0 60 32.5 104t84.5 44q35 0 141 -57q79 -43 144 -48
q-6 65 -49 139q-57 104 -57 136q0 55 40.5 89.5t105.5 34.5q62 0 104.5 -32.5t42.5 -83.5q0 -35 -55 -142q-44 -80 -50 -143q66 6 142 48q102 59 134 59q57 0 91 -41.5t34 -106.5q0 -62 -32.5 -104t-83.5 -42q-35 0 -142 54q-79 42 -144 51q7 -191 109 -364
q-102 -171 -109 -364z" />
    <glyph glyph-name="bullet" unicode="&#x2022;" horiz-adv-x="1041" 
d="M245 747q0 115 80.5 194t195.5 79q113 0 192 -80t79 -193t-80 -193.5t-193 -80.5q-115 0 -194.5 80.5t-79.5 193.5z" />
    <glyph glyph-name="ellipsis" unicode="&#x2026;" horiz-adv-x="1370" 
d="M148 97q0 48 28.5 80t85.5 32t86.5 -32t29.5 -80q0 -46 -29.5 -77t-86.5 -31t-85.5 31t-28.5 77zM585 97q0 48 28.5 80t85.5 32t86.5 -32t29.5 -80q0 -46 -29.5 -77t-86.5 -31t-85.5 31t-28.5 77zM1000 97q0 48 28.5 80t85.5 32t86.5 -32t29.5 -80q0 -46 -29.5 -77
t-86.5 -31t-85.5 31t-28.5 77z" />
    <glyph glyph-name="guilsinglleft" unicode="&#x2039;" horiz-adv-x="725" 
d="M579 173l-461 395v75l461 394v-162l-316 -270l316 -269v-163z" />
    <glyph glyph-name="guilsinglright" unicode="&#x203a;" horiz-adv-x="726" 
d="M607 568l-462 -395v163l318 269l-318 270v162l462 -394v-75z" />
    <glyph glyph-name="fraction" unicode="&#x2044;" horiz-adv-x="893" 
d="M860 1385l-725 -1385h-163l726 1385h162z" />
    <glyph glyph-name="franc" unicode="&#x20a3;" horiz-adv-x="1132" 
d="M972 643h-611v-643h-192v1456h902v-158h-710v-498h611v-157zM654 266h-636v151h636v-151z" />
    <glyph glyph-name="Euro" unicode="&#x20ac;" horiz-adv-x="1150" 
d="M849 541h-384q4 -195 94 -300t255 -105q116 0 218 34l20 -160q-120 -30 -240 -30q-248 0 -390.5 146.5t-148.5 414.5h-178v124h178v137h-178v125h178q10 262 152.5 405.5t385.5 143.5q106 0 241 -31l-20 -162q-109 35 -219 35q-164 0 -252.5 -101.5t-94.5 -289.5h383
v-125h-384v-137h384v-124z" />
    <glyph glyph-name="uni2116" unicode="&#x2116;" horiz-adv-x="1974" 
d="M987 0l-644 1109v-891q0 -44 12.5 -71.5t34 -42t50 -19t59.5 -4.5h26v-81h-471v81h25q33 0 61.5 4.5t50 19t34 42t12.5 71.5v945q0 41 -12.5 67t-34.5 40t-50.5 18.5t-60.5 4.5h-25v80h341l611 -1063v853q0 41 -12.5 67t-34.5 40t-50 18.5t-61 4.5h-24v80h470v-80h-24
q-31 0 -60.5 -5t-50.5 -19.5t-33.5 -41.5t-12.5 -72v-1155h-126zM1426 583q0 -125 33 -187.5t115 -62.5q80 0 114 62.5t34 187.5q0 123 -34.5 184t-115.5 61t-113.5 -61t-32.5 -184zM1887 583q0 -166 -80 -246.5t-235 -80.5q-149 0 -231.5 81.5t-82.5 245.5q0 166 80 246
t237 80q73 0 130.5 -20.5t98 -61t62 -101.5t21.5 -143zM1323 0v144h502v-144h-502z" />
    <glyph glyph-name="trademark" unicode="&#x2122;" horiz-adv-x="1677" 
d="M1523 740h-97v581h-34l-193 -427h-68l-194 434h-39v-588h-97v645h209l157 -375l158 375h198v-645zM635 1294h-215v-554h-101v554h-216v91h532v-91z" />
    <glyph glyph-name="minus" unicode="&#x2212;" horiz-adv-x="1009" 
d="M111 608v150h788l1 -20v-130h-789z" />
    <glyph glyph-name="radical" unicode="&#x221a;" horiz-adv-x="1382" 
d="M1444 1668l-738 -1810h-84l-323 936h-221v112h354l256 -770l624 1532h132z" />
    <glyph glyph-name="approxequal" unicode="&#x2248;" horiz-adv-x="1392" 
d="M1207 1022q-17 -170 -91.5 -260t-214.5 -90q-63 0 -125 34t-112 76q-27 24 -87 63t-103 39q-74 0 -107 -47t-56 -159h-128q18 157 94 246.5t213 89.5q60 0 123.5 -33.5t113.5 -75.5q34 -29 90.5 -66t99.5 -37q70 0 107.5 53.5t53.5 166.5h129zM1208 535
q-20 -161 -93 -249.5t-215 -88.5q-60 0 -123 34.5t-114 76.5q-35 30 -91 66t-99 36q-74 0 -109.5 -55.5t-51.5 -163.5h-129q15 167 92.5 258t213.5 91q64 0 126.5 -34.5t110.5 -75.5q29 -25 86 -64t104 -39q71 0 105.5 50t56.5 158h130z" />
    <glyph glyph-name="lessequal" unicode="&#x2264;" horiz-adv-x="953" 
d="M871 1009l-587 -337l587 -334v-157l-789 452v78l789 454v-156zM82 1v132h788l1 -1v-131h-789z" />
    <glyph glyph-name="greaterequal" unicode="&#x2265;" horiz-adv-x="953" 
d="M82 1165l789 -454v-78l-789 -452v157l587 334l-587 337v156zM82 2v132h788l1 -1v-131h-789z" />
    <glyph glyph-name="oneeighth" unicode="&#x215b;" horiz-adv-x="1628" 
d="M281 1294l-107 -88l-76 99l201 161h115v-749h-133v577zM213 57l954 1424l109 -74l-954 -1421zM1107.5 12.5q-63.5 28.5 -102 80.5t-38.5 122q0 53 28.5 100t81.5 80q-37 23 -61.5 65t-24.5 85q0 98 75 159.5t175 61.5t174 -61.5t74 -159.5q0 -41 -24.5 -83t-61.5 -67
q53 -33 81.5 -80t28.5 -100q0 -104 -81.5 -167.5t-190.5 -63.5q-70 0 -133.5 28.5zM1319 475q33 29 33 70t-32 70.5t-79 29.5q-49 0 -81 -28.5t-32 -71.5t33 -71t80 -28q45 0 78 29zM1334 138q42 34 42 83q0 47 -43 81t-92 34q-53 0 -95 -33t-42 -82q0 -51 41 -84t96 -33
q51 0 93 34z" />
    <glyph glyph-name="onethird" unicode="&#x2153;" horiz-adv-x="1649" 
d="M281 1294l-107 -88l-76 99l201 161h115v-749h-133v577zM217 57l954 1424l109 -74l-954 -1421zM1059 35q-76 51 -101 151l123 47q17 -65 59 -97t93 -32q53 0 93 34t40 85q0 49 -38 79t-93 30h-84v114h74q51 0 82.5 29t31.5 74q0 43 -31.5 69.5t-76.5 26.5q-90 0 -127 -92
l-117 47q27 76 89.5 121t154.5 45q108 0 177 -60.5t69 -154.5t-95 -156q119 -65 119 -172q0 -108 -79 -173.5t-189 -65.5q-98 0 -174 51z" />
    <glyph glyph-name="twothirds" unicode="&#x2154;" horiz-adv-x="1794" 
d="M102 831l277 277q43 45 66.5 80t23.5 76t-33 69.5t-82 28.5t-85 -32t-48 -93l-123 51q21 90 92.5 142.5t161.5 52.5q103 0 177.5 -60.5t74.5 -158.5q0 -64 -37 -119t-90 -109l-198 -198h329v-121h-506v114zM362 57l955 1424l108 -74l-954 -1421zM1198 35q-76 51 -100 151
l123 47q16 -65 58 -97t93 -32q53 0 93 34t40 85q0 49 -37.5 79t-93.5 30h-84v114h74q51 0 83 29t32 74q0 43 -32 69.5t-77 26.5q-90 0 -127 -92l-117 47q27 76 89.5 121t154.5 45q109 0 177.5 -60.5t68.5 -154.5t-94 -156q118 -65 118 -172q0 -108 -78.5 -173.5
t-189.5 -65.5q-98 0 -174 51z" />
    <glyph glyph-name="threeeighths" unicode="&#x215c;" horiz-adv-x="1724" 
d="M198.5 751.5q-75.5 51.5 -100.5 151.5l123 47q17 -65 59 -97t93 -32q53 0 93 34t40 85q0 49 -38 79t-93 30h-84v114h74q51 0 82.5 29t31.5 74q0 43 -31.5 69.5t-76.5 26.5q-90 0 -127 -92l-117 47q27 76 89.5 121t154.5 45q108 0 176.5 -60.5t68.5 -154.5t-94 -156
q119 -65 119 -172q0 -109 -79 -174.5t-189 -65.5q-99 0 -174.5 51.5zM326 57l954 1424l109 -74l-955 -1421zM1204.5 12.5q-63.5 28.5 -102.5 80.5t-39 122q0 53 28.5 100t82.5 80q-37 23 -62 65t-25 85q0 98 75 159.5t175 61.5q101 0 174.5 -61.5t73.5 -159.5
q0 -41 -24.5 -83t-61.5 -67q53 -33 82 -80t29 -100q0 -104 -82 -167.5t-191 -63.5q-69 0 -132.5 28.5zM1415 475q33 29 33 70t-32 70.5t-79 29.5q-49 0 -80.5 -28.5t-31.5 -71.5t32.5 -71t79.5 -28q45 0 78 29zM1431 138q42 34 42 83q0 47 -43.5 81t-92.5 34q-53 0 -95 -33
t-42 -82q0 -51 41 -84t96 -33q52 0 94 34z" />
    <glyph glyph-name="fiveeighths" unicode="&#x215d;" horiz-adv-x="1726" 
d="M202 748.5q-77 46.5 -104 140.5l125 47q13 -53 52.5 -83t95.5 -30q57 0 96 41t39 101q0 59 -39 99t-96 40q-82 0 -133 -72l-115 47l51 387h424v-114h-313l-25 -176q21 20 55.5 31.5t71.5 11.5q107 0 180.5 -71t73.5 -185q0 -74 -37 -133.5t-99.5 -93.5t-133.5 -34
q-92 0 -169 46.5zM319 57l955 1424l108 -74l-954 -1421zM1206.5 12.5q-63.5 28.5 -102.5 80.5t-39 122q0 53 28.5 100t82.5 80q-37 23 -61.5 65t-24.5 85q0 98 74.5 159.5t174.5 61.5q101 0 174.5 -61.5t73.5 -159.5q0 -41 -24.5 -83t-61.5 -67q53 -33 82 -80t29 -100
q0 -104 -82 -167.5t-191 -63.5q-69 0 -132.5 28.5zM1417 475q33 29 33 70t-32 70.5t-79 29.5q-49 0 -80.5 -28.5t-31.5 -71.5t32.5 -71t79.5 -28q45 0 78 29zM1433 138q42 34 42 83q0 47 -43 81t-93 34q-53 0 -95 -33t-42 -82q0 -51 41 -84t96 -33q52 0 94 34z" />
    <glyph glyph-name="seveneighths" unicode="&#x215e;" horiz-adv-x="1573" 
d="M129 750l322 596h-353v120h508v-112l-358 -668zM135 57l955 1424l108 -74l-954 -1421zM1052.5 12.5q-63.5 28.5 -102.5 80.5t-39 122q0 53 29 100t82 80q-37 23 -61.5 65t-24.5 85q0 98 74.5 159.5t175.5 61.5q100 0 174 -61.5t74 -159.5q0 -41 -25 -83t-61 -67
q53 -33 81.5 -80t28.5 -100q0 -104 -82 -167.5t-190 -63.5q-70 0 -133.5 28.5zM1263.5 475q32.5 29 32.5 70t-31.5 70.5t-78.5 29.5q-49 0 -81 -28.5t-32 -71.5t33 -71t80 -28q45 0 77.5 29zM1279 138q42 34 42 83q0 47 -43 81t-92 34q-53 0 -95 -33t-42 -82q0 -51 40.5 -84
t96.5 -33q51 0 93 34z" />
    <glyph glyph-name="uni1000" unicode="&#x1000;" horiz-adv-x="2062" 
d="M681 68q0 57 53 74q93 34 160 141q63 111 63 233q0 149 -107 254q-108 108 -260 108q-147 0 -254 -113q-108 -110 -108 -260q0 -121 59 -220t165 -144q40 -13 45 -67q0 -75 -94 -71q-139 44 -233 190q-88 146 -88 312q0 212 145 365.5t363 153.5q153 0 278 -78.5
t162 -162.5q35 76 158.5 158.5t276.5 82.5q215 0 363 -148q150 -145 150 -360q0 -218 -147 -366q-145 -150 -358 -150q-80 0 -130 17.5t-50 74.5q0 22 24 54q23 18 65 10l43 -10h48q150 0 254.5 104.5t104.5 265.5q0 149 -107 254q-107 108 -260 108q-147 0 -254 -113
q-108 -110 -108 -260q0 -194 -113 -341q-91 -126 -224 -163q-85 -18 -85 67z" />
    <glyph glyph-name="uni1001" unicode="&#x1001;" horiz-adv-x="1147" 
d="M904 147q-150 -147 -365 -147q-153 0 -274 75.5t-186 226.5l3 54q0 25 32 63q51 48 128 77q72 26 155 26q139 0 265 -78t169 -166q16 15 48.5 84t32.5 138q0 150 -106 263q-102 112 -251 112q-97 0 -181 -50t-143 -149l-21 -20q-37 -25 -77 -12t-40 64l4 35l9 9
q63 124 184 196.5t265 72.5q205 0 353 -156q150 -158 150 -365q0 -205 -154 -353zM686.5 260.5q-36.5 41.5 -82 73t-98 49t-104.5 17.5q-62 0 -103.5 -15.5t-73.5 -48.5q30 -68 120 -136q94 -57 194 -57q120 0 196 52q-12 24 -48.5 65.5z" />
    <glyph glyph-name="uni1002" unicode="&#x1002;" horiz-adv-x="1185" 
d="M1087.5 351q-15.5 -73 -58.5 -145q-73 -121 -211 -203h-32q-39 0 -65 39q-14 37 9 73l27 23q87 49 145 149q22 45 37.5 106.5t15.5 125.5q0 141 -105 246t-249 105q-156 0 -264 -101q-44 -39 -79 -112q-27 -59 -27 -144q0 -122 46.5 -214t150.5 -168l11 -10l17 -43
q0 -31 -15.5 -49t-57.5 -29l-39 4l-11 11q-113 88 -186 214q-65 136 -65 284q0 227 148 366q139 139 371 139q215 0 357 -145q145 -142 145 -354q0 -95 -15.5 -168z" />
    <glyph glyph-name="uni1003" unicode="&#x1003;" horiz-adv-x="2062" 
d="M389 691.5q34 27.5 34 65.5q0 41 -26 70t-67 29t-70 -26t-29 -67q0 -24 -11 -42t-49 -33q-46 -10 -75 44l-11 25q0 52 19.5 96t52.5 77t77 52.5t96 19.5q46 0 90 -19.5t77 -54t52.5 -78.5t19.5 -93q0 -51 -21 -95t-55.5 -77t-78.5 -51.5t-90 -18.5q-28 0 -51 -26t-23 -67
q0 -23 4 -35q15 -53 46 -99t76 -79.5t99.5 -53.5t114.5 -20q145 0 255 105q112 105 112 257q0 61 -16.5 120.5t-45.5 110t-69.5 87.5t-91.5 56q-41 13 -53 72q0 85 84 72q117 -35 223 -166q115 -158 115 -341q0 -151 105 -263q105 -110 257 -110q145 0 255 105
q112 105 112 257q0 145 -105 257.5t-253 112.5l-49 -3l-41 -7q-22 -9 -50 4.5t-41 55.5q0 54 57 79l74 14l48 3q206 0 354 -156q152 -158 152 -360q0 -210 -150 -360q-148 -145 -363 -145q-153 0 -272 76.5t-162 163.5q-35 -78 -163 -163q-60 -37 -131 -60q-66 -17 -147 -17
q-181 0 -295 88.5t-188 266.5l-14 81q0 99 68.5 167.5t162.5 68.5q31 0 65 27.5z" />
    <glyph glyph-name="uni1004" unicode="&#x1004;" horiz-adv-x="1147" 
d="M876 83.5q-122 -83.5 -275 -83.5q-212 0 -365.5 144.5t-153.5 357.5t145 365q147 157 358 157q147 0 263 -74q120 -68 189 -202l10 -38q0 -37 -40 -63q-39 -13 -74 8l-25 25q-46 95 -133 145q-83 53 -190 53q-139 0 -249 -110q-108 -108 -108 -266q0 -139 110 -249
q108 -107 263 -107q107 0 190.5 57t133.5 160l11 11q36 37 73 23q47 -13 51 -68v-26q-62 -136 -184 -219.5z" />
    <glyph glyph-name="uni1005" unicode="&#x1005;" horiz-adv-x="1185" 
d="M958 153q-144 -150 -357 -150q-212 0 -365 144q-151 145 -151 361q0 212 144.5 365t363.5 153q215 0 362 -147q151 -145 151 -360q0 -218 -148 -366zM601 149q150 0 254.5 104.5t104.5 265.5q0 149 -107 254q-108 107 -260 107q-60 0 -111 -18q-26 -4 -46 -17l-14 -9
q158 -95 158 -307q0 -210 -174 -329q67 -51 195 -51zM231 508q0 -65 22.5 -126t56.5 -97q46 31 98 105q20 40 29.5 70.5t9.5 71.5q0 70 -32.5 124.5t-94.5 93.5q-89 -90 -89 -242z" />
    <glyph glyph-name="uni1006" unicode="&#x1006;" horiz-adv-x="2033" 
d="M1682 770q-107 108 -260 108q-147 0 -254 -113q-108 -110 -108 -260t105 -254.5t265 -104.5q150 0 254.5 104.5t104.5 265.5q0 149 -107 254zM686.5 260.5q-36.5 41.5 -82 73t-98 49t-104.5 17.5q-62 0 -103.5 -15.5t-73.5 -48.5q30 -68 120 -136q94 -57 194 -57
q120 0 196 52q-12 24 -48.5 65.5zM822.5 79.5q-130.5 -79.5 -283.5 -79.5t-274 75.5t-186 226.5l3 54q0 25 32 63q51 48 128 77q72 26 155 26q139 0 265 -78t169 -166q16 15 48.5 84t32.5 138q0 150 -106 263q-102 112 -251 112q-97 0 -181 -50t-143 -149l-21 -20
q-37 -25 -77 -12t-40 64l4 35l9 9q63 124 184 196.5t265 72.5q148 0 270 -82q114 -74 158 -162q36 79 161 163t278 84q215 0 363 -148q150 -145 150 -360q0 -218 -147 -366q-145 -150 -358 -150q-152 0 -278.5 75.5t-164.5 162.5q-34 -79 -164.5 -158.5z" />
    <glyph glyph-name="uni1007" unicode="&#x1007;" horiz-adv-x="1259" 
d="M834 738l-38 -7q-77 -25 -77 -108l8 -39q25 -76 107 -76l39 7q76 26 76 108l-7 39q-25 76 -108 76zM1082 769q91 0 159.5 -65.5t68.5 -174.5l-9 -39q-12 -34 -57 -39q-31 0 -63 27l-17 49q0 37 -24 63.5t-50 31.5l5 1q6 -57 -40.5 -131t-139.5 -104l-47 -15h-36
q-70 0 -136 43.5t-94 109.5l-18 64v36q0 70 45 136t125 97l-14 -4q38 -25 12 -13.5t-55.5 20t-57 13.5t-46.5 5q-147 0 -254 -112q-108 -110 -108 -260t104.5 -254.5t265.5 -104.5q85 0 143 28.5t117 87.5q35 31 78 31q50 0 65 -53q0 -44 -46 -90q-68 -68 -164 -109
t-193 -41q-212 0 -365 144q-151 145 -151 361q0 212 144.5 365t363.5 153q139 0 265 -76t187 -187z" />
    <glyph glyph-name="uni1008" unicode="&#x1008;" horiz-adv-x="1540" 
d="M231 508q0 -65 22.5 -126t56.5 -97q46 31 98 105q20 40 29.5 70.5t9.5 71.5q0 70 -32.5 124.5t-94.5 93.5q-89 -90 -89 -242zM601 149q150 0 254.5 104.5t104.5 265.5q0 149 -107 254q-108 107 -260 107q-60 0 -111 -18q-26 -4 -46 -17l-14 -9q158 -95 158 -307
q0 -210 -174 -329q67 -51 195 -51zM831 58q-108 -55 -230 -55q-212 0 -365 144q-151 145 -151 361q0 212 144.5 365t363.5 153q215 0 362 -147q151 -145 151 -360q0 -187 -120 -336v-683l294 -181v1629q25 65 81 65q64 0 77 -68v-1674q-27 -75 -40 -89l-19 -8
q-40 -25 -83 -25l-40 3l-175 106l-158 96q-90 53 -99 146l7 208v350z" />
    <glyph glyph-name="uni1009" unicode="&#x1009;" horiz-adv-x="1144" 
d="M895 -708q65 0 111 53q10 11 21 35l9 46v101l3 29q0 45 70 45q39 0 65 -39l11 -32v-107q0 -36 -16.5 -91t-53.5 -89q-90 -99 -220 -99h-550q-72 0 -126 19.5t-94 68.5q-25 34 -38 73l-8 77v946q0 43 58 74l55 -11l26 -26q37 -92 129 -160q87 -56 194 -56q160 0 265 104
q108 105 108 252q0 150 -106 263q-102 112 -251 112q-97 0 -181 -50t-144 -149l-20 -20q-37 -25 -77 -11.5t-40 63.5l4 35l9 10q63 123 184 195.5t265 72.5q205 0 353 -156q150 -158 150 -365q0 -205 -154 -352q-155 -150 -365 -150q-97 0 -193 42.5t-121 66.5v-679l-2 -60
l2 -32q0 -6 10.5 -16t42.5 -23l67 -10h548z" />
    <glyph glyph-name="uni100A" unicode="&#x100a;" horiz-adv-x="2062" 
d="M143 235q-21 31 -21 71q0 73 68 73q28 0 60 -36q44 -90 134 -147q87 -50 195 -50q150 0 254.5 104.5t104.5 265.5q0 149 -107 254q-108 108 -260 108q-94 0 -173 -47.5t-136 -131.5q-21 -55 -77 -55q-66 0 -71 74l13 43q72 121 185.5 192t258.5 71q187 0 331 -119
q182 -148 182 -400q0 -150 105 -254.5t265 -104.5q150 0 254.5 104.5t104.5 265.5q0 149 -107 254q-107 108 -260 108q-65 0 -118 -20q-41 -12 -73 6q-21 21 -32 59q0 34 47 65q88 36 176 36q215 0 363 -148q150 -145 150 -360q0 -218 -147 -366q-145 -150 -358 -150
q-152 0 -278.5 76.5t-164.5 161.5q-35 -76 -161 -157t-271 -81q-181 0 -284 77v-620l8 -86q5 -26 33 -47q41 -34 86 -34l27 2h1166q50 0 96 13q64 11 82 43t18 102v112l10 30q18 41 68 41q28 0 63 -38l7 -34v-111q0 -74 -17 -128q-12 -59 -58 -95.5t-125 -63.5l-70 -14
l-73 -5l-1156 2l-48 -5q-81 0 -169 71q-48 38 -78 102q-19 54 -19 142v773z" />
    <glyph glyph-name="uni100B" unicode="&#x100b;" horiz-adv-x="1127" 
d="M866 98q-120 -77 -276 -77q-198 0 -344 145q-142 149 -142 347q0 200 138 339q140 141 348 141q111 0 224 -55q96 -51 154 -116l24 -28l14 -20l1 -4l5 -8q0 -1 -5 -1q11 -17 11 -38q0 -30 -25 -53.5t-56 -23.5q-44 0 -64 46q-3 1 0 5l-19 23q-101 123 -264 123
q-146 0 -243 -97q-95 -96 -95 -233q0 -138 102 -240q102 -100 236 -100q167 0 264 112q21 28 56 28h29q76 0 76 -75v-258q0 -41 -30 -63q-67 -47 -110.5 -76t-73.5 -43q-95 -49 -212 -43q-170 2 -283 65v-95q132 -77 288 -79q175 -5 238 47l59 49q31 24 61 24q63 0 63 -84
v-372h137q78 0 78 -79q0 -72 -78 -72h-213q-73 0 -73 77v305q-122 -47 -274 -42q-218 2 -404 119q-32 21 -32 64v298q0 83 65 83q31 0 64 -34q116 -124 305 -126q121 -6 244 90l32 26v79z" />
    <glyph glyph-name="uni100C" unicode="&#x100c;" horiz-adv-x="1162" 
d="M367 -708h430q38 0 60.5 8t45.5 27q7 10 14 50l-3 56v671q-3 -5 -114 -61q-103 -40 -199 -40q-212 0 -365.5 144.5t-153.5 357.5q0 212 145 365q147 156 358 156q147 0 263 -73q120 -68 189 -202l10 -39q0 -36 -40 -63q-39 -13 -74 9l-25 24q-46 96 -133 146
q-83 52 -190 52q-139 0 -249 -110q-108 -107 -108 -265q0 -139 110 -249q108 -107 263 -107q107 0 190.5 57t133.5 159l11 12q36 36 73 23q51 -13 51 -72l3 -894v-52l-8 -76q0 -36 -42 -78q-30 -40 -98 -64q-31 -9 -57 -14.5t-61 -5.5h-430q-130 0 -221 99q-23 24 -50 110
l-11 68q0 113 74 187q78 60 181 60q96 0 153 -20q73 -17 127 -71l12 -20l10 -42q0 -33 -22 -55q-29 -14 -79 -4l-23 12q-59 52 -178 52q-46 0 -79 -30q-30 -36 -30 -87l8 -33l18 -27q45 -51 110 -51z" />
    <glyph glyph-name="uni100D" unicode="&#x100d;" horiz-adv-x="1147" 
d="M786 -204q-92 -46 -263 -59q-213 2 -307 65l-67 39q-46 33 -46 69v324q0 76 73 76h30q37 0 59 -28q98 -114 269 -114q141 0 242 101q107 104 107 246q0 139 -105 238q-99 99 -244 99q-170 0 -269 -126l-20 -23q2 -5 0 -6q-25 -46 -67 -46q-31 0 -57 23.5t-26 55.5
q0 21 12 38q-2 0 -4 1l4 8l2 5q4 7 38 48q59 66 157 119q118 56 230 56q213 0 355 -144q144 -141 144 -346t-147 -354q-154 -148 -352 -148q-175 0 -282 93v-155q109 -76 265 -70q74 4 160 33q37 12 77 26t79 27q12 2 19.5 4t18.5 2q65 0 65 -77v-604l132 6q77 0 77 -77
q0 -78 -77 -78h-197q-85 0 -85 78v575z" />
    <glyph glyph-name="uni100E" unicode="&#x100e;" horiz-adv-x="1214" 
d="M1099 519q0 -209 -151 -364q-151 -152 -365 -152q-158 0 -298 107q-140 108 -176 249v13.5t-2 20.5q-12 72 7 124q23 66 50 84q30 34 97 60q126 55 134 117q0 31 -52 64q-23 11 -55 3q-34 -12 -34 -34q0 -78 -76 -78t-76 78q0 39 17.5 74.5t50 59t71.5 37.5t82 14
q88 0 158 -69q67 -69 65 -155q-6 -118 -118 -198q-15 -10 -41.5 -21.5t-66.5 -29.5q-28 -9 -40 -25t-27 -56q-4 -9 -1.5 -21.5t1.5 -29.5q25 -91 121 -164q104 -68 209 -68q151 0 255 106q105 107 105 254q0 230 -178 339q-34 28 -34 65q0 30 21.5 54t53.5 24q13 0 40 -11
q57 -37 103.5 -88.5t80.5 -112t51.5 -129.5t17.5 -141z" />
    <glyph glyph-name="uni100F" unicode="&#x100f;" horiz-adv-x="2280" 
d="M1055 322q-15 -44 -15 -96q0 -35 32.5 -59t71.5 -24q31 0 63.5 26.5t32.5 61.5q0 57 -34 151l-20 99q0 68 27 159.5t27 138.5q0 43 -34 71t-78 28q-41 0 -70 -26t-29 -78q0 -21 39 -166q23 -94 23 -135q0 -39 -36 -151zM1361 900q69 57 133 83q43 25 91 33t103 8
q210 0 360 -147q150 -151 150 -361q0 -207 -153 -363q-150 -153 -352 -153l-104 8q-54 25 -54 77l21 57l63 11l77 -8q147 0 251 112q106 117 106 259q0 150 -109 254q-109 107 -256 107q-93 0 -174 -44q-60 -33 -132 -131l-39 -134l-10 -85q0 -43 35 -139q6 -30 11 -56
t11 -56q0 -95 -77 -164q-79 -68 -163 -68q-99 0 -179.5 61.5t-80.5 165.5q0 65 38 163l17 85q0 41 -38 150l-14 55l-8 49q-49 66 -127 107t-168 41q-145 0 -254 -112q-107 -110 -107 -260t105.5 -255t263.5 -105l66 5q30 0 54.5 -22t24.5 -54q0 -39 -49 -66l-93 -8
q-213 0 -366 145q-153 144 -153 360q0 213 144.5 366t363.5 153q205 0 325 -112q11 30 76 74q28 13 63.5 25.5t67.5 12.5q85 0 155 -38q52 -29 84 -86z" />
    <glyph glyph-name="uni1010" unicode="&#x1010;" horiz-adv-x="2062" 
d="M850 770q-108 108 -260 108q-147 0 -254 -113q-108 -110 -108 -260t105 -254.5t265 -104.5q150 0 254.5 104.5t104.5 265.5q0 149 -107 254zM233 144q-151 145 -151 361q0 212 145 365.5t363 153.5q153 0 278 -78.5t162 -162.5q35 76 158.5 158.5t276.5 82.5
q215 0 363 -148q150 -145 150 -360q0 -218 -147 -366q-145 -150 -359 -150l-55 6l-53 5q-68 0 -68 75q0 83 84 70l95 -10q148 0 252.5 104.5t104.5 265.5q0 149 -107 254q-107 108 -260 108q-147 0 -254 -113q-108 -110 -108 -260q0 -227 -173 -380q-150 -125 -332 -125
q-212 0 -365 144z" />
    <glyph glyph-name="uni1011" unicode="&#x1011;" horiz-adv-x="2062" 
d="M850 770q-108 108 -260 108q-147 0 -254 -113q-108 -110 -108 -260t105 -254.5t265 -104.5q150 0 254.5 104.5t104.5 265.5q0 149 -107 254zM1725 770q-107 108 -260 108q-147 0 -254 -113q-108 -110 -108 -260t105 -254.5t265 -104.5q150 0 254.5 104.5t104.5 265.5
q0 149 -107 254zM1188.5 941.5q123.5 82.5 276.5 82.5q215 0 363 -148q150 -145 150 -360q0 -218 -147 -366q-145 -150 -358 -150q-152 0 -278.5 76.5t-164.5 161.5q-35 -76 -161 -157t-271 -81q-212 0 -365 144q-151 145 -151 361q0 212 145 365.5t363 153.5
q153 0 278 -78.5t162 -162.5q35 76 158.5 158.5z" />
    <glyph glyph-name="uni1012" unicode="&#x1012;" horiz-adv-x="1188" 
d="M955 71q-119 -68 -343 -68q-126 0 -205.5 12.5t-147.5 43.5q-115 59 -169 192l19 37l42 42q46 -6 60 -19l24 -17q23 -77 107 -112q97 -33 270 -33q167 0 245 39q100 52 100 156q0 57 -75 87l-121 34q-23 4 -40 21q-24 24 -24 62q0 44 46 59l27 3q90 10 133 39
q49 32 49 108q0 41 -99 83q-107 46 -247 46q-164 0 -264 -35t-100 -110q0 -22 25 -54l54 -57l4 -44l-11 -39q-20 -20 -55 -24h-33q-45 36 -83 90q-50 77 -50 128q0 157 166 234q126 59 347 59q213 0 347 -64q148 -63 148 -213q0 -94 -38 -151.5t-57 -66.5q14 -6 56 -60
q44 -53 44 -135q0 -185 -151 -273z" />
    <glyph glyph-name="uni1013" unicode="&#x1013;" horiz-adv-x="1185" 
d="M925 321q36 76 36 171q0 150 -106 253q-110 107 -262 107q-145 0 -254 -112q-107 -109 -107 -259q0 -81 31 -149q148 143 324 143q47 0 96 -11t136 -53q53 -26 106 -90zM958 126q-144 -151 -357 -151q-211 0 -363 145q-153 145 -153 361q0 213 144.5 365.5t363.5 152.5
q215 0 363 -147q150 -145 150 -360q0 -219 -148 -366zM733 302q-53 18 -82 21q-31 6 -58 6q-141 0 -251 -104q61 -51 121.5 -73.5t131.5 -22.5q65 0 126 21q56 24 117 74q-52 60 -105 78z" />
    <glyph glyph-name="uni1014" unicode="&#x1014;" horiz-adv-x="1194" 
d="M557 226q0 52 -58.5 102t-156.5 72l-13 3h-11q-42 0 -67.5 -25.5t-25.5 -84.5q0 -75 116 -122q102 -33 216 -33v88zM253 51q-174 80 -174 237q0 123 64 193t169 70l56 -5q146 -26 240 -121q97 -94 97 -199v-85q109 0 187 40q78 33 78 101q0 72 -29 111t-115 82l-269 96
q-69 34 -110.5 58.5t-61.5 38.5q-75 57 -75 143q0 90 92 152q90 61 190 61q125 0 197 -38q83 -34 130 -91l10 -12q12 -21 12 -45q0 -30 -23 -53l-39 -15q-29 0 -54 15l-21 14q-23 30 -76 53t-136 23q-48 0 -91 -18t-43 -46q0 -26 37 -51l120 -52l270 -97q120 -69 175.5 -142
t55.5 -192q0 -126 -137 -206q-127 -76 -274 -76v-772l-3 -30q-15 -49 -72 -49q-50 0 -67 54l-6 23v771q-169 0 -304 59z" />
    <glyph glyph-name="uni1015" unicode="&#x1015;" horiz-adv-x="1201" 
d="M957 151q-137 -151 -356 -151q-107 0 -194 34t-166 108q-76 73 -117.5 158.5t-41.5 204.5q0 162 62 284q20 36 29 49.5t29 36.5l97 100l43 11q26 0 62 -26l17 -49l-26 -51l-73 -76q-26 -26 -43 -62q-48 -100 -48 -217q0 -125 64.5 -207t159.5 -125q67 -24 146 -24
q139 0 249 104.5t110 246.5q0 130 -55 230l-46 66l-57 55l-21 21q-26 38 -12 71q13 26 46 40h54l84 -80q34 -34 74 -94q82 -141 82 -309q0 -103 -40 -185.5t-112 -163.5z" />
    <glyph glyph-name="uni1016" unicode="&#x1016;" horiz-adv-x="1185" 
d="M698.5 502.5q-103.5 112.5 -103.5 252.5q0 161 140 240q8 13 60 21h22q125 -72 210 -207q15 -27 29 -63t28 -84q8 -42 13.5 -79.5t5.5 -82.5q0 -196 -144 -349q-65 -68 -159 -114q-92 -37 -199 -37q-47 0 -94 4.5t-107 26.5q-133 52 -225.5 176.5t-92.5 297.5
q0 160 62 281t195 222l41 10q26 0 60 -25l12 -25l5 -24l-12 -40l-17 -17q-101 -75 -149 -166q-48 -99 -48 -216q0 -88 28.5 -146t83.5 -113q24 -19 52.5 -37t63.5 -36q64 -24 142 -24q119 0 214 72t118 156q-131 13 -234.5 125.5zM717 755q0 -43 18 -86.5t53.5 -80.5t85 -63
t81.5 -30l5 44q0 51 -12 96q-13 47 -46 103q-58 93 -146 142l8 -8q-47 -32 -47 -117z" />
    <glyph glyph-name="uni1017" unicode="&#x1017;" horiz-adv-x="1185" 
d="M492 840q36 -34 87 -34q45 0 88 34t50 85q-12 11 4 48q13 26 46 40h49q135 -63 211 -205.5t76 -310.5q0 -207 -142 -355q-142 -142 -360 -142q-236 0 -377.5 131t-141.5 371q0 160 62 281t195 222l41 11q26 0 61 -27l15 -45q0 -70 36 -104zM741.5 732.5
q-71.5 -58.5 -156.5 -58.5q-79 0 -145.5 45.5t-82.5 105.5q-35 -29 -86 -128q-40 -90 -40 -195q0 -165 98 -264q107 -92 272 -92q142 0 249 102q105 100 105 249q0 125 -44 217q-39 90 -88 124q-10 -47 -81.5 -105.5z" />
    <glyph glyph-name="uni1018" unicode="&#x1018;" horiz-adv-x="1993" 
d="M1361 148l48 -2q149 0 253.5 104.5t104.5 265.5q0 149 -107 254q-108 108 -260 108q-147 0 -254 -113q-108 -110 -108 -260q0 -227 -176 -378q-153 -127 -329 -127q-130 0 -249 60q-117 65 -189 178l-16 51q0 80 70 80q32 0 69 -48q40 -76 127 -128q93 -47 188 -47
q150 0 254.5 104.5t104.5 265.5q0 149 -107 254q-108 108 -260 108q-97 0 -172 -45t-135 -133q-19 -31 -66 -42q-73 0 -73 75q0 27 17 54q54 98 174 166q121 71 255 71q153 0 278 -78.5t162 -162.5q35 76 158.5 158.5t276.5 82.5q215 0 363 -148q150 -145 150 -360
q0 -218 -147 -366q-145 -150 -359 -150l-59 3q-39 0 -87.5 17.5t-48.5 71.5q0 27 26 53q26 18 72 14z" />
    <glyph glyph-name="uni1019" unicode="&#x1019;" horiz-adv-x="1198" 
d="M945 405q15 50 15 95q0 130 -55 230l-45 65q-18 25 -48 43l-23 23q-26 39 -12 72q13 25 46 40h51q31 -19 51 -38t41 -42l60 -83q83 -133 83 -310q0 -97 -40 -186.5t-109.5 -159t-161.5 -112t-197 -42.5q-113 0 -201 34q-77 34 -161 107q-74 71 -115.5 158t-41.5 206
q0 162 62 284q12 23 27.5 45.5t36.5 46.5l84 81l42 11q26 0 60 -26l13 -25l4 -24l-12 -40l-16 -16l-64 -59l-41 -63q-47 -98 -47 -215q0 -97 27 -146q-1 -2 6.5 9t33.5 34q58 50 134 74t150 24q210 0 347 -146q1 1 16 51zM745 178.5q72 29.5 109 77.5q-30 43 -107.5 82.5
t-161.5 39.5q-82 0 -154 -37t-101 -80l40 -42q20 -18 63 -35l82 -28l87 -7q71 0 143 29.5z" />
    <glyph glyph-name="uni101A" unicode="&#x101a;" horiz-adv-x="2076" 
d="M1828 137q-148 -145 -363 -145q-153 0 -272 76.5t-162 163.5q-35 -78 -163 -163q-29 -18 -60 -30.5t-66 -24.5q-80 -14 -152 -14q-207 0 -355 148q-73 73 -116 166q-37 92 -37 194q0 91 17 168t69 146q93 127 231 187l33 7q65 0 65 -76q0 -38 -39 -66l-94 -59
q-58 -43 -97 -127t-39 -180q0 -80 27.5 -138.5t83.5 -119.5q99 -104 251 -104h51t33 2.5t29 7.5t39 12q48 20 109 73q106 106 106 256q0 61 -16.5 120.5t-45.5 110t-69.5 87.5t-91.5 56q-41 13 -53 72q0 85 84 72q117 -35 223 -166q115 -158 115 -341q0 -151 105 -263
q105 -110 257 -110q145 0 255 105q112 105 112 257q0 145 -105 257.5t-253 112.5l-49 -3l-41 -7q-22 -9 -50 4.5t-41 55.5q0 54 57 79l74 14l48 3q206 0 354 -156q152 -158 152 -360q0 -210 -150 -360z" />
    <glyph glyph-name="uni101B" unicode="&#x101b;" horiz-adv-x="1198" 
d="M602 3q-219 0 -367 144q-150 151 -150 361q0 212 144.5 365t363.5 153q198 0 356 -144q157 -139 157 -350l3 -1162q0 -21 25.5 -46.5t64.5 -25.5h66l32 -17q20 -23 32 -51q0 -47 -37 -70l-29 -11h-64q-91 0 -157 61q-64 54 -82 149v1160q0 149 -107 254
q-108 107 -260 107q-147 0 -254 -112q-108 -110 -108 -260l2 -63l7 -25l5 -11l52 26l87 12q134 0 241 -108q110 -110 110 -244l-11 -86zM406 204q95 -58 191 -58l11 1q-4 42 -71.5 110t-151.5 68l-58 -7l-29 -17q30 -50 108 -97z" />
    <glyph glyph-name="uni101C" unicode="&#x101c;" horiz-adv-x="2062" 
d="M1216 254q110 -108 257 -108q150 0 254.5 104.5t104.5 265.5q0 149 -107 254q-107 108 -258 108l-46 -6q-19 0 -31 -4q-43 -11 -71.5 8.5t-28.5 58.5q0 45 47 71l71 15l56 3q216 0 364 -148q150 -145 150 -360q0 -218 -147 -366q-145 -150 -358 -150q-181 0 -331 124
q-179 145 -179 370q0 161 -111 271q-110 113 -262 113q-147 0 -254 -113q-108 -110 -108 -260t105 -254.5t265 -104.5q47 0 79 10q32 8 58 -5.5t38 -60.5q0 -63 -74 -79l-99 -11q-214 0 -367 144q-151 145 -151 361q0 212 145 365.5t363 153.5q179 0 331 -119
q182 -148 182 -400q0 -144 113 -251z" />
    <glyph glyph-name="uni101D" unicode="&#x101d;" horiz-adv-x="1185" 
d="M958 153q-144 -150 -357 -150q-212 0 -365 144q-151 145 -151 361q0 212 144.5 365t363.5 153q215 0 362 -147q151 -145 151 -360q0 -218 -148 -366zM853 773q-108 107 -260 107q-147 0 -254 -112q-108 -110 -108 -260t104.5 -254.5t265.5 -104.5q150 0 254.5 104.5
t104.5 265.5q0 149 -107 254z" />
    <glyph glyph-name="uni101E" unicode="&#x101e;" horiz-adv-x="2071" 
d="M163 235q-21 31 -21 71q0 73 68 73q28 0 60 -36q44 -90 134 -147q87 -50 195 -50q150 0 254.5 104.5t104.5 265.5q0 149 -107 254q-108 108 -260 108q-94 0 -173 -47.5t-136 -131.5q-21 -55 -77 -55q-66 0 -71 74l13 43q72 121 185.5 192t258.5 71q187 0 331 -119
q182 -148 182 -400q0 -150 105 -254.5t265 -104.5q150 0 254.5 104.5t104.5 265.5q0 149 -107 254q-107 108 -260 108q-65 0 -118 -20q-41 -12 -73 6q-21 21 -32 59q0 34 47 65q88 36 176 36q215 0 363 -148q150 -145 150 -360q0 -218 -147 -366q-145 -150 -358 -150
q-152 0 -278.5 76.5t-164.5 161.5q-35 -76 -161 -157t-271 -81q-181 0 -330 112l-97 108z" />
    <glyph glyph-name="uni101F" unicode="&#x101f;" horiz-adv-x="2067" 
d="M1092.5 854q48.5 51 109 89t128.5 59.5t142 21.5q211 0 358 -156q153 -159 153 -374q0 -205 -157 -352q-158 -145 -370 -145q-100 0 -156 27l-29 11q-41 29 -41 67q0 26 12 47.5t59 26.5l42 -7l22 -9q40 -17 91 -17q153 0 264 101q114 99 114 250t-107.5 266t-254.5 115
q-150 0 -257 -107.5t-107 -257.5q0 -212 -139.5 -359.5t-363.5 -147.5q-236 0 -377 132.5t-141 372.5q0 159 62 280.5t194 222.5l41 10q26 0 60 -25l13 -26l4 -23l-12 -40l-17 -17q-101 -76 -149 -166q-48 -99 -48 -216q0 -166 99 -265q107 -92 271 -92q142 0 250 103
q104 99 104 248q0 85 -10 124q-8 55 -40 108q-45 97 -148 149l-24 23q-26 39 -12 72q13 26 46 40h50q168 -80 222 -218q1 3 49.5 54z" />
    <glyph glyph-name="uni1020" unicode="&#x1020;" horiz-adv-x="1211" 
d="M313 -505q0 -109 38 -146.5t147 -47.5h423q49 10 33 81q-1 8 -16 0l-7 -2q-43 -23 -58 -23q-71 0 -71 78q0 47 42 73t94 26q146 0 170 -123q2 -11 4 -25t2 -24q0 -88 -55 -148.5t-138 -60.5h-423q-179 0 -260.5 84.5t-81.5 257.5v471q0 86 67 86q31 0 66 -32
q137 -131 321 -135q182 -5 311 94l43 27v116q-147 -134 -354 -134q-208 0 -358 151q-149 154 -149 361q0 209 145 353q144 147 362 147q113 0 233 -57q101 -54 161 -121l25 -30l14 -20l2 -4l5 -9q0 -1 -5 -1q9 -17 9 -39q0 -32 -25 -56t-59 -24q-47 0 -66 47q-4 1 0 6
l-21 23q-106 128 -273 128q-150 0 -254 -100q-98 -101 -98 -243q0 -144 104 -250q108 -104 248 -104q184 0 265 115q25 28 70 30h87q78 0 78 -77v-248q0 -43 -31 -66l-64 -47q-182 -130 -407 -121q-178 2 -295 72v-309z" />
    <glyph glyph-name="uni1021" unicode="&#x1021;" horiz-adv-x="2081" 
d="M1833 423l10 84q0 156 -107 264q-105 109 -260 109q-133 0 -245 -81q-82 -53 -152 -161q-27 -77 -72 -100q13 -5 55 -59q44 -53 44 -135q0 -185 -151 -273q-119 -68 -343 -68q-126 0 -205.5 12.5t-147.5 43.5q-115 59 -169 192l19 37l42 42q46 -6 60 -19l24 -17
q23 -77 107 -112q97 -33 270 -33q167 0 245 39q100 52 100 156q0 57 -75 87l-121 34q-23 4 -40 21q-24 24 -24 62q0 44 46 59l27 3q90 10 133 39q49 32 49 108q0 41 -99 83q-107 46 -247 46q-164 0 -264 -35t-100 -110q0 -22 25 -54l54 -57l4 -44l-11 -39q-20 -20 -55 -24
h-33q-45 36 -83 90q-50 77 -50 128q0 157 166 234q126 59 347 59q86 0 166 -12.5t145.5 -38t112 -67.5t48.5 -50q43 48 147 101q62 28 123.5 45t127.5 17q210 0 363 -156q153 -153 153 -368q0 -216 -156 -363q-159 -150 -372 -150l-78 8q-35 0 -48 4l-67 25l11 38l-3 15v20
q0 138 99.5 237t236.5 99q64 0 115 -18.5t86 -41.5zM1466 138q172 0 271 114q-42 33 -119 33q-73 0 -123 -46t-60 -98z" />
    <glyph glyph-name="uni1022" unicode="&#x1022;" horiz-adv-x="2149" 
d="M1150 627q9 -68 9 -142q0 -75 -18.5 -146.5t-50 -135t-81.5 -117t-111 -91.5q-28 -12 -42 -12q-35 0 -58 25t-23 56q0 39 37 68q190 113 200 353q0 155 -112 266q-111 120 -283 120q-112 0 -223 -81q-103 -75 -130 -171q2 -17 -1 -30.5t1 -22.5q16 -42 29 -58.5t43 -25.5
q43 -19 71 -31t45 -23q119 -83 126 -206q2 -90 -70 -162q-75 -72 -169 -72q-46 0 -87.5 14.5t-76.5 39.5t-53.5 61.5t-18.5 77.5q0 81 81 81q82 0 82 -81q0 -22 36 -35q34 -9 59 3q55 34 55 66q-8 66 -143 123q-72 26 -104 63q-29 18 -53 86q-21 55 -8 130q2 14 2 21.5v13.5
q39 148 189 261q149 111 318 111q229 0 390 -159q38 -37 67 -78q51 69 126 126q150 113 334 113q215 0 362 -147q153 -145 153 -360q0 -218 -147 -366q-145 -150 -358 -150q-101 0 -176 27q-63 12 -63 70q0 26 22 52t69 26q81 -29 148 -29q150 0 255 104.5t105 265.5
q0 149 -108 254q-107 107 -260 107q-136 0 -242 -76q-93 -68 -144 -177z" />
    <glyph glyph-name="uni1023" unicode="&#x1023;" horiz-adv-x="2181" 
d="M2063 510q0 -341 -257 -498q-27 -13 -41 -13q-34 0 -57.5 26.5t-23.5 54.5q0 44 35 67q177 111 177 363q0 159 -106 271q-104 116 -263 116q-138 0 -248 -100q-102 -104 -116 -246q2 -22 2 -61.5v-102.5q0 -22 -13 -62q-8 -71 -75 -71q-39 0 -66.5 28.5t-17.5 73.5
q6 34 6 45v29.5t-2 55.5q-4 13 -4 24q0 12 1 22.5t3 21.5q-14 152 -120 252q-104 107 -252 107q-149 0 -259 -116q-108 -118 -108 -273q0 -49 14 -99.5t39 -100t61 -91t81 -71.5q37 -25 37 -64q0 -37 -24 -61.5t-58 -24.5q-18 0 -47 10q-125 87 -197 227q-72 138 -72 275
q0 229 155 389q155 162 378 162q306 -4 457 -262q164 247 445 247q228 0 383 -163q153 -162 153 -387zM1743 -497v49q0 108 -84 182q-91 76 -205 76q-96 0 -202 -74q-82 -81 -82 -184q0 -141 -82 -252q-60 -83 -167 -132l-35 -7l-38 10q-39 24 -39 61q0 40 44 54
q52 17 120 105l36 80l11 81q0 108 -83.5 183t-203.5 75q-98 0 -202 -74q-85 -81 -85 -184q0 -60 47 -155q35 -54 125 -108q38 -17 38 -57q0 -30 -23 -52t-75 -15q-117 47 -191 161q-66 112 -66 226q0 155 123 273q120 115 309 115q120 0 229 -51q88 -52 129 -114
q16 33 136 111l109 42l79 12h39q180 0 308 -108q126 -108 126 -280q0 -8 -1 -108h-7v-84l3 -55q1 -15 20 -31q27 -33 76 -33h111l42 -9q30 -16 35 -60q0 -30 -27 -62l-49 -17h-118q-53 0 -97 17q-39 9 -83 58q-32 34 -51 91l-10 104v140h11z" />
    <glyph glyph-name="uni1024" unicode="&#x1024;" horiz-adv-x="2499" 
d="M2308 749v-1505q0 -90 -64 -103q-81 0 -81 94v1502q-16 129 -59.5 196.5t-120.5 67.5q-177 0 -309 129q-132 131 -132 315q0 185 127 311q128 129 314 129q137 0 250 -77t173 -215l10 -35q0 -76 -79 -76q-52 0 -66 46q-12 44 -39 82t-66.5 66.5t-86.5 44.5t-96 16
q-123 0 -209 -86q-83 -84 -83 -206q0 -121 81 -210q81 -85 211 -85q37 0 70 -12q210 -61 255 -389zM1723 780q-105 98 -258 98q-147 0 -254 -113q-108 -110 -108 -260q0 -194 -113 -341q-91 -126 -224 -163q-85 -18 -85 67q0 57 53 74q93 34 160 141q63 111 63 233
q0 149 -107 254q-108 108 -260 108q-147 0 -254 -113q-108 -110 -108 -260q0 -121 59 -220t165 -144q40 -13 45 -67q0 -75 -94 -71q-139 44 -233 190q-88 146 -88 312q0 212 145 365.5t363 153.5q153 0 278 -78.5t162 -162.5q35 76 158.5 158.5t276.5 82.5q215 0 363 -148
q150 -145 150 -360l6 -1028q0 -134 -117 -233q-118 -103 -262 -103h-1216q-59 0 -113 20.5t-97 57t-70 87.5t-27 112q0 151 144 248q157 107 439 107q165 0 303 -73q115 -59 190 -153l4 -28q0 -42 -21 -54.5t-42 -20.5l-44 4q-66 68 -168 122q-59 26 -120.5 41.5
t-122.5 15.5q-212 0 -324 -74q-89 -56 -89 -135q0 -49 49 -89t109 -40h1216q87 0 159 58q66 56 66 135v1058q0 133 -107 229z" />
    <glyph glyph-name="uni1025" unicode="&#x1025;" horiz-adv-x="1178" 
d="M898 -657l18 27l8 33q0 51 -30 87q-33 30 -79 30q-119 0 -178 -52l-23 -12q-50 -10 -79 4q-22 22 -22 55l10 42l12 20q54 54 127 71q57 20 153 20q103 0 181 -60q74 -74 74 -187l-11 -68q-27 -86 -50 -110q-91 -99 -221 -99h-430q-35 0 -61 5.5t-57 14.5q-68 24 -98 64
q-42 42 -42 78l-8 76v52l3 894q0 59 51 72q37 13 73 -23l11 -12q50 -102 133.5 -159t190.5 -57q155 0 263 107q110 110 110 249q0 158 -108 265q-110 110 -249 110q-107 0 -190 -52q-87 -50 -133 -146l-25 -24q-35 -22 -74 -9q-40 27 -40 63l10 39q69 134 189 202
q116 73 263 73q211 0 358 -156q145 -153 145 -365q0 -213 -153.5 -357.5t-365.5 -144.5q-96 0 -199 40q-111 56 -114 61v-671l-3 -56q7 -40 14 -50q23 -19 45.5 -27t60.5 -8h430q65 0 110 51z" />
    <glyph glyph-name="uni1026" unicode="&#x1026;" horiz-adv-x="1199" 
d="M880 1165q-132 -132 -315 -132q-175 0 -306 129q-134 134 -134 315q0 174 128 308q123 132 312 132q183 0 315 -126q129 -126 129 -314q0 -181 -129 -312zM860 1477q0 120 -86 206t-209 86q-120 0 -206 -87q-86 -80 -86 -205q0 -67 7 -82q22 33 107.5 75t181.5 42l87 -8
q24 -7 46 -14t42 -19q78 -37 107 -76q9 22 9 82zM565 1182q74 0 129 28t92 70q-22 48 -83 80.5t-135 32.5t-134 -32.5t-84 -84.5q71 -94 215 -94zM908 -657l18 27l8 33q0 51 -30 87q-33 30 -79 30q-119 0 -178 -52l-23 -12q-50 -10 -79 4q-22 22 -22 55l10 42l12 20
q54 54 127 71q57 20 153 20q103 0 181 -60q74 -74 74 -187l-11 -68q-27 -86 -50 -110q-91 -99 -221 -99h-430q-35 0 -61 5.5t-57 14.5q-68 24 -98 64q-42 42 -42 78l-8 76v52l3 894q0 59 51 72q37 13 73 -23l11 -12q50 -102 133.5 -159t190.5 -57q155 0 263 107
q110 110 110 249q0 158 -108 265q-110 110 -249 110q-107 0 -190 -52q-87 -50 -133 -146l-25 -24q-35 -22 -74 -9q-40 27 -40 63l10 39q69 134 189 202q116 73 263 73q211 0 358 -156q145 -153 145 -365q0 -213 -153.5 -357.5t-365.5 -144.5q-96 0 -199 40q-111 56 -114 61
v-671l-3 -56q7 -40 14 -50q23 -19 45.5 -27t60.5 -8h430q65 0 110 51z" />
    <glyph glyph-name="uni1027" unicode="&#x1027;" horiz-adv-x="1147" 
d="M782 824.5q-82 53.5 -162 53.5v-4q0 -86 55 -141.5t130 -55.5q50 0 89 30q-30 64 -112 117.5zM520 152q0 131 94 225q91 91 215 91q116 0 193 -77q22 -11 38 -52v-36q-62 -136 -184 -219.5t-275 -83.5q-212 0 -365.5 144.5t-153.5 357.5t145 365q147 157 358 157
q147 0 263 -74q120 -68 189 -202l10 -38q0 -41 -29 -57q-88 -97 -205 -97q-119 0 -219 99q-93 103 -93 212q-95 -17 -185 -124q-88 -108 -88 -241q0 -134 90 -232.5t202 -115.5v-2zM826 346q-72 0 -128 -54t-56 -140v-6q71 0 147 53.5t118 127.5q-24 19 -81 19z" />
    <glyph glyph-name="uni1028" unicode="&#x1028;" horiz-adv-x="1188" 
d="M734 147l10 9q22 -13 49 -13q45 0 78 33q32 28 32 74q0 17 -9.5 35.5t-25.5 35.5t-35 26.5t-36 9.5l-19 -2l-60 -33q-14 -13 -21 -29h-7q-3 -22 -20 -39q-20 -20 -48 -20t-47 20q-20 20 -20 48h-3q19 91 102 161l24 14l86 25q56 16 89 28.5t52 25t27 24t11 24.5l-3 23
q0 73 -103 167q-100 92 -242 92q-143 0 -258 -106q-112 -104 -112 -253l2 -865q0 -150 103 -260q105 -110 257 -110q149 0 257 108q110 105 110 254q0 76 76 76q70 0 70 -76q0 -210 -151 -360q-150 -148 -362 -148q-205 0 -358 156q-150 159 -150 363v862q0 202 153 352
q156 153 363 153q195 0 353 -133q144 -121 144 -265q0 -75 -38 -135q-37 -40 -82 -65l7 -6q70 -79 70 -178q0 -102 -73 -183q-76 -67 -183 -67q-57 0 -110 26q-16 4 -30 16l-2 2q-10 6 -19 13l5 5q-6 12 -6 26q0 26 22 45t52 19q16 0 29 -5z" />
    <glyph glyph-name="uni1029" unicode="&#x1029;" horiz-adv-x="2435" 
d="M2265 324q5 -17 1 -34v-834q0 -67 -17 -127.5t-59 -99.5q-77 -86 -189 -95l-728 1l-882 1q-124 0 -215 91q-53 59 -65.5 113.5t-12.5 115.5l-6 2158q-10 104 73 196q73 63 177 73l32 -3h1596q159 0 245 -86q42 -82 51 -182v-258q-12 -74 -74 -74q-35 4 -60 20
q-25 30 -25 56v239l-12 57l-26 42q-12 14 -36 20q-18 9 -48 9l-32 -2h-1572q-66 0 -98.5 -38.5t-32.5 -84.5v-2164q0 -46 35 -89q30 -29 51.5 -37t60.5 -8h1581q25 0 48.5 13.5t43 34.5t29.5 44.5t10 41.5v9l-2 19v647q-132 -109 -314 -109q-152 0 -278.5 76.5t-164.5 161.5
q-35 -76 -161 -157t-271 -81q-181 0 -330 112l-97 108l-9 15q-21 31 -21 71q0 73 68 73q28 0 60 -36q44 -90 134 -147q87 -50 195 -50q150 0 254.5 104.5t104.5 265.5q0 149 -107 254q-108 108 -260 108q-94 0 -173 -47.5t-136 -131.5q-21 -55 -77 -55q-66 0 -71 74l13 43
q72 121 185.5 192t258.5 71q187 0 331 -119q182 -148 182 -400q0 -150 105 -254.5t265 -104.5q150 0 254.5 104.5t104.5 265.5q0 149 -107 254q-107 108 -260 108q-65 0 -118 -20q-41 -12 -73 6q-21 21 -32 59q0 34 47 65q88 36 176 36q215 0 363 -148q150 -145 150 -360
q0 -104 -33 -192z" />
    <glyph glyph-name="uni102A" unicode="&#x102a;" horiz-adv-x="4440" 
d="M1055 362q0 -35 7 -57q-64 -140 -186 -222.5t-275 -82.5q-209 0 -365 141q-154 146 -154 359q0 212 145 365q147 156 358 156q147 0 263 -74q120 -68 189 -201l10 -39q0 -37 -40 -63q-39 -13 -74 9l-25 24q-46 96 -133 146q-83 52 -190 52q-139 0 -249 -110
q-108 -107 -108 -265q0 -78 23.5 -133.5t57.5 -89.5q43 84 173 163q133 82 264 82q154 0 278 -101q17 -17 31 -59zM601 143q104 0 192.5 58.5t121.5 133.5q-24 23 -76 45l-50 15l-53 5q-103 0 -197 -60t-134 -145q75 -52 196 -52zM3932 998q129 -32 228 -131
q153 -145 153 -360q0 -218 -147 -366q-145 -150 -358 -150q-101 0 -176 27q-63 12 -63 70q0 26 22 52t69 26q81 -29 148 -29q150 0 255 104.5t105 265.5q0 149 -108 254q-107 107 -260 107q-136 -10 -237 -86.5t-162 -198.5l-6 -10q3 -28 3 -57q0 -104 -33 -192q5 -17 1 -34
v-834q0 -67 -17 -127.5t-59 -99.5q-77 -86 -189 -95l-728 1l-882 1q-124 0 -215 91q-53 59 -65.5 113.5t-12.5 115.5l-6 2158q-10 104 73 196q73 63 177 73l32 -3h1596q159 0 245 -86q42 -82 51 -182v-258q-12 -74 -74 -74q-35 4 -60 20q-25 30 -25 56v239l-12 57l-26 42
q-12 14 -36 20q-18 9 -48 9l-32 -2h-1572q-66 0 -98.5 -38.5t-32.5 -84.5v-2164q0 -46 35 -89q30 -29 51.5 -37t60.5 -8h1581q25 0 48.5 13.5t43 34.5t29.5 44.5t10 41.5v9l-2 19v647q-132 -109 -314 -109q-152 0 -278.5 76.5t-164.5 161.5q-35 -76 -161 -157t-271 -81
q-181 0 -330 112l-97 108l-9 15q-21 31 -21 71q0 73 68 73q28 0 60 -36q44 -90 134 -147q87 -50 195 -50q150 0 254.5 104.5t104.5 265.5q0 149 -107 254q-108 108 -260 108q-94 0 -173 -47.5t-136 -131.5q-21 -55 -77 -55q-66 0 -71 74l13 43q72 121 185.5 192t258.5 71
q187 0 331 -119q182 -148 182 -400q0 -150 105 -254.5t265 -104.5q150 0 254.5 104.5t104.5 265.5q0 149 -107 254q-107 108 -260 108q-65 0 -118 -20q-41 -12 -73 6q-21 21 -32 59q0 34 47 65q88 36 176 36q215 0 363 -148q51 -50 85 -107q52 72 131 132q132 100 291 111
q-97 31 -177 110q-134 134 -134 315q0 174 128 308q123 132 312 132q138 0 250.5 -77t172.5 -215l10 -35q0 -76 -78 -76q-53 0 -67 46q-12 44 -39 82t-65 66.5t-85 44.5t-99 16q-120 0 -206 -87q-86 -80 -86 -205q0 -126 84 -210q80 -85 207 -85l75 8q34 0 59 -17
q29 -15 29 -59q0 -49 -59 -70z" />
    <glyph glyph-name="uni102B" unicode="&#x102b;" horiz-adv-x="365" 
d="M261 49q-15 -49 -83 -49q-33 0 -63 30l-10 51v1436q0 48 -18 88.5t-46.5 69t-66.5 45.5t-81 17q-88 0 -152.5 -59.5t-64.5 -168.5v-138l-9 -29q-18 -45 -63 -45q-28 0 -55 28l-21 45v139q0 89 29 160t80 119t116 74t140 26q73 0 139.5 -26t115 -74.5t82.5 -116.5t34 -154
v-1435z" />
    <glyph glyph-name="uni102C" unicode="&#x102c;" horiz-adv-x="968" 
d="M-59 568l-40 -29l-62 19l-24 48v32q53 160 204 275q150 113 334 113q215 0 362 -147q153 -145 153 -360q0 -218 -147 -366q-145 -150 -358 -150q-101 0 -176 27q-63 12 -63 70q0 26 22 52t69 26q81 -29 148 -29q150 0 255 104.5t105 265.5q0 149 -108 254
q-107 107 -260 107q-136 -10 -237 -86.5t-162 -198.5z" />
    <glyph glyph-name="uni102D" unicode="&#x102d;" horiz-adv-x="4" 
d="M-303 1143q-132 -132 -315 -132q-175 0 -306 129q-134 134 -134 315q0 174 128 308q123 132 312 132q183 0 315 -126q129 -126 129 -314q0 -181 -129 -312zM-409 1661q-86 86 -209 86q-120 0 -206 -87q-86 -80 -86 -205q0 -126 84 -210q81 -85 208 -85q123 0 209 86
t86 209q0 120 -86 206z" />
    <glyph glyph-name="uni102E" unicode="&#x102e;" horiz-adv-x="1" 
d="M-300 1135q-132 -132 -315 -132q-175 0 -306 129q-134 134 -134 315q0 174 128 308q123 132 312 132q183 0 315 -126q129 -126 129 -314q0 -181 -129 -312zM-320 1447q0 120 -86 206t-209 86q-120 0 -206 -87q-86 -80 -86 -205q0 -67 7 -82q22 33 107.5 75t181.5 42
l87 -8q24 -7 46 -14t42 -19q78 -37 107 -76q9 22 9 82zM-615 1152q74 0 129 28t92 70q-22 48 -83 80.5t-135 32.5t-134 -32.5t-84 -84.5q71 -94 215 -94z" />
    <glyph glyph-name="uni102F" unicode="&#x102f;" horiz-adv-x="2" 
d="M-231 -839l-52 -17h-124q-56 0 -102 17q-41 9 -87 58q-34 34 -53 91l-11 104v563l24 29q26 38 64 38q32 0 54 -36l14 -28v-569l3 -55q1 -15 21 -31q28 -33 80 -33h116l44 -9q32 -16 37 -60q0 -30 -28 -62z" />
    <glyph glyph-name="uni1030" unicode="&#x1030;" horiz-adv-x="9" 
d="M-641 -811q-18 -45 -84 -45q-40 0 -60 34l-10 25v770l9 29q14 32 63 45q55 0 79 -53l7 -21v-768zM-53 -839l-52 -17h-124q-56 0 -112 17q-41 9 -87 58q-24 34 -43 91l-11 104v563l14 29q26 38 64 38q42 0 64 -36l14 -28v-569l3 -55q1 -15 21 -31q28 -33 80 -33h116l44 -9
q32 -16 37 -60q0 -30 -28 -62z" />
    <glyph glyph-name="uni1031" unicode="&#x1031;" horiz-adv-x="1147" 
d="M1055 362q0 -35 7 -57q-64 -140 -186 -222.5t-275 -82.5q-209 0 -365 141q-154 146 -154 359q0 212 145 365q147 156 358 156q147 0 263 -74q120 -68 189 -201l10 -39q0 -37 -40 -63q-39 -13 -74 9l-25 24q-46 96 -133 146q-83 52 -190 52q-139 0 -249 -110
q-108 -107 -108 -265q0 -78 23.5 -133.5t57.5 -89.5q43 84 173 163q133 82 264 82q154 0 278 -101q17 -17 31 -59zM601 143q104 0 192.5 58.5t121.5 133.5q-24 23 -76 45l-50 15l-53 5q-103 0 -197 -60t-134 -145q75 -52 196 -52z" />
    <glyph glyph-name="uni1032" unicode="&#x1032;" horiz-adv-x="1" 
d="M-151 1190q22 -51 -5 -94l-40 -9l-37 3l-23 8l-750 571l-15 36q-11 46 10 74l45 15l35 -3l18 -5l751 -571z" />
    <glyph glyph-name="uni1033" unicode="&#x1033;" horiz-adv-x="4" 
d="M-293 1143q-132 -132 -315 -132q-175 0 -306 129q-134 134 -134 315q0 174 128 308q123 132 312 132q183 0 315 -126q129 -126 129 -314q0 -181 -129 -312zM-399 1661q-86 86 -209 86q-120 0 -206 -87q-86 -80 -86 -205q0 -126 84 -210q81 -85 208 -85q123 0 209 86
t86 209q0 120 -86 206zM-487 1566.5q48 -48.5 48 -117.5q0 -70 -48 -118.5t-117 -48.5q-67 0 -115.5 48.5t-48.5 118.5q0 69 48.5 117.5t115.5 48.5q69 0 117 -48.5zM-604 1536q-37 0 -62 -25.5t-25 -62.5q0 -36 25 -61.5t62 -25.5q36 0 61.5 25.5t25.5 61.5
q0 37 -25.5 62.5t-61.5 25.5z" />
    <glyph glyph-name="uni1034" unicode="&#x1034;" horiz-adv-x="2" 
d="M-1024 1215l751 571l18 5l35 3l45 -15q21 -28 10 -74l-15 -36l-750 -571l-23 -8l-37 -3l-40 9q-27 43 -5 94z" />
    <glyph glyph-name="uni1035" unicode="&#x1035;" 
d="M-380 1309l-42 14l-54 5l-78 -8q-19 -5 -37.5 -11t-38.5 -16q-76 -33 -109 -72q67 -61 177 -61q79 0 133 31q54 25 98 78q-9 15 -49 40zM-190 1249l-4 -40q-136 -198 -368 -198q-185 0 -317 132q-129 128 -129 319q0 175 129 309q129 132 320 132q120 0 214.5 -56
t159.5 -153l10 -37q0 -44 -41 -68q-28 -14 -71 3l-25 26q-31 53 -105 103q-63 34 -142 34q-131 0 -214 -84q-86 -86 -86 -209q0 -46 13.5 -88t25.5 -60q40 47 138.5 91.5t203.5 44.5q89 0 166.5 -36t114.5 -127z" />
    <glyph glyph-name="uni1036" unicode="&#x1036;" horiz-adv-x="6" 
d="M-498 1291q-62 -54 -142 -54q-74 0 -130.5 61.5t-56.5 140.5q0 39 17 73.5t45.5 60t64.5 40t75 14.5q73 0 133 -63q54 -63 54 -139q0 -74 -60 -134zM-587 1470q-15 16 -45 21q-49 0 -60 -59q0 -22 16 -38t43 -21q18 0 45 16q9 11 15 43q0 19 -14 38z" />
    <glyph glyph-name="uni1037" unicode="&#x1037;" horiz-adv-x="10" 
d="M-503 -507q-61 -57 -141 -57q-38 0 -72.5 17t-60 46t-40 64t-14.5 75q0 73 63 133q63 54 139 54q73 0 133 -60q54 -63 54 -142q0 -73 -61 -130zM-594 -326q-10 10 -42 16q-19 0 -38 -14q-16 -16 -22 -45q0 -49 60 -60q22 0 37.5 16t21.5 44q0 17 -17 43z" />
    <glyph glyph-name="uni1038" unicode="&#x1038;" horiz-adv-x="576" 
d="M407 679q-63 -55 -141 -55q-73 0 -136 61q-54 63 -54 143q0 74 62 132t143 58q38 0 73.5 -17.5t61.5 -46t40.5 -66t14.5 -75.5q0 -73 -64 -134zM273 881q-22 0 -38 -16t-22 -44q0 -20 17 -44q10 -10 43 -16q20 0 39 14q16 16 21 46q0 49 -60 60zM411 69q-65 -52 -140 -52
q-71 0 -135 58q-54 64 -54 144q0 74 62 132t142 58q39 0 74 -18t61 -46.5t40 -65.5t14 -75q0 -74 -64 -135zM279 272q-23 0 -39 -16.5t-22 -43.5q0 -20 17 -45q10 -10 43 -16q20 0 39 14q16 15 21 47q0 48 -59 60z" />
    <glyph glyph-name="uni1039" unicode="&#x1039;" horiz-adv-x="2" 
d="M-177 -475q0 -69 -71 -74h-209v-176q0 -31 -20.5 -50t-47.5 -19q-72 0 -72 69v176h-207q-64 0 -64 74q0 54 64 61h207v208q11 68 72 68q60 -4 68 -68v-208h209q71 0 71 -61z" />
    <glyph glyph-name="uni103A" unicode="&#x103a;" horiz-adv-x="1" 
d="M-600 1003q-168 0 -300 130q-135 135 -135 318q0 175 129 310q124 133 314 133q140 0 253 -77.5t174 -216.5l10 -36q0 -76 -79 -76q-53 0 -67 46q-12 45 -39.5 83t-65.5 67t-85.5 45t-100.5 16q-120 0 -207 -88q-87 -80 -87 -206q0 -127 85 -212q80 -86 198 -86l36 8
q34 0 59 -17q29 -15 29 -59q0 -50 -59 -71z" />
    <glyph glyph-name="uni103B" unicode="&#x103b;" horiz-adv-x="341" 
d="M-374 117h-2v43q25 65 81 65q64 0 76 -68v-1h5v-656l294 -181v1629q25 65 81 65q64 0 77 -68v-1674q-27 -75 -40 -89l-19 -8q-40 -25 -73 -25l-50 3l-175 106l-158 96q-90 53 -99 146z" />
    <glyph glyph-name="uni103C" unicode="&#x103c;" horiz-adv-x="344" 
d="M1140 1880q159 0 245 -86q42 -82 51 -182v-258q-12 -74 -74 -74q-35 4 -60 20q-25 30 -25 56v239l-12 57l-26 42q-12 14 -36 20q-18 9 -48 9l-32 -2h-732q-66 0 -98.5 -38.5t-32.5 -84.5v-2164q0 -46 35 -89q30 -29 51.5 -37t60.5 -8h731q25 0 48.5 13.5t43 34.5
t29.5 44.5t10 41.5v9l-2 19v831q0 49 29 70.5t52 21.5q34 0 60 -32t18 -63v-834q0 -67 -17 -127.5t-59 -99.5q-77 -86 -189 -95l-365 1v1h-395q-124 0 -215 91q-53 59 -65.5 113.5t-12.5 115.5l-6 2158q0 104 73 196q73 63 177 73l32 -3h756z" />
    <glyph glyph-name="uni103D" unicode="&#x103d;" horiz-adv-x="1" 
d="M-282 -762q-134 -134 -315 -134q-175 0 -306 131q-135 129 -135 312q0 175 129 309q123 132 312 132q183 0 314 -126q129 -126 129 -315q0 -177 -128 -309zM-388 -247q-86 86 -209 86t-206 -83q-86 -86 -86 -209q0 -125 84 -209q80 -86 208 -86q123 0 209 86t86 209
q0 120 -86 206z" />
    <glyph glyph-name="uni103E" unicode="&#x103e;" horiz-adv-x="2" 
d="M-970 -777q4 44 37 60l44 9h115q52 0 81 33q20 16 21 31l3 55v569l14 28q22 36 63 36q39 0 64 -38l15 -29v-563l-12 -104q-19 -57 -42 -91q-46 -49 -87 -58q-56 -17 -112 -17h-125l-51 17q-28 32 -28 62z" />
    <glyph glyph-name="uni103F" unicode="&#x103f;" horiz-adv-x="2953" 
d="M1874 241q-30 -48 -72 -91q-145 -150 -358 -150q-152 0 -278.5 76.5t-164.5 161.5q-35 -76 -161 -157t-271 -81q-181 0 -330 112l-97 108l-9 15q-21 31 -21 71q0 73 68 73q28 0 60 -36q44 -90 134 -147q87 -50 195 -50q150 0 254.5 104.5t104.5 265.5q0 149 -107 254
q-108 108 -260 108q-94 0 -173 -47.5t-136 -131.5q-21 -55 -77 -55q-66 0 -71 74l13 43q72 121 185.5 192t258.5 71q187 0 331 -119q182 -148 182 -400q0 -150 105 -254.5t265 -104.5q150 0 254.5 104.5t104.5 265.5q0 149 -107 254q-107 108 -260 108q-65 0 -118 -20
q-41 -12 -73 6q-21 21 -32 59q0 34 47 65q88 36 176 36q215 0 363 -148q150 -145 150 -360q0 -49 -7 -94q51 -123 152 -196q106 -77 242 -77q153 0 260 107q108 105 108 254q0 161 -105 265.5t-255 104.5q-67 0 -148 -29q-47 0 -69 26t-22 52q0 58 63 70q75 27 176 27
q213 0 358 -150q147 -148 147 -366q0 -215 -153 -360q-147 -147 -362 -147q-184 0 -334 113q-75 57 -126 125z" />
    <glyph glyph-name="uni1040" unicode="&#x1040;" horiz-adv-x="1185" 
d="M958 153q-144 -150 -357 -150q-212 0 -365 144q-151 145 -151 361q0 212 144.5 365t363.5 153q215 0 362 -147q151 -145 151 -360q0 -218 -148 -366zM853 773q-108 107 -260 107q-147 0 -254 -112q-108 -110 -108 -260t104.5 -254.5t265.5 -104.5q150 0 254.5 104.5
t104.5 265.5q0 149 -107 254z" />
    <glyph glyph-name="uni1041" unicode="&#x1041;" horiz-adv-x="1189" 
d="M927 153q-156 -150 -365 -150q-153 0 -274 76.5t-186 226.5v35q0 33 56 61l55 -11l26 -26q36 -92 129 -160q86 -56 194 -56q160 0 265 104q107 105 107 252q0 150 -105 263q-102 112 -251 112q-97 0 -181 -50t-144 -149l-20 -20q-38 -25 -77.5 -11.5t-39.5 63.5l4 35
l9 10q63 123 183.5 195.5t265.5 72.5q205 0 353 -156q149 -158 149 -365q0 -205 -153 -352z" />
    <glyph glyph-name="uni1042" unicode="&#x1042;" horiz-adv-x="1254" 
d="M984 982q16 34 63 34q39 0 65 -40l10 -32v-1279q0 -218 -147 -366q-150 -153 -360 -153q-218 0 -366 148q-150 145 -150 358q0 76 68 89q78 0 78 -89q0 -150 104.5 -255t265.5 -105q149 0 254 108q105 104 105 262v1281z" />
    <glyph glyph-name="uni1043" unicode="&#x1043;" horiz-adv-x="1205" 
d="M102 307v34q0 33 56 61l55 -11l26 -26q36 -92 129 -160q86 -56 194 -56q160 0 265 104q107 105 107 252q0 150 -105 263q-102 112 -251 112q-97 0 -181 -50t-144 -149l-20 -20q-38 -25 -77.5 -11.5t-39.5 63.5l4 35l9 10q63 123 183.5 195.5t265.5 72.5q205 0 353 -156
q149 -158 149 -365q0 -205 -153 -352q-156 -150 -366 -150l-72 2l18 -23l541 -738v-35q0 -33 -24 -57q-19 -20 -67 -7l-30 15l-811 1107z" />
    <glyph glyph-name="uni1044" unicode="&#x1044;" horiz-adv-x="1194" 
d="M1063 271l-808 -1108l-28 -14q-30 -13 -63 1q-22 16 -30 59v38l560 763l3 1l-75 -6q-213 0 -366.5 145t-153.5 358q0 212 145 365q147 156 358 156q147 0 263 -74q120 -68 189 -201l10 -39q0 -37 -40 -63q-39 -13 -74 9l-25 24q-46 96 -133 146q-83 52 -190 52
q-139 0 -249 -110q-108 -107 -108 -265q0 -139 110 -249q108 -108 263 -108q107 0 190.5 57.5t133.5 159.5l11 11q36 37 73 23q47 -13 51 -68v-25z" />
    <glyph glyph-name="uni1045" unicode="&#x1045;" horiz-adv-x="1254" 
d="M253 524q0 -26 -5 -40q5 -34 36.5 -58.5t69.5 -24.5q41 0 78 32.5t37 76.5q0 43 -33.5 79t-75.5 36q-74 0 -107 -70v-31zM277 899q139 127 335 127q215 0 363 -147q150 -145 150 -360v-862q0 -215 -147 -363q-145 -153 -363 -153t-366 147q-150 145 -150 358q0 95 73 95
t73 -95q0 -150 104.5 -254.5t265.5 -104.5q149 0 254 107q105 105 105 263v870q0 144 -107 249q-105 104 -255 104q-177 0 -236 -79q-70 -30 -16 -30q100 0 178 -81q77 -83 77 -180q0 -105 -81 -180q-77 -75 -180 -75q-54 0 -101 22.5t-81 58.5t-53.5 82.5t-19.5 99.5l11 69
q25 187 167 312z" />
    <glyph glyph-name="uni1046" unicode="&#x1046;" horiz-adv-x="1249" 
d="M926 779q0 37 -32.5 72t-76.5 35q-36 0 -75 -32q-29 -37 -29 -75q0 -40 29 -72l59 -33l22 -2q34 0 72 33q31 32 31 74zM248 502q0 -149 105 -254t265 -105q140 0 243 88t103 171l2 24q-4 22 -57 55l-121 46l-52 8l-57 27q-110 82 -110 221q-6 48 14 94t54.5 81t82.5 54.5
t99 19.5q99 0 177 -69q37 -31 56.5 -83.5t19.5 -100.5q0 -42 -16.5 -93t-54.5 -86l-4 -4q36 -18 80 -68t44 -133q0 -136 -155 -268q-150 -127 -348 -127q-209 0 -365 142q-151 145 -151 360v865q0 215 145 365q145 153 363 153q215 0 363 -147q150 -145 150 -361
q0 -75 -70 -75q-76 0 -76 75q0 150 -107 255q-108 107 -260 107q-150 0 -257.5 -107t-107.5 -263z" />
    <glyph glyph-name="uni1047" unicode="&#x1047;" horiz-adv-x="1185" 
d="M960 517q0 151 -107 256q-108 107 -260 107q-147 0 -254 -112q-108 -110 -108 -260q0 -120 75 -217l11 -15l8 -27q0 -72 -79 -72q-42 0 -62 34q-99 132 -99 297q0 212 144.5 365t363.5 153q207 0 359 -144q154 -142 154 -363q0 -224 -108 -480l-87 -244l-67 -233
q-22 -134 8 -225q30 -44 69 -47q17 0 32 14q12 10 12 52l22 36q27 26 57 26q39 0 63 -38l7 -28q0 -93 -63 -149.5t-141 -56.5q-84 0 -135 52t-81 139q-10 47 -11 79t5 74q-2 40 2 65.5t6.5 40t8.5 32.5t14 45l48 164l108 321q68 166 88 327z" />
    <glyph glyph-name="uni1048" unicode="&#x1048;" horiz-adv-x="1185" 
d="M438 25q-20 -25 -59 -25l-35 4l-11 11q-240 181 -240 504q0 231 138.5 365t369.5 134q204 0 352 -147q150 -145 150 -352q0 -171 -68 -309.5t-219 -206.5h-30q-39 0 -65 39q-14 37 9 73l28 24q94 43 145.5 148.5t51.5 231.5q0 141 -105 246t-249 105q-85 0 -140.5 -16
t-110.5 -64q-88 -76 -102 -189l13 1q116 0 201.5 -102.5t85.5 -230.5q0 -49 -5 -69t-19 -56q-20 -63 -82 -115zM394 159q32 37 32 115q0 41 -14.5 78t-37 65.5t-53.5 45.5t-62 17l-17 -2q0 -194 152 -319z" />
    <glyph glyph-name="uni1049" unicode="&#x1049;" horiz-adv-x="1188" 
d="M979 428q70 -79 70 -178q0 -102 -73 -183q-76 -67 -183 -67q-93 0 -177 69q-70 79 -70 178q0 126 108 216l24 14l86 25q56 16 89 28.5t52 25t27 24t11 24.5l-3 23q0 73 -103 167q-100 92 -242 92q-143 0 -258 -106q-112 -104 -112 -253l2 -865q0 -150 103 -260
q105 -110 257 -110q149 0 257 108q110 105 110 254q0 76 76 76q70 0 70 -76q0 -210 -151 -360q-150 -148 -362 -148q-205 0 -358 156q-150 159 -150 363v862q0 202 153 352q156 153 363 153q195 0 353 -133q144 -121 144 -265q0 -75 -38 -135q-37 -40 -82 -65zM903 250
q0 17 -9.5 35.5t-25.5 35.5t-35 26.5t-36 9.5l-19 -2l-60 -33q-29 -27 -29 -72q0 -43 31 -75t73 -32q45 0 78 33q32 28 32 74z" />
    <glyph glyph-name="uni104A" unicode="&#x104a;" horiz-adv-x="527" 
d="M337 77q0 -84 -81 -84q-84 0 -84 84v904q0 83 84 83q81 0 81 -83v-904v0z" />
    <glyph glyph-name="uni104B" unicode="&#x104b;" horiz-adv-x="901" 
d="M688 77q0 -84 -83 -84q-84 0 -84 84v904q0 83 84 83q83 0 83 -83v-904zM337 77q0 -84 -81 -84q-84 0 -84 84v904q0 83 84 83q81 0 81 -83v-904z" />
    <glyph glyph-name="uni104C" unicode="&#x104c;" horiz-adv-x="1157" 
d="M678 1011q130 -33 233 -141q149 -158 149 -365q0 -205 -153 -352q-156 -150 -365 -150h-32q-21 0 -56 4t-91 27q-85 28 -124 64v-44q40 -44 128.5 -82t182.5 -38q97 0 198 34q113 31 208 88l47 7l29 -8h34l-3 -621v-52l-8 -76q0 -36 -42 -78q-30 -40 -98 -64
q-31 -9 -57 -14.5t-61 -5.5h-430q-130 0 -221 99q-31 31 -50 86l-11 93q0 92 75 154q72 55 175 55q162 0 276 -115l9 -13l16 -48q0 -32 -19 -52q-29 -24 -86 -5l-28 14q-62 70 -168 70q-40 0 -76 -22q-25 -20 -25 -53q0 -47 38 -81q41 -34 95 -34h430q38 0 60.5 8t45.5 27
q7 10 14 50l-3 56v436q-62 -29 -172.5 -57.5t-197.5 -28.5q-131 0 -241 47q-103 43 -194 152l-12 19l-7 37v271q0 51 43 68q28 14 62 -5l33 -29q50 -87 130 -143q82 -51 184 -51q160 0 265 104q107 105 107 252q0 150 -105 263q-102 112 -251 112q-97 0 -181 -50t-144 -149
l-20 -20q-38 -25 -77.5 -11.5t-39.5 63.5l4 35l9 10q63 123 184 196q76 46 163 63q-105 29 -191 113q-132 131 -132 315q0 185 126 311q129 129 315 129q137 0 250 -77t173 -215l10 -35q0 -76 -79 -76q-52 0 -66 46q-12 44 -39 82t-66.5 66.5t-86.5 44.5t-96 16
q-123 0 -209 -86q-83 -84 -83 -206q0 -121 81 -210q80 -85 209 -85l76 8q39 0 58 -18q25 -13 29 -56q0 -46 -57 -73z" />
    <glyph glyph-name="uni104D" unicode="&#x104d;" horiz-adv-x="1578" 
d="M536.5 257q-67.5 68 -151.5 68l-58 -7l-29 -17q30 -50 108 -97q95 -58 191 -58l11 1q-4 42 -71.5 110zM1074 -577q-23 -14 -46 -14q-68 0 -68 73v1037q0 149 -107 254q-108 107 -260 107q-147 0 -254 -112q-108 -110 -108 -260l2 -63l7 -25l5 -11l52 26l87 12
q134 0 241 -108q110 -110 110 -244l-11 -86l-122 -6q-219 0 -367 144q-150 151 -150 361q0 212 144.5 365t363.5 153q198 0 356 -144q157 -139 157 -350l3 -1042q0 -32 -35 -67zM1390 749v-1248q0 -135 -107 -239q-105 -105 -263 -105h-604q-59 0 -113.5 20.5t-97 57.5
t-69.5 88t-27 111q0 117 93 198q91 74 214 74q47 0 65 -7q107 -19 196 -90q74 -56 146 -142l4 -28q0 -42 -21 -54.5t-43 -21.5l-44 5q-70 78 -124 120q-62 47 -147 67l-39 5q-57 0 -108 -37q-43 -37 -43 -89q0 -49 48.5 -88.5t109.5 -39.5h604q87 0 159 58q66 56 66 135
v1238q-16 129 -59.5 196.5t-120.5 67.5q-177 0 -309 129q-132 131 -132 315q0 185 127 311q128 129 314 129q137 0 250 -77t173 -215l10 -35q0 -76 -79 -76q-52 0 -66 46q-12 44 -39 82t-66.5 66.5t-86.5 44.5t-96 16q-123 0 -209 -86q-83 -84 -83 -206q0 -121 81 -210
q81 -85 211 -85q37 0 70 -12q210 -61 255 -389z" />
    <glyph glyph-name="uni104E" unicode="&#x104e;" horiz-adv-x="1175" 
d="M904 -754v866q-25 -24 -121 -66.5t-193 -42.5q-210 0 -365 150q-154 147 -154 352q0 207 150 365q148 156 353 156q144 0 265 -72.5t184 -195.5l9 -10l4 -35q0 -50 -40 -63.5t-77 11.5l-20 20q-60 99 -144 149t-181 50q-149 0 -251 -112q-106 -113 -106 -263
q0 -147 108 -252q105 -104 265 -104q107 0 194 56q92 68 129 160l26 26l55 11q58 -31 58 -74v-1079h7v-40l-11 -32q-26 -39 -75 -39q-70 10 -60 45l-3 29v34h-6z" />
    <glyph glyph-name="uni104F" unicode="&#x104f;" horiz-adv-x="1737" 
d="M826 346q-72 0 -128 -54t-56 -140v-6q71 0 147 53.5t118 127.5q-24 19 -81 19zM782 824.5q-82 53.5 -162 53.5v-4q0 -86 55 -141.5t130 -55.5q50 0 89 30q-30 64 -112 117.5zM986.5 939.5q50.5 27.5 105.5 27.5q82 0 140.5 -49t58.5 -144v-694l-3 -34q-15 -49 -73 -49
q-32 0 -62 30l-10 51v696q0 18 -15 32q-10 12 -38 15q-22 0 -39.5 -12t-23.5 -36l10 -26l10 -37q0 -41 -29 -57q-88 -97 -205 -97q-119 0 -219 99q-93 103 -93 212q-95 -17 -185 -124q-88 -108 -88 -241q0 -134 90 -232.5t202 -115.5v-2q0 131 94 225q91 91 215 91
q116 0 193 -77q22 -11 38 -52v-36q-62 -136 -184 -219.5t-275 -83.5q-212 0 -365.5 144.5t-153.5 357.5t145 365q147 157 358 157q221 0 341 -128q10 16 60.5 43.5zM898 1751q129 129 315 129q137 0 249.5 -77t173.5 -215l9 -35q0 -77 -78 -77q-53 0 -67 47q-12 44 -39 81.5
t-66 66t-86 44.5t-96 16q-123 0 -209 -86q-84 -83 -84 -206q0 -121 82 -209q80 -86 211 -86q40 0 53 -12q121 -16 219 -122q101 -102 101 -250l3 -686l-3 -28q-16 -46 -62 -46q-33 0 -69 36l-15 34v685q0 106 -69 168q-65 65 -164 65q-172 0 -306 134q-129 132 -129 317
q0 186 126 312z" />
    <glyph glyph-name="uni1050" unicode="&#x1050;" horiz-adv-x="1185" 
d="M1087.5 351q-15.5 -73 -58.5 -145q-73 -121 -211 -203h-32q-39 0 -65 39q-14 37 9 73l27 23q87 49 145 149q22 45 37.5 106.5t15.5 125.5q0 141 -105 246t-249 105q-156 0 -264 -101q-44 -39 -79 -112q-27 -59 -27 -144q0 -122 46.5 -214t150.5 -168l11 -10l17 -43
q0 -31 -15.5 -49t-57.5 -29l-39 4l-11 11q-113 88 -186 214q-65 136 -65 284q0 227 148 366q139 139 371 139q215 0 357 -145q145 -142 145 -354q0 -95 -15.5 -168zM723.5 631q53.5 -54 53.5 -130q0 -77 -53.5 -131t-129.5 -54q-75 0 -128.5 54t-53.5 131q0 76 53.5 130
t128.5 54q76 0 129.5 -54zM594 597q-41 0 -69 -28t-28 -69q0 -40 28 -68t69 -28q40 0 68 28t28 68q0 41 -28 69t-68 28z" />
    <glyph glyph-name="uni1051" unicode="&#x1051;" horiz-adv-x="1185" 
d="M1103 499q0 -212 -145 -355q-142 -144 -357 -144q-232 0 -371 139q-148 139 -148 366q0 148 65 284q73 126 186 214l11 11l39 4q42 -11 57.5 -29t15.5 -50l-17 -42l-11 -11q-104 -75 -150.5 -167t-46.5 -214q0 -86 27 -144q35 -73 79 -113q108 -100 264 -100
q144 0 249 105t105 246q0 64 -15.5 125.5t-37.5 106.5q-58 100 -145 149l-27 23q-23 36 -9 73q26 39 65 39h32q138 -82 211 -204q43 -71 58.5 -144.5t15.5 -167.5zM594 332q-75 0 -128.5 54.5t-53.5 130.5q0 77 53.5 131t128.5 54q76 0 129.5 -54t53.5 -131
q0 -76 -53.5 -130.5t-129.5 -54.5zM690 518q0 40 -28 68t-68 28q-41 0 -69 -28t-28 -68q0 -41 28 -69t69 -28q40 0 68 28t28 69z" />
    <glyph glyph-name="uni1052" unicode="&#x1052;" horiz-adv-x="1277" 
d="M121.5 695.5q18.5 73.5 55 138.5t86.5 120t111 94q28 12 42 12q35 0 58 -25.5t23 -57.5q0 -40 -37 -70q-190 -116 -190 -362q0 -158 112 -272q111 -113 273 -113q112 0 223 73q103 77 130 175q-2 18 1 31.5t-1 22.5q-16 43 -29 60t-43 27q-43 19 -71 31.5t-45 23.5
q-119 85 -126 211q-2 92 70 166q75 74 169 74q46 0 87.5 -15t76.5 -40.5t53.5 -63t18.5 -79.5q0 -83 -81 -83q-82 0 -82 83q0 23 -36 36q-34 9 -59 -3q-55 -35 -55 -68q8 -67 143 -126q72 -27 104 -64q29 -19 53 -89q21 -56 8 -133q-2 -14 -2 -22v-14q-39 -151 -189 -267
q-149 -114 -318 -114q-229 0 -390 163q-162 165 -162 389q0 77 18.5 150.5z" />
    <glyph glyph-name="uni1053" unicode="&#x1053;" horiz-adv-x="1304" 
d="M647 161l24 2v-3h6q112 0 223 73q103 77 130 175q-2 18 1 31.5t-1 22.5q-16 43 -29 60t-43 27q-43 19 -71 31.5t-45 23.5q-119 85 -126 211q-2 92 70 166q75 74 169 74q46 0 87.5 -15t76.5 -40.5t53.5 -63t18.5 -79.5q0 -83 -81 -83q-82 0 -82 83q0 23 -36 36
q-34 9 -59 -3q-55 -35 -55 -68q8 -67 143 -126q72 -27 104 -64q29 -19 53 -89q21 -56 8 -133q-2 -14 -2 -22v-14q-39 -151 -189 -267q-149 -114 -318 -114q-15 0 -30 1q-15 -1 -30 -1q-169 0 -318 114q-150 116 -189 267v14t-2 22q-13 77 8 133q24 70 53 89q32 37 104 64
q135 59 143 126q0 33 -55 68q-25 12 -59 3q-36 -13 -36 -36q0 -83 -82 -83q-81 0 -81 83q0 42 18.5 79.5t53.5 63t76.5 40.5t87.5 15q94 0 169 -74q72 -74 70 -166q-7 -126 -126 -211q-17 -11 -45 -23.5t-71 -31.5q-30 -10 -43 -27t-29 -60q-4 -9 -1 -22.5t1 -31.5
q27 -98 130 -175q111 -73 223 -73h6v3z" />
    <glyph glyph-name="uni1054" unicode="&#x1054;" horiz-adv-x="1147" 
d="M1024 600q-124 -101 -278 -101q-131 0 -264 82q-130 79 -173 163q-34 -34 -57.5 -89.5t-23.5 -133.5q0 -158 108 -265q110 -110 249 -110q107 0 190 52q87 50 133 146l25 24q35 22 74 9q40 -26 40 -63l-10 -39q-69 -133 -189 -201q-116 -74 -263 -74q-211 0 -358 156
q-145 153 -145 365q0 213 154 358q156 142 365 142q153 0 275 -82.5t186 -222.5q-7 -22 -7 -57q-14 -42 -31 -59zM405 826q40 -85 134 -145t197 -60l53 5l50 15q52 22 76 45q-33 75 -121.5 133.5t-192.5 58.5q-121 0 -196 -52z" />
    <glyph glyph-name="uni1055" unicode="&#x1055;" horiz-adv-x="1708" 
d="M405 826q40 -85 134 -145t197 -60l53 5l50 15q52 22 76 45q-33 75 -121.5 133.5t-192.5 58.5q-121 0 -196 -52zM1047 315q21 -31 49 -59q110 -110 249 -110q107 0 190 52q87 50 133 146l25 24q35 22 74 9q40 -26 40 -63l-10 -39q-69 -133 -189 -201q-116 -74 -263 -74
q-211 0 -358 156q-9 9 -17 19q-52 -62 -122 -101q-116 -74 -263 -74q-211 0 -358 156q-145 153 -145 365q0 213 154 358q156 142 365 142q153 0 275 -82.5t186 -222.5q-7 -22 -7 -57q-14 -42 -31 -59q-124 -101 -278 -101q-131 0 -264 82q-130 79 -173 163
q-34 -34 -57.5 -89.5t-23.5 -133.5q0 -158 108 -265q110 -110 249 -110q107 0 190 52q87 50 133 146l25 24q35 22 74 9q39 -26 40 -62z" />
    <glyph glyph-name="uni1056" unicode="&#x1056;" horiz-adv-x="900" 
d="M-19 292l7 7q11 -13 24 -26q111 -113 273 -113q112 0 223 73q103 77 130 175q-2 18 1 31.5t-1 22.5q-16 43 -29 60t-43 27q-43 19 -71 31.5t-45 23.5q-119 85 -126 211q-2 92 70 166q75 74 169 74q46 0 87.5 -15t76.5 -40.5t53.5 -63t18.5 -79.5q0 -83 -81 -83
q-82 0 -82 83q0 23 -36 36q-34 9 -59 -3q-55 -35 -55 -68q8 -67 143 -126q72 -27 104 -64q29 -19 53 -89q21 -56 8 -133q-2 -14 -2 -22v-14q-39 -151 -189 -267q-149 -114 -318 -114q-229 0 -390 163q-9 10 -18 19l2 3l-11 -7l-14 20q-12 28 -12 42q0 35 25.5 58t57.5 23
q31 0 56 -22z" />
    <glyph glyph-name="uni1057" unicode="&#x1057;" horiz-adv-x="2102" 
d="M284 430h2q27 -87 96 -157q111 -113 273 -113q112 0 223 73q58 43 92 92l-2 4h4q4 6 7 11h19q6 12 16 22q24 25 60 25q35 0 60 -25q10 -10 16 -22h2q0 -1 -1 -2q0 -1 1 -1h1q21 -30 48 -58q111 -113 273 -113q112 0 223 73q103 77 130 175q-2 18 1 31.5t-1 22.5
q-16 43 -29 60t-43 27q-43 19 -71 31.5t-45 23.5q-119 85 -126 211q-2 92 70 166q75 74 169 74q46 0 87.5 -15t76.5 -40.5t53.5 -63t18.5 -79.5q0 -83 -81 -83q-82 0 -82 83q0 23 -36 36q-34 9 -59 -3q-55 -35 -55 -68q8 -67 143 -126q72 -27 104 -64q29 -19 53 -89
q21 -56 8 -133q-2 -14 -2 -22v-14q-39 -151 -189 -267q-149 -114 -318 -114q-229 0 -390 163l-24 26q-37 -43 -87 -81q-149 -114 -318 -114q-229 0 -390 163q-118 120 -150 272h5q1 26 24 45q24 20 58 20t58 -20q22 -18 24 -43z" />
    <glyph glyph-name="uni1058" unicode="&#x1058;" horiz-adv-x="2" 
d="M-331 -245q-44 53 -98 78q-54 32 -133 32q-110 0 -177 -62q33 -39 109 -72q20 -10 38.5 -16t37.5 -11l78 -7l54 4l42 14q40 25 49 40zM-197 -263q-37 -91 -114.5 -126.5t-166.5 -35.5q-105 0 -203.5 44t-138.5 91q-12 -18 -25.5 -60t-13.5 -88q0 -123 86 -209
q83 -83 214 -83q79 0 142 33q74 50 105 104l25 25q43 17 71 3q41 -24 41 -68l-10 -37q-65 -97 -159.5 -153t-214.5 -56q-191 0 -320 132q-129 134 -129 309q0 191 129 320q132 131 317 131q232 0 368 -197l4 -41z" />
    <glyph glyph-name="uni1059" unicode="&#x1059;" horiz-adv-x="118" 
d="M-431 -245q-44 53 -98 78q-54 32 -133 32q-110 0 -177 -62q33 -39 109 -72q20 -10 38.5 -16t37.5 -11l78 -7l54 4l42 14q40 25 49 40zM-353 -753q-42 -41 -91 -70q-95 -56 -215 -56q-191 0 -320 132q-129 134 -129 309q0 191 129 320q132 131 317 131q232 0 368 -197
l4 -41l-7 -38q-37 -91 -114.5 -126.5t-166.5 -35.5q-105 0 -203.5 44t-138.5 91q-12 -18 -25.5 -60t-13.5 -88q0 -123 86 -209q83 -83 214 -83q79 0 142 33q74 50 105 104l25 25q43 17 71 3q36 -21 40 -57q11 -13 23 -25q83 -83 214 -83q79 0 142 33q74 50 105 104l25 25
q43 17 71 3q41 -24 41 -68l-10 -37q-65 -97 -159.5 -153t-214.5 -56q-187 0 -314 126z" />
    <glyph glyph-name="uni105A" unicode="&#x105a;" horiz-adv-x="1232" 
d="M877 83.5q-122 -83.5 -275 -83.5q-212 0 -365.5 144.5t-153.5 357.5t145 365q147 157 358 157q147 0 263 -74q120 -68 189 -202l10 -38q0 -37 -40 -63q-39 -13 -74 8l-25 25q-46 95 -133 145q-83 53 -190 53q-139 0 -249 -110q-108 -108 -108 -266q0 -139 110 -249
q108 -107 263 -107q107 0 190.5 57t133.5 160l11 11q36 37 73 23q47 -13 51 -68v-26q-62 -136 -184 -219.5zM778 -697l-2 1q1 -1 2 -1zM779 -697q0 -1 1 -1zM718 -860q-76 12 -111 74q-31 56 -31 128q0 79 50 175l27 57l40 102q5 11 9 21t4 18q0 68 -33.5 89.5t-79.5 21.5
q-49 0 -81 -38t-32 -73l6 -17q9 -20 10 -45t1 -52l-7 -2q-4 -11 -21 -22q-20 -19 -56 -19q-25 0 -48 14q-46 95 -46 140q0 54 19 98.5t57.5 83.5t87 59t108.5 20q54 0 105 -19t91.5 -51.5t60 -82t19.5 -105.5q0 -32 -15.5 -70.5t-31.5 -75.5l-63 -107q-35 -70 -35 -124v-27
q7 0 21 -28q34 -24 66 -42l-4 -5q10 -17 10 -37q0 -25 -19 -45.5t-49 -20.5q-16 0 -29 7z" />
    <glyph glyph-name="uni105B" unicode="&#x105b;" horiz-adv-x="1620" 
d="M834 738l-38 -7q-77 -25 -77 -108l8 -39q25 -76 107 -76l39 7q76 26 76 108l-7 39q-25 76 -108 76zM742 854q6 3 12 5l-14 -4q1 -1 2 -1zM885 69l-19 12q-34 -21 -72 -37q-96 -41 -193 -41q-212 0 -365 144q-151 145 -151 361q0 212 144.5 365t363.5 153q139 0 265 -76
t187 -187l37 6q91 0 159.5 -65.5t68.5 -174.5l-9 -39q-12 -34 -57 -39q-31 0 -63 27l-17 49q0 37 -24 64q-22 23 -45 30q5 -56 -40 -129q-47 -74 -140 -104l-47 -15h-36q-70 0 -136 43.5t-94 109.5l-18 64v36q0 70 45 136q39 57 103 88q-17 6 -35 12q-30 8 -57.5 13t-46.5 5
q-147 0 -254 -112q-108 -110 -108 -260t104.5 -254.5t265.5 -104.5q85 0 143 28.5t117 87.5q35 31 78 31q50 0 65 -53q0 -18 -7 -36q18 -17 24 -50v-1h5v-123h-1q1 -9 1 -19v-575l339 -101v1630q0 87 74 87q78 0 78 -87v-1728q0 -76 -68 -86q-25 2 -114 34l-391 117
q-60 19 -60 80v262l-148 -301q-28 -50 -80.5 -90.5t-105.5 -42.5q-20 -7 -80 30q-63 36 -110 81l-151 186q-20 22 -30 50q0 35 27 59t58 24q39 0 63 -31q25 -35 52 -68.5t53 -65.5q87 -103 115 -103q28 4 54 49l269 493q11 68 15 152z" />
    <glyph glyph-name="uni105C" unicode="&#x105c;" horiz-adv-x="1185" 
d="M958 153q-144 -150 -357 -150q-212 0 -365 144q-151 145 -151 361q0 212 144.5 365t363.5 153q215 0 362 -147q151 -145 151 -360q0 -218 -148 -366zM853 773q-108 107 -260 107q-147 0 -254 -112q-108 -110 -108 -260t104.5 -254.5t265.5 -104.5q150 0 254.5 104.5
t104.5 265.5q0 149 -107 254zM594 332q-75 0 -128.5 54.5t-53.5 130.5q0 77 53.5 131t128.5 54q76 0 129.5 -54t53.5 -131q0 -76 -53.5 -130.5t-129.5 -54.5zM690 518q0 40 -28 68t-68 28q-41 0 -69 -28t-28 -68q0 -41 28 -69t69 -28q40 0 68 28t28 69z" />
    <glyph glyph-name="uni105D" unicode="&#x105d;" horiz-adv-x="1210" 
d="M854 256q-30 43 -107.5 82.5t-161.5 39.5q-82 0 -154 -37t-101 -80l40 -42q20 -18 63 -35l82 -28l87 -7q71 0 143 29.5t109 77.5zM962 157l-2 -2q-70 -70 -162 -112.5t-197 -42.5q-113 0 -201 34q-77 34 -161 107q-74 71 -115.5 158t-41.5 206q0 162 62 284
q12 23 27.5 45.5t36.5 46.5l84 81l42 11q26 0 60 -26l13 -25l4 -24l-12 -40l-16 -16l-64 -59l-41 -63q-47 -98 -47 -215q0 -97 27 -146q-1 -2 6.5 9t33.5 34q58 50 134 74t150 24q210 0 347 -146q1 1 16 51t15 95q0 130 -55 230l-45 65q-18 25 -48 43l-23 23q-26 39 -12 72
q13 25 46 40h51q31 -19 51 -38t41 -42l60 -83q83 -133 83 -309h1v-836q0 -218 -147 -366q-150 -153 -360 -153q-218 0 -366 148q-150 145 -150 358q0 76 68 89q78 0 78 -89q0 -150 104.5 -255t265.5 -105q149 0 254 108q105 104 105 262v495z" />
    <glyph glyph-name="uni105E" unicode="&#x105e;" horiz-adv-x="2" 
d="M-864 -881q-237 2 -299 103t-62 196q0 113 92 207q137 102 400 112v150q0 81 83 81q80 -4 80 -81v-152q341 -44 422 -230q16 -29 16 -55q0 -42 -48 -70l-21 -2q-58 0 -92 78q-71 112 -277 124v-122q0 -301 -294 -339zM-894 -734l28 2q135 41 135 184v120
q-239 -8 -285 -79q-38 -55 -38 -99q0 -128 160 -128z" />
    <glyph glyph-name="uni105F" unicode="&#x105f;" horiz-adv-x="2" 
d="M-607 -867q-253 0 -369.5 74.5t-138.5 226.5v21q0 148 94 237.5t288 89.5q45 -2 85 -11v114q0 84 76 88q72 0 72 -88v-215q-2 -52 -60 -52l-27 2q-67 9 -140 9q-239 -17 -239 -182v-13q49 -154 359 -154q192 25 258 64.5t104 91.5q24 23 55 23l26 -2q55 -19 55 -57
l-4 -24q-29 -67 -77 -107q-111 -130 -417 -136z" />
    <glyph glyph-name="uni1060" unicode="&#x1060;" 
d="M-741 -883q-225 0 -360.5 97t-157.5 251l-2 21q0 68 70 89l29 -2q348 0 622 358q20 55 70 55l28 -4q45 -20 45 -61l-4 -26q-61 -149 -235 -283t-449 -181q53 -131 187.5 -149.5t162.5 -18.5q271 28 407 270q22 50 61 50h6q66 -8 66 -79q-153 -280 -313 -333.5t-233 -53.5
z" />
    <glyph glyph-name="uni1061" unicode="&#x1061;" horiz-adv-x="1182" 
d="M406 204q95 -58 191 -58l11 1q-4 42 -71.5 110t-151.5 68l-58 -7l-29 -17q30 -50 108 -97zM552 5q-186 15 -317 142q-150 151 -150 361q0 212 144.5 365t363.5 153q198 0 356 -144q157 -139 157 -350l3 -1162q0 -21 25.5 -46.5t64.5 -25.5h66l32 -17q20 -23 32 -51
q0 -47 -37 -70l-29 -11h-64q-91 0 -157 61q-64 54 -82 149v1160q0 149 -107 254q-108 107 -260 107q-147 0 -254 -112q-108 -110 -108 -260l2 -63l7 -25l5 -11l52 26l87 12q134 0 241 -108q110 -110 110 -244l-11 -86l-44 -2l1 -1l15 -29v-563l-12 -104q-19 -57 -42 -91
q-46 -49 -87 -58q-56 -17 -112 -17h-125l-51 17q-28 32 -28 62q4 44 37 60l44 9h115q52 0 81 33q20 16 21 31l3 55v569z" />
    <glyph glyph-name="uni1062" unicode="&#x1062;" horiz-adv-x="588" 
d="M57 1032l52 17h84q56 0 112 -17q41 -9 87 -58q34 -34 53 -91l11 -104v-733l-24 -29q-36 -38 -74 -38q-32 0 -54 36l-14 28v739l-3 55q-1 15 -21 31q-28 33 -80 33h-76l-44 9q-32 16 -37 60q0 30 28 62z" />
    <glyph glyph-name="uni1063" unicode="&#x1063;" horiz-adv-x="1144" 
d="M221 -754v-34l-3 -19q0 -45 -70 -55q-39 0 -65 39l-11 32v40h7v1079q0 43 58 74l55 -11l26 -26q37 -92 129 -160q87 -56 194 -56q160 0 265 104q108 105 108 252q0 150 -106 263q-102 112 -251 112q-97 0 -181 -50t-144 -149l-20 -20q-37 -25 -77 -11.5t-40 63.5l4 35
l9 10q63 123 184 195.5t265 72.5q205 0 353 -156q150 -158 150 -365q0 -205 -154 -352q-155 -150 -365 -150q-97 0 -193 42.5t-121 66.5v-866h-6z" />
    <glyph glyph-name="uni1064" unicode="&#x1064;" horiz-adv-x="527" 
d="M180 792l-3 55q-1 15 -21 31q-28 33 -80 33h-76l-44 9q-32 16 -37 60q0 30 28 62l52 17h84q56 0 112 -17q41 -9 87 -58q34 -34 53 -91l11 -104v-382h-1v-139l3 -55q1 -15 21 -31q28 -33 80 -33h46l44 -9q32 -16 37 -60q0 -30 -28 -62l-52 -17h-54q-56 0 -112 17
q-41 9 -87 58q-34 34 -53 91l-11 104v502z" />
    <glyph glyph-name="uni1065" unicode="&#x1065;" horiz-adv-x="1147" 
d="M907 153q-156 -150 -365 -150q-153 0 -274 76.5t-186 226.5v35q0 33 56 61l55 -11l26 -26q36 -92 129 -160q86 -56 194 -56q160 0 265 104q107 105 107 252q0 150 -105 263q-102 112 -251 112q-97 0 -181 -50t-144 -149l-20 -20q-38 -25 -77.5 -11.5t-39.5 63.5l4 35
l9 10q63 123 183.5 195.5t265.5 72.5q205 0 353 -156q149 -158 149 -365q0 -205 -153 -352z" />
    <glyph glyph-name="uni1066" unicode="&#x1066;" horiz-adv-x="1185" 
d="M962 157q-2 -3 -5 -6q-137 -151 -356 -151q-107 0 -194 34t-166 108q-76 73 -117.5 158.5t-41.5 204.5q0 162 62 284q20 36 29 49.5t29 36.5l97 100l43 11q26 0 62 -26l17 -49l-26 -51l-73 -76q-26 -26 -43 -62q-48 -100 -48 -217q0 -125 64.5 -207t159.5 -125
q67 -24 146 -24q139 0 249 104.5t110 246.5q0 130 -55 230l-46 66l-57 55l-21 21q-26 38 -12 71q13 26 46 40h54l84 -80q34 -34 74 -94q82 -141 82 -309q0 -25 -2 -49h3v-786q0 -218 -147 -366q-150 -153 -360 -153q-218 0 -366 148q-150 145 -150 358q0 76 68 89
q78 0 78 -89q0 -150 104.5 -255t265.5 -105q149 0 254 108q105 104 105 262v495z" />
    <glyph glyph-name="uni1067" unicode="&#x1067;" horiz-adv-x="686" 
d="M440 221q0 95 -97 95q-96 0 -96 -95q0 -96 96 -96q97 0 97 96zM571 994v-767q0 -91 -65.5 -158t-160.5 -67q-93 0 -162 66t-69 159q0 102 69 168.5t162 66.5q38 0 73 -14v588h6q6 15 18 28q22 21 54 21t55 -21q12 -13 18 -28h2v-7q2 -9 2 -18t-2 -17z" />
    <glyph glyph-name="uni1068" unicode="&#x1068;" horiz-adv-x="688" 
d="M570 1324q0 -82 -57.5 -142.5t-142.5 -60.5q-84 0 -144.5 58.5t-60.5 144.5q0 84 60.5 143.5t144.5 59.5q85 0 142.5 -61t57.5 -142zM446 1330q0 70 -73 70q-74 0 -74 -70q0 -73 74 -73q73 0 73 73zM29 58q5 44 37 60l44 9h76q52 0 80 33q20 16 21 31l3 55v599l14 28
q22 36 54 36q38 0 74 -38l24 -29v-593l-11 -104q-19 -57 -53 -91q-46 -49 -87 -58q-56 -17 -112 -17h-84l-52 17q-28 32 -28 62z" />
    <glyph glyph-name="uni1069" unicode="&#x1069;" horiz-adv-x="702" 
d="M461 28q-18 4 -31 12q-29 15 -54 47q-22 33 -32 67t-18 81q-5 55 4.5 114t32.5 116l10 37l62 182q0 4 1 5.5t1 4.5q0 4 1 4t0 2q11 22 10 38q-10 68 -62 104t-124 26q-33 -7 -57 -15l-3 4q-7 -1 -13 -1q-27 0 -46 22t-19 53q0 21 7 37l-9 15q19 10 40 17q8 5 18 6
q1 1 2 1q32 9 60 13q68 11 130 -4.5t108.5 -49.5t79.5 -85t39 -118q4 -32 -5 -78t-24 -97v2l-58 -156q-41 -114 -34 -181q-5 -44 27 -65t74 -32l-7 -12q22 -24 22 -56q0 -34 -23.5 -58t-56.5 -24q-30 0 -53 22z" />
    <glyph glyph-name="uni106A" unicode="&#x106a;" horiz-adv-x="713" 
d="M568 961h5v-701q0 -112 -78 -186t-184 -74q-104 0 -181 74q-70 66 -77 163q-2 7 -2 14q0 27 23 45.5t55 18.5q33 0 56 -18q19 -16 22 -37h8v-7q0 -40 33.5 -70.5t68.5 -30.5q42 0 76 30.5t34 70.5v689q-5 10 -5 21q0 23 21.5 39.5t51.5 16.5t51.5 -16.5t21.5 -39.5v-2z
" />
    <glyph glyph-name="uni106B" unicode="&#x106b;" horiz-adv-x="725" 
d="M598 56q0 -23 -21.5 -39.5t-51.5 -16.5t-51.5 16.5t-21.5 39.5q0 11 5 21v689q0 40 -34 70.5t-76 30.5q-35 0 -68.5 -30.5t-33.5 -70.5v-7h-8q-3 -21 -22 -37q-23 -18 -56 -18q-32 0 -55 18.5t-23 45.5q0 7 2 14q7 97 77 163q77 74 181 74q106 0 184 -74t78 -186v-701h-5
v-2z" />
    <glyph glyph-name="uni106C" unicode="&#x106c;" horiz-adv-x="712" 
d="M106 963q0 23 21.5 39.5t51.5 16.5t51.5 -16.5t21.5 -39.5q0 -11 -5 -21v-689q0 -40 34 -70.5t76 -30.5q35 0 68.5 30.5t33.5 70.5v7h8q3 21 22 37q23 18 56 18q32 0 55 -18.5t23 -45.5q0 -7 -2 -14q-7 -97 -77 -163q-77 -74 -181 -74q-106 0 -184 74t-78 186v701h5v2z
" />
    <glyph glyph-name="uni106D" unicode="&#x106d;" horiz-adv-x="702" 
d="M172 157q23 -4 51 -4q87 0 141.5 47t54.5 113q0 16 -9 32q0 2 -1.5 3.5t-1.5 4.5q0 2 -1 4t-1 5l-97 172l-23 39q-31 52 -48 110t-17 113q0 48 7 84.5t27 68.5q24 41 57 61q29 17 78 25q19 12 43 12q34 0 57.5 -25t23.5 -60q0 -26 -13 -46l2 -3q-3 -1 -5 -2q-4 -4 -7 -8
q-24 -25 -58 -25h-1q-7 -4 -12 -8q-35 -24 -25 -69q0 -68 64 -178l87 -146v4q26 -46 42 -92t16 -79q0 -63 -30 -120.5t-81.5 -100.5t-120.5 -68t-150 -25q-41 0 -79 5q-8 -2 -16 -2q-21 0 -38 11q-7 2 -15 4l3 6q-2 2 -4 5q-22 26 -22 62t22 61.5t54 25.5q26 0 46 -17z" />
    <glyph glyph-name="uni106E" unicode="&#x106e;" horiz-adv-x="2441" 
d="M961 870q142 -141 142 -351q0 -95 -15.5 -168t-58.5 -145q-73 -121 -211 -203h-32q-39 0 -65 39q-14 37 9 73l27 23q87 49 145 149q22 45 37.5 106.5t15.5 125.5q0 141 -105 246t-249 105q-156 0 -264 -101q-44 -39 -79 -112q-27 -59 -27 -144q0 -122 46.5 -214
t150.5 -168l11 -10l17 -43q0 -31 -15.5 -49t-57.5 -29l-39 4l-11 11q-113 88 -186 214q-65 136 -65 284q0 227 148 366q139 139 371 139q96 0 178 -29q86 29 192 29q215 0 357 -145q24 -24 44 -49q42 47 97 89q150 113 334 113q215 0 362 -147q153 -145 153 -360
q0 -218 -147 -366q-145 -150 -358 -150q-101 0 -176 27q-63 12 -63 70q0 26 22 52t69 26q81 -29 148 -29q150 0 255 104.5t105 265.5q0 149 -108 254q-107 107 -260 107q-136 -10 -237 -86q-67 -51 -116 -122q21 -71 21 -153q0 -95 -15.5 -168t-58.5 -145
q-73 -121 -211 -203h-32q-39 0 -65 39q-14 37 9 73l27 23q87 49 145 149q22 45 37.5 106.5t15.5 125.5q0 141 -105 246t-249 105h-10z" />
    <glyph glyph-name="uni106F" unicode="&#x106f;" horiz-adv-x="2067" 
d="M1821 137q-156 -140 -365 -140q-100 0 -156 27l-29 11q-41 29 -41 67q0 26 12 47.5t59 26.5l42 -7l22 -9q40 -17 91 -17q153 0 264 101q114 99 114 250t-107.5 266t-254.5 115q-150 0 -257 -107.5t-107 -257.5q0 -212 -139.5 -359.5t-363.5 -147.5q-236 0 -377 132.5
t-141 372.5q0 159 62 280.5t194 222.5l41 10q26 0 60 -25l13 -26l4 -23l-12 -40l-17 -17q-101 -76 -149 -166q-48 -99 -48 -216q0 -166 99 -265q107 -92 271 -92q142 0 250 103q104 99 104 248q0 85 -10 124q-8 55 -40 108q-45 97 -148 149l-24 23q-26 39 -12 72
q13 26 46 40h50q168 -80 222 -218q1 3 49.5 54t109 89t128.5 59.5t142 21.5q211 0 358 -156q153 -159 153 -374q0 -54 -11 -104v-733q0 -215 -147 -363q-145 -153 -363 -153t-366 147q-150 145 -150 358q0 95 73 95t73 -95q0 -150 104.5 -254.5t265.5 -104.5q149 0 254 107
q105 105 105 263v480z" />
    <glyph glyph-name="uni1070" unicode="&#x1070;" horiz-adv-x="2062" 
d="M1822 131q-146 -139 -357 -139q-153 0 -272 76.5t-162 163.5q-35 -78 -163 -163q-60 -37 -131 -60q-66 -17 -147 -17q-181 0 -295 88.5t-188 266.5l-14 81q0 99 68.5 167.5t162.5 68.5q31 0 65 27.5t34 65.5q0 41 -26 70t-67 29t-70 -26t-29 -67q0 -24 -11 -42t-49 -33
q-46 -10 -75 44l-11 25q0 52 19.5 96t52.5 77t77 52.5t96 19.5q46 0 90 -19.5t77 -54t52.5 -78.5t19.5 -93q0 -51 -21 -95t-55.5 -77t-78.5 -51.5t-90 -18.5q-28 0 -51 -26t-23 -67q0 -23 4 -35q15 -53 46 -99t76 -79.5t99.5 -53.5t114.5 -20q145 0 255 105q112 105 112 257
q0 61 -16.5 120.5t-45.5 110t-69.5 87.5t-91.5 56q-41 13 -53 72q0 85 84 72q117 -35 223 -166q115 -158 115 -341q0 -151 105 -263q105 -110 257 -110q145 0 255 105q112 105 112 257q0 145 -105 257.5t-253 112.5l-49 -3l-41 -7q-22 -9 -50 4.5t-41 55.5q0 54 57 79l74 14
l48 3q206 0 354 -156q152 -158 152 -360q0 -54 -10 -104h5v-736q0 -215 -147 -363q-145 -153 -363 -153t-366 147q-150 145 -150 358q0 95 73 95t73 -95q0 -150 104.5 -254.5t265.5 -104.5q149 0 254 107q105 105 105 263v474z" />
    <glyph glyph-name="uni1071" unicode="&#x1071;" 
d="M-279 1321q-62 -54 -142 -54q-74 0 -130.5 61.5t-56.5 140.5q0 39 17.5 73.5t45.5 60t64 40t75 14.5q73 0 133 -63q54 -63 54 -139q0 -74 -60 -134zM-368 1500q-15 16 -45 21q-49 0 -60 -59q0 -22 16 -38t43 -21q18 0 45 16q9 11 15 43q0 19 -14 38zM-791 1321
q-62 -54 -142 -54q-74 0 -130.5 61.5t-56.5 140.5q0 39 17 73.5t45.5 60t64.5 40t75 14.5q73 0 133 -63q54 -63 54 -139q0 -74 -60 -134zM-880 1500q-15 16 -45 21q-49 0 -60 -59q0 -22 16 -38t43 -21q18 0 45 16q9 11 15 43q0 19 -14 38z" />
    <glyph glyph-name="uni1072" unicode="&#x1072;" 
d="M-330 1840q95 -42 157 -131q26 -30 -1 -73t-66 -43q-27 0 -55 27q-18 21 -45 42.5t-61 46.5q-41 19 -70 25t-59 6q-123 0 -209 -86t-86 -208q0 -121 86 -207t209 -86q71 0 133 35q61 27 105 87l39 15q86 0 86 -70q0 -35 -26 -62q-60 -67 -147 -110t-190 -43
q-183 0 -314 126q-129 123 -129 315q0 177 128 311q132 132 315 132q112 0 200 -49z" />
    <glyph glyph-name="uni1073" unicode="&#x1073;" 
d="M-804 1675l5 5l677 -515l11 -25q22 -51 -5 -94l-40 -9l-37 3l-23 8l-588 448l-588 -448l-23 -8l-37 -3l-40 9q-27 43 -5 94l11 25l677 515z" />
    <glyph glyph-name="uni1074" unicode="&#x1074;" horiz-adv-x="2" 
d="M-809 1037l-677 515l-11 25q-22 51 5 94l40 9l37 -3l23 -8l588 -448l588 448l23 8l37 3l40 -9q27 -43 5 -94l-11 -25l-677 -515l-5 5z" />
    <glyph glyph-name="uni1075" unicode="&#x1075;" horiz-adv-x="1277" 
d="M1150.5 340q-18.5 -72 -55 -136t-86.5 -118t-111 -92q-28 -12 -42 -12q-35 0 -58 25t-23 57q0 39 37 68q190 114 190 356q0 155 -112 267q-111 111 -273 111q-112 0 -223 -72q-103 -75 -130 -172q2 -17 -1 -30.5t1 -22.5q16 -42 29 -58.5t43 -26.5q43 -19 71 -31t45 -23
q119 -84 126 -207q2 -91 -70 -163q-75 -73 -169 -73q-46 0 -87.5 14.5t-76.5 39.5t-53.5 62t-18.5 78q0 82 81 82q82 0 82 -82q0 -22 36 -35q34 -9 59 3q55 34 55 67q-8 66 -143 124q-72 26 -104 62q-29 19 -53 88q-21 55 -8 130q2 14 2 22v14q39 148 189 262
q149 112 318 112q229 0 390 -160q162 -162 162 -382q0 -76 -18.5 -148z" />
    <glyph glyph-name="uni1076" unicode="&#x1076;" horiz-adv-x="1147" 
d="M402 400q-62 0 -103.5 -15.5t-73.5 -48.5q30 -68 120 -136q94 -57 194 -57q120 0 196 52q-12 24 -48.5 65.5t-82 73t-98 49t-104.5 17.5zM689 1002q122 -35 219 -137q150 -158 150 -365q0 -205 -154 -353q-150 -147 -365 -147q-153 0 -274 75.5t-186 226.5l3 54
q0 25 32 63q51 48 128 77q72 26 155 26q139 0 265 -78t169 -166q16 15 48.5 84t32.5 138q0 150 -106 263q-84 92 -200 108v4h-1q-41 -14 -57 -26t-26 -40q-18 -38 -30 -64t-22 -42q-81 -108 -201 -115q-87 -2 -158 64q-70 68 -70 154q0 43 14 81t38.5 70t60 49t75.5 17
q79 0 79 -74q0 -75 -79 -75q-22 0 -34 -34q-9 -31 3 -53q33 -51 64 -51q64 8 120 131q26 66 61 95q18 27 85 49q53 20 126 7q14 -2 21.5 -2h13.5v-14z" />
    <glyph glyph-name="uni1077" unicode="&#x1077;" horiz-adv-x="1147" 
d="M671 344q0 -62 15.5 -103.5t48.5 -73.5q68 30 136 120q57 94 57 194q0 120 -52 196q-24 -12 -65.5 -48.5t-73 -82t-49 -98t-17.5 -104.5zM69 631q35 122 137 219q158 150 365 150q205 0 353 -154q147 -150 147 -365q0 -153 -75.5 -274t-226.5 -186l-54 3q-25 0 -63 32
q-48 51 -77 128q-26 72 -26 155q0 139 78 265t166 169q-15 16 -84 48.5t-138 32.5q-150 0 -263 -106q-92 -84 -108 -200h-4v-1q14 -41 26 -57t40 -26q38 -18 64 -30t42 -22q108 -81 115 -201q2 -87 -64 -158q-68 -70 -154 -70q-43 0 -81 14t-70 38.5t-49 60t-17 75.5
q0 79 74 79q75 0 75 -79q0 -22 34 -34q31 -9 53 3q51 33 51 64q-8 64 -131 120q-66 26 -95 61q-27 18 -49 85q-20 53 -7 126q2 14 2 21.5v13.5h14z" />
    <glyph glyph-name="uni1078" unicode="&#x1078;" horiz-adv-x="2062" 
d="M1103 516q0 -161 105 -265.5t254 -104.5q161 0 265.5 104.5t104.5 254.5t-107 260q-108 113 -255 113q-152 0 -259 -108q-108 -105 -108 -254zM1462 0q-181 0 -331 125q-174 153 -174 380q0 150 -107 260q-108 113 -255 113q-152 0 -260 -108q-107 -105 -107 -254
q0 -161 105 -265.5t253 -104.5l94 10q85 13 85 -70q0 -75 -69 -75l-52 -5l-55 -6q-215 0 -359 150q-148 148 -148 366q0 215 151 360q147 148 362 148q154 0 277.5 -82.5t157.5 -158.5q38 84 163 162.5t277 78.5q219 0 363.5 -153.5t144.5 -365.5q0 -216 -150 -361
q-153 -144 -366 -144z" />
    <glyph glyph-name="uni1079" unicode="&#x1079;" horiz-adv-x="2062" 
d="M1103 516q0 -161 105 -265.5t254 -104.5q161 0 265.5 104.5t104.5 254.5t-107 260q-108 113 -255 113q-152 0 -259 -108q-108 -105 -108 -254zM754 38q-17 -27 -58 -27l-52 -5l-55 -6q-215 0 -359 150q-148 148 -148 366q0 215 151 360q147 148 362 148
q154 0 277.5 -82.5t157.5 -158.5q38 84 163 162.5t277 78.5q219 0 363.5 -153.5t144.5 -365.5q0 -216 -150 -361q-153 -144 -366 -144q-181 0 -331 125q-174 153 -174 380q0 150 -107 260q-108 113 -255 113q-152 0 -260 -108q-107 -105 -107 -254q0 -69 19 -127
q81 39 189 39q132 0 255 -92q119 -110 159 -221q-43 -52 -96 -77zM452 313q-41 0 -68.5 -10.5t-48.5 -32.5q19 -45 79 -90q62 -37 128 -37q80 0 130 34q-8 16 -32 43.5t-54.5 48t-65 32.5t-68.5 12z" />
    <glyph glyph-name="uni107A" unicode="&#x107a;" horiz-adv-x="2136" 
d="M1106 175q-1 -270 -1 -752h4v-53q0 -21 25.5 -46.5t64.5 -25.5h66l32 -17q20 -23 32 -51q0 -47 -37 -70l-29 -11h-64q-101 0 -167 61q-64 54 -72 149v13h-1q1 1134 1 1147q0 149 -107 254q-108 107 -260 107q-147 0 -254 -112q-108 -110 -108 -260t104.5 -254.5
t265.5 -104.5q67 0 125 21q0 1 1 1q23 22 55 22q33 0 55.5 -22t22.5 -53q0 -29 -20 -51l3 -4q-107 -60 -242 -60q-212 0 -365 144q-151 145 -151 361q0 212 144.5 365t363.5 153q215 0 362 -147q151 -145 151 -360v-85q61 -122 162 -198.5t237 -86.5q153 0 260 107
q108 105 108 254q0 161 -105 265.5t-255 104.5q-67 0 -148 -29q-47 0 -69 26t-22 52q0 58 63 70q75 27 176 27q213 0 358 -150q147 -148 147 -366q0 -215 -153 -360q-147 -147 -362 -147q-184 0 -334 113q-34 26 -63 59z" />
    <glyph glyph-name="uni107B" unicode="&#x107b;" horiz-adv-x="2062" 
d="M849 770q-107 108 -259 108q-147 0 -255 -113q-107 -110 -107 -260t104.5 -254.5t265.5 -104.5q149 0 254 104.5t105 265.5q0 149 -108 254zM1210 115q40 111 159 221q123 92 255 92q108 0 189 -39q19 58 19 127q0 149 -107 254q-108 108 -260 108q-147 0 -255 -113
q-107 -110 -107 -260q0 -227 -174 -380q-150 -125 -331 -125q-213 0 -366 144q-150 145 -150 361q0 212 144.5 365.5t363.5 153.5q152 0 277 -78.5t163 -162.5q34 76 157.5 158.5t277.5 82.5q215 0 362 -148q151 -145 151 -360q0 -218 -148 -366q-144 -150 -359 -150l-55 6
l-52 5q-41 0 -58 27q-53 25 -96 77zM1539.5 301q-34.5 -12 -65 -32.5t-54.5 -48t-32 -43.5q50 -34 130 -34q66 0 128 37q60 45 79 90q-21 22 -48.5 32.5t-68.5 10.5q-34 0 -68.5 -12z" />
    <glyph glyph-name="uni107C" unicode="&#x107c;" horiz-adv-x="2072" 
d="M708 260.5q-38 41.5 -85 73t-101 49t-108 17.5q-64 0 -107 -15.5t-76 -48.5q31 -68 124 -136q98 -57 201 -57q124 0 202 52q-12 24 -50 65.5zM1283 195q78 -52 202 -52q103 0 201 57q93 68 124 136q-33 33 -76 48.5t-107 15.5q-54 0 -108 -17.5t-101 -49t-85 -73
t-50 -65.5zM1020 250q-35 -54 -87 -103q-155 -147 -377 -147q-158 0 -283.5 75.5t-192.5 226.5l3 54q0 25 33 63q53 48 133 77q74 26 160 26q144 0 274 -78t175 -166q16 15 54.5 84t38.5 138q0 150 -119 263q-106 112 -260 112q-100 0 -186.5 -50t-148.5 -149l-21 -20
q-39 -25 -80.5 -12t-41.5 64l5 35l9 9q65 124 190 196.5t274 72.5q212 0 365 -156q50 -51 84 -106q33 55 83 106q152 156 364 156q150 0 274.5 -72.5t190.5 -196.5l9 -9l4 -35q0 -51 -41 -64t-80 12l-21 20q-62 99 -148.5 149t-187.5 50q-154 0 -259 -112
q-119 -113 -119 -263q0 -69 38.5 -138t54.5 -84q44 88 174.5 166t274.5 78q86 0 160 -26q80 -29 133 -77q32 -38 32 -63l4 -54q-68 -151 -193 -226.5t-283 -75.5q-222 0 -378 147q-52 49 -87 103z" />
    <glyph glyph-name="uni107D" unicode="&#x107d;" horiz-adv-x="2078" 
d="M1512 143q104 0 192.5 58.5t121.5 133.5q-24 23 -76 45l-50 15l-53 5q-103 0 -197 -60t-134 -145q75 -52 196 -52zM1060 248q-32 -50 -77 -96q-156 -159 -379 -159q-165 0 -310 111q-146 113 -184 260v13.5t-2 21.5q-13 75 8 130q23 68 51 86q31 36 102 63
q131 57 139 122q0 32 -54 66q-24 12 -57 3q-35 -12 -35 -35q0 -80 -80 -80q-79 0 -79 80q0 41 18 77.5t52 61.5t74.5 39.5t85.5 14.5q91 0 164 -72q70 -72 69 -162q-7 -122 -123 -205q-17 -11 -44 -23t-69 -31q-29 -9 -42 -25.5t-28 -58.5q-4 -9 -1 -22t1 -31
q26 -95 126 -170q108 -71 218 -71q157 0 265 100q119 121 119 275h6q10 192 144 334q147 156 358 156q147 0 263 -74q120 -68 189 -201l10 -39q0 -37 -40 -63q-39 -13 -74 9l-25 24q-46 96 -133 146q-83 52 -190 52q-139 0 -249 -110q-98 -97 -107 -236h1q0 -22 -2 -43
q2 -69 24 -119q23 -56 57 -90q43 84 173 163q133 82 264 82q154 0 278 -101q17 -17 31 -59q0 -35 7 -57q-64 -140 -186 -222.5t-275 -82.5q-209 0 -365 141q-52 50 -87 107z" />
    <glyph glyph-name="uni107E" unicode="&#x107e;" horiz-adv-x="2078" 
d="M1512 143q104 0 192.5 58.5t121.5 133.5q-24 23 -76 45l-50 15l-53 5q-103 0 -197 -60t-134 -145q75 -52 196 -52zM1094 199q-19 24 -34 49q-32 -50 -77 -96q-156 -159 -379 -159q-165 0 -310 111q-146 113 -184 260v13.5t-2 21.5q-13 75 8 130q23 68 51 86q31 36 102 63
q131 57 139 122q0 32 -54 66q-24 12 -57 3q-35 -12 -35 -35q0 -80 -80 -80q-79 0 -79 80q0 41 18 77.5t52 61.5t74.5 39.5t85.5 14.5q91 0 164 -72q70 -72 69 -162q-7 -122 -123 -205q-17 -11 -44 -23t-69 -31q-29 -9 -42 -25.5t-28 -58.5q-4 -9 -1 -22t1 -31
q26 -95 126 -170q108 -71 218 -71q157 0 265 100q119 121 119 275h6q10 192 144 334q147 156 358 156q147 0 263 -74q120 -68 189 -201l10 -39q0 -37 -40 -63q-39 -13 -74 9l-25 24q-46 96 -133 146q-83 52 -190 52q-139 0 -249 -110q-98 -97 -107 -236h1q0 -22 -2 -43
q2 -69 24 -119q23 -56 57 -90q43 84 173 163q133 82 264 82q154 0 278 -101q17 -17 31 -59q0 -35 7 -57q-64 -140 -186 -222.5t-275 -82.5q-166 0 -299 89l-257 -925l-15 4l-10 -27l-343 121l2 7q-5 4 -9 10q-16 18 -16 45t15.5 46t37.5 19q7 0 14 -2l1 2l215 -76z" />
    <glyph glyph-name="uni107F" unicode="&#x107f;" horiz-adv-x="1185" 
d="M252 377q24 -84 118.5 -156t214.5 -72q78 0 142 24q35 18 63 36t53 37q55 55 83.5 113t28.5 146q0 117 -48 216q-48 91 -150 166l-17 17l-12 40l5 24l13 25q34 25 59 25l41 -10q133 -101 195 -222t62 -281q0 -173 -92 -297.5t-226 -176.5q-60 -22 -106.5 -26.5
t-93.5 -4.5q-108 0 -199 37q-94 46 -159 114q-145 153 -145 349q0 45 5.5 82.5t14.5 79.5q14 48 28 84t29 63q84 135 209 207h23q51 -8 60 -21q140 -79 140 -240q0 -140 -104 -252.5t-235 -125.5zM421 872l9 8q-89 -49 -147 -142q-33 -56 -45 -103q-13 -45 -13 -96l5 -44
q32 4 81.5 30t85.5 63t54 80.5t18 86.5q0 85 -48 117z" />
    <glyph glyph-name="uni1080" unicode="&#x1080;" horiz-adv-x="2048" 
d="M686.5 260.5q-36.5 41.5 -82 73t-98 49t-104.5 17.5q-62 0 -103.5 -15.5t-73.5 -48.5q30 -68 120 -136q94 -57 194 -57q120 0 196 52q-12 24 -48.5 65.5zM983 242q-32 -50 -79 -95q-150 -147 -365 -147q-153 0 -274 75.5t-186 226.5l3 54q0 25 32 63q51 48 128 77
q72 26 155 26q139 0 265 -78t169 -166q16 15 48.5 84t32.5 138q0 150 -106 263q-102 112 -251 112q-97 0 -181 -50t-143 -149l-21 -20q-37 -25 -77 -12t-40 64l4 35l9 9q63 124 184 196.5t265 72.5q205 0 353 -156q150 -158 150 -365q0 -40 -6 -78q60 -114 156 -186
q101 -77 237 -87q153 0 260 107q108 105 108 254q0 161 -105 265.5t-255 104.5q-67 0 -148 -29q-47 0 -69 26t-22 52q0 58 63 70q75 27 176 27q213 0 358 -150q147 -148 147 -366q0 -215 -153 -360q-147 -147 -362 -147q-184 0 -334 113q-75 57 -126 126z" />
    <glyph glyph-name="uni1081" unicode="&#x1081;" horiz-adv-x="1185" 
d="M442 264q0 42 -16 85.5t-48 80.5t-76 63t-73 30l-4 -44q0 -51 12 -96q10 -47 40 -103q51 -93 130 -142l-8 8q43 33 43 118zM379 3h-11q-125 71 -209 206q-15 27 -29 63t-28 84q-9 42 -14.5 80t-5.5 83q0 196 145 349q65 68 159 113q91 37 199 37q47 0 93.5 -4t106.5 -27
q134 -51 226 -176t92 -298q0 -69 -12 -132q2 -7 2 -15q0 -25 -22 -43t-52 -18t-51.5 18t-21.5 43v1l-11 2q20 68 20 144q0 88 -28.5 146t-83.5 113q-25 20 -53 38t-63 35q-64 25 -142 25q-120 0 -214.5 -72.5t-118.5 -155.5q131 -14 235 -126.5t104 -251.5q0 -66 -24 -119
l-272 -981l-15 4l-10 -27l-343 121l2 7q-5 4 -9 10q-16 18 -16 45t15.5 46t37.5 19q7 0 14 -2l1 2l215 -76z" />
    <glyph glyph-name="uni1082" unicode="&#x1082;" horiz-adv-x="1" 
d="M-515 -146l-3 -8q-42 13 -89 13q-123 0 -206 -83q-86 -86 -86 -209q0 -125 84 -209q80 -86 208 -86q123 0 209 86t86 209v9q-1 5 -1 10v5q2 23 22 39q21 18 51 18q31 0 53 -18q18 -16 21 -37h1q1 -13 1 -26q0 -177 -128 -309q-134 -134 -315 -134q-175 0 -306 131
q-135 129 -135 312q0 175 129 309q123 132 312 132q76 0 143 -22l-5 -13q16 -20 16 -49t-16.5 -49.5t-39.5 -20.5h-6z" />
    <glyph glyph-name="uni1083" unicode="&#x1083;" horiz-adv-x="510" 
d="M293 -623q8 -54 31.5 -69t72.5 -15h66l30 -28q8 -13 13.5 -24t13.5 -36l-11 -21q-8 -11 -22 -25l-27 -16h-63q-35 0 -60 4t-48 12t-45 18t-46 37q-22 30 -41 81l-11 118l-4 1371q-8 54 -31 69t-72 15h-66l-30 28q-8 13 -13.5 24t-13.5 36l11 22q8 11 22 24l27 17h63
q35 0 59.5 -4.5t48 -12.5t45 -18t46.5 -37q22 -29 41 -81l11 -118z" />
    <glyph glyph-name="uni1084" unicode="&#x1084;" horiz-adv-x="1188" 
d="M90 344q0 82 44 135q42 54 57 60q-20 9 -57.5 66.5t-37.5 151.5q0 150 147 213q134 64 347 64q221 0 347 -59q166 -77 166 -234q0 -51 -50 -128q-37 -54 -83 -90h-32q-36 4 -55 24l-12 39l4 44l54 57q26 32 26 54q0 75 -100 110t-265 35q-139 0 -247 -46q-99 -42 -99 -83
q0 -76 50 -108q43 -29 133 -39l27 -3q45 -15 45 -59q0 -38 -24 -62q-17 -17 -40 -21l-121 -34q-75 -30 -75 -87q0 -104 101 -156q77 -39 245 -39q172 0 269 33q84 35 107 112l25 17q13 13 60 19l42 -42l18 -37q-54 -133 -168 -192q-69 -31 -148.5 -43.5t-204.5 -12.5
q-225 0 -344 68q-151 88 -151 273z" />
    <glyph glyph-name="uni1085" unicode="&#x1085;" 
d="M-982 1644q0 132 130 194q148 51 298 51q122 0 267 -45q152 -70 152 -206q0 -95 -44.5 -134.5t-154.5 -77.5l-34 18l-25 21l-17 28l17 53l22 22l73 30q17 33 17 40q0 51 -60 74q-68 25 -92 25q-16 6 -65 6h-56q-117 0 -204 -30q-78 -45 -78 -69q0 -40 38 -65
q61 -30 111 -38l21 -8l25 -22l12 -19q12 -35 -26 -73l-27 -20q-80 -24 -115 -52q-39 -39 -39 -76q0 -52 83 -85q60 -28 181 -28l105 8l93 18q79 46 79 69l20 27q26 26 55 26q32 -5 55 -35l14 -18q0 -147 -148 -196q-135 -47 -272 -47l-80 3l-68 11q-70 20 -123 43
q-137 98 -137 206q0 64 37 125q44 63 61 72l-17 12l-36 27l-8 11q-40 50 -40 124z" />
    <glyph glyph-name="uni1086" unicode="&#x1086;" 
d="M-519 1775q-42 0 -75 -28t-33 -70q0 -38 33 -68.5t75 -30.5q44 0 72 30.5t28 68.5q0 42 -28 70t-72 28zM-675 1099q24 44 65 109l68 120l48 120h-55q-88 3 -146 60q-57 55 -62 114q-8 25 -8 55q0 97 69 164t177 67q100 0 173.5 -67t73.5 -164q0 -53 -23.5 -134.5
t-90.5 -184.5t-153 -164t-136 -95z" />
    <glyph glyph-name="uni1087" unicode="&#x1087;" horiz-adv-x="585" 
d="M275 150q26 0 44.5 18t18.5 41q0 24 -18.5 41t-44.5 17q-24 0 -40 -17t-16 -41q0 -23 16 -41t40 -18zM150 -253q79 87 117 211l16 68l-6 -2q-4 0 -4 6q-70 0 -125 47q-55 69 -55 138q0 74 59 132t135 58q79 0 136 -58t57 -132q0 -136 -109.5 -282t-220.5 -186z" />
    <glyph glyph-name="uni1088" unicode="&#x1088;" horiz-adv-x="603" 
d="M285 625q-78 0 -135 58t-57 134q0 81 57 136t135 55q79 0 137 -55t58 -136q0 -78 -58 -135t-137 -57zM293 753q24 0 42.5 18t18.5 42q0 22 -18.5 41.5t-42.5 19.5t-43 -19.5t-19 -41.5q0 -24 19 -42t43 -18zM275 150q26 0 44.5 18t18.5 41q0 24 -18.5 41t-44.5 17
q-24 0 -40 -17t-16 -41q0 -23 16 -41t40 -18zM150 -253q79 87 117 211l16 68l-6 -2q-4 0 -4 6q-70 0 -125 47q-55 69 -55 138q0 74 59 132t135 58q79 0 136 -58t57 -132q0 -136 -109.5 -282t-220.5 -186z" />
    <glyph glyph-name="uni1089" unicode="&#x1089;" horiz-adv-x="577" 
d="M140.5 363q57.5 58 134.5 58t136 -57t59 -139q0 -77 -59 -132t-136 -55t-134.5 55t-57.5 132q0 80 57.5 138zM240 182.5q17 -18.5 43 -18.5q24 0 42.5 18.5t18.5 40.5q0 26 -18.5 43t-42.5 17q-26 0 -43 -17t-17 -43q0 -22 17 -40.5z" />
    <glyph glyph-name="uni108A" unicode="&#x108a;" horiz-adv-x="846" 
d="M275 146q22 0 40 16t18 45q0 24 -18 42t-40 18q-26 0 -43 -18t-17 -42q0 -29 17 -45t43 -16zM269 6q-75 0 -133 56.5t-58 133.5q0 79 58 136.5t133 57.5q68 0 127 -47.5t59 -133.5l10 2l-4 -11l63 17q123 34 221 127q-51 -144 -213 -249q-140 -89 -263 -89zM273 755
q26 0 42.5 19t16.5 45q0 22 -16.5 40.5t-42.5 18.5q-24 0 -42 -18.5t-18 -40.5q0 -26 18 -45t42 -19zM267 619q-72 0 -129 57t-57 133q0 79 57 137t129 58q69 0 129 -47t60 -138l8 4l-4 -12l64 16q124 35 221 130q-63 -154 -213 -251q-133 -87 -265 -87z" />
    <glyph glyph-name="uni108B" unicode="&#x108b;" horiz-adv-x="617" 
d="M494 562q0 -84 -60 -145t-143 -61q-82 0 -145 60t-63 146q0 88 63 147.5t145 59.5q83 0 143 -59.5t60 -147.5zM253 518q18 -18 44 -18q25 0 42 18t17 42q0 23 -17 41t-42 18q-26 0 -44 -18t-18 -41q0 -24 18 -42z" />
    <glyph glyph-name="uni108C" unicode="&#x108c;" horiz-adv-x="1166" 
d="M494 546q0 -88 -61 -149t-146 -61q-82 0 -146 61t-64 149q0 87 64 146t146 59q85 0 146 -59t61 -146zM289 609q-26 0 -45 -18.5t-19 -48.5q0 -24 19 -42t45 -18t45.5 18t19.5 42q0 30 -19.5 48.5t-45.5 18.5zM1044 546q0 -88 -62.5 -149t-150.5 -61q-84 0 -147 61
t-63 149q0 87 63 146t147 59q88 0 150.5 -59t62.5 -146zM834 609q-27 0 -44 -18.5t-17 -48.5q0 -24 17 -42t44 -18q26 0 45 18t19 42q0 30 -18 48.5t-46 18.5z" />
    <glyph glyph-name="uni108D" unicode="&#x108d;" 
d="M-1118 -189q0 78 71 78h777q68 0 68 -78q0 -79 -68 -79h-777q-71 0 -71 79z" />
    <glyph glyph-name="uni108E" unicode="&#x108e;" horiz-adv-x="1185" 
d="M819 564q-87 -42 -136 -53t-96 -11q-176 0 -324 143q-31 -68 -31 -149q0 -150 107 -259q109 -112 254 -112q152 0 262 106q106 104 106 254q0 95 -36 170q-53 -64 -106 -89zM1106 483q0 -215 -150 -360q-148 -148 -363 -148q-219 0 -363.5 153t-144.5 366q0 216 153 361
q152 144 363 144q213 0 357 -150q148 -147 148 -366zM838 751q-61 49 -117 74q-61 20 -126 20q-71 0 -131.5 -22t-121.5 -73q110 -104 251 -104q27 0 58 5q29 4 82 22t105 78z" />
    <glyph glyph-name="uni108F" unicode="&#x108f;" horiz-adv-x="574" 
d="M265 615q-77 0 -134.5 58t-57.5 134q0 81 57.5 136t134.5 55t136 -55t59 -136q0 -78 -59 -135t-136 -57zM271 747q24 0 42.5 19t18.5 43q0 22 -18.5 40.5t-42.5 18.5q-26 0 -44 -18.5t-18 -40.5q0 -24 18 -43t44 -19zM328 168q16 18 16 41q0 24 -16 41t-41 17
q-26 0 -44 -17t-18 -41q0 -23 18 -41t44 -18q25 0 41 18zM192 -67q-109 146 -109 282q0 74 57 132t135 58q77 0 136 -58t59 -132q0 -69 -56 -138q-54 -47 -125 -47q0 -6 -4 -6l-6 2l16 -68q39 -124 117 -211q-111 40 -220 186z" />
    <glyph glyph-name="uni1090" unicode="&#x1090;" horiz-adv-x="1364" 
d="M1229 805q0 -172 -44 -320.5t-127 -263.5q-158 -241 -378 -241q-114 0 -211 58.5t-172 182.5q-161 239 -161 584q0 165 43.5 320.5t117.5 268.5q73 108 177.5 178.5t205.5 70.5q220 0 378 -249q83 -121 127 -268.5t44 -320.5zM680 1474q-71 0 -135.5 -56t-115.5 -153
q-49 -91 -77 -210.5t-28 -249.5q0 -133 25 -251.5t101 -248.5v-2q82 -151 230 -151q75 0 136.5 47.5t116.5 140.5q55 99 79 215.5t24 249.5q0 130 -28 248.5t-79 211.5q-51 97 -114.5 153t-134.5 56z" />
    <glyph glyph-name="uni1091" unicode="&#x1091;" horiz-adv-x="902" 
d="M510 -8q-85 0 -85 105v1309l-224 -69q-86 9 -86 110q0 29 43 75h30l320 99q89 -12 89 -79v-1301l81 74h24q27 -14 32 -20t11 -6l2 4l34 -8l-22 -127l-205 -150q-12 -16 -44 -16z" />
    <glyph glyph-name="uni1092" unicode="&#x1092;" horiz-adv-x="1219" 
d="M265 -8q-91 8 -91 64q14 49 24.5 70.5t40.5 63.5q58 77 133 174.5t215 281.5l180 242q150 201 150 312q0 276 -274 276q-89 0 -161.5 -76.5t-72.5 -172.5q0 -68 57 -159q-16 -26 -29 -26q-8 0 -12 -6h-8l-16 -14l-33 -14q-53 10 -91 125l-160 361l-2 20q0 46 37 80
q8 7 20 8t25 9l42 -13l68 -133q138 166 345 166q188 0 320.5 -107.5t132.5 -306.5q0 -149 -162 -377l-469 -623l100 28q55 -6 75.5 -51.5t20.5 -61.5q0 -47 -89 -80z" />
    <glyph glyph-name="uni1093" unicode="&#x1093;" horiz-adv-x="1219" 
d="M168 -14l-28 4q-39 8 -71 36l38 114l593 1342l-144 -70q-92 6 -92 76q0 44 31 56t69 24l265 63q76 -12 88 -59l-263 -592q93 0 180 -171l170 -441q32 -79 49 -132.5t38 -101.5q4 -21 5 -33t3 -18q0 -67 -79 -81q-58 0 -89 58l-136 381q-137 364 -190 364q-14 0 -43 -36
l-321 -721q-24 -62 -73 -62z" />
    <glyph glyph-name="uni1094" unicode="&#x1094;" horiz-adv-x="1229" 
d="M923 -8q-83 0 -102 52l-281 1103h-28l-89 -344l-69 -378l-41 -164v-16l-36 -128l-18 -50q-28 -65 -69 -65l-38 6q-27 24 -27 57q0 12 2 24l243 1344l96 143q34 47 60 55l10 2q32 0 38 -47l19 -84l79 -259q47 -140 64 -217t35 -124q14 -75 34 -150.5t39 -148.5l85 -332
l28 93q57 132 101 132l16 -4q27 -4 45 -29.5t18 -55.5l-2 -27q-16 -46 -37.5 -98.5t-39.5 -101.5l-66 -140q-20 -48 -69 -48z" />
    <glyph glyph-name="uni1095" unicode="&#x1095;" horiz-adv-x="1257" 
d="M611 0q-143 0 -225 42q0 4 -32 25.5t-67 41.5q-86 90 -129 181.5t-43 191.5q0 133 84 281q56 75 173 133q138 68 451 140v601q51 -36 84.5 -65.5t84.5 -57.5v-446q32 8 85.5 20.5t96.5 16.5q34 -39 55.5 -62t33.5 -35t12 -24l-4 -22v-9l-269 -61l2 -163q0 -470 -49 -528
q-28 -80 -144.5 -140.5t-199.5 -60.5zM589 162q52 0 101 20.5t109 104.5v6q35 41 35 203l-7 340q-204 -41 -261 -59l-52 -16q-109 -32 -158 -91q-81 -102 -81 -225q0 -77 30 -126q51 -76 135 -116.5t149 -40.5z" />
    <glyph glyph-name="uni1096" unicode="&#x1096;" horiz-adv-x="1155" 
d="M823 -2v601q-70 20 -146 38.5t-139 38.5l-72 26q-185 63 -267 174q-84 142 -84 279q0 207 172 373q102 58 102 66l97 37q82 6 125 6q102 0 210 -63.5t134 -132.5q49 -85 49 -534l-2 -164l273 -61q10 -16 10 -26q0 -2 -3 -6t-17 -17.5t-35.5 -38t-57.5 -64.5l-180 38v-443
q-87 -58 -169 -127zM827 799l7 342q0 162 -35 202v7q-50 71 -93.5 98.5t-116.5 27.5q-77 0 -186 -60q-118 -97 -124 -171l-4 -53q0 -122 81 -224q51 -61 130 -82q24 -14 341 -87z" />
    <glyph glyph-name="uni1097" unicode="&#x1097;" horiz-adv-x="1235" 
d="M1050 -2h-847q-61 0 -61 64q0 25 544 1002l223 410h-708q-92 0 -92 70q0 79 92 79h843q69 0 81 -47l-14 -48l-43 -126v21l-682 -1259h664q85 -8 87 -81q-12 -73 -87 -85z" />
    <glyph glyph-name="uni1098" unicode="&#x1098;" horiz-adv-x="1208" 
d="M591 955l-160 -188q-73 -91 -109.5 -158t-36.5 -101q0 -146 77 -259q39 -46 97.5 -74.5t133.5 -28.5q65 0 123.5 26.5t102.5 74.5q79 103 79 247q0 40 -41.5 112t-107.5 161zM1078 1631q-62 -69 -149 -191.5t-222 -320.5l267 -348q50 -69 80 -143t30 -152
q0 -217 -141 -344q-138 -134 -350 -134q-219 0 -356 132q-71 63 -102.5 148.5t-31.5 197.5q0 58 40.5 145.5t109.5 193.5q30 45 84 121t137 181l-41 57q-83 111 -160.5 227.5t-175.5 229.5h233l263 -372l263 372h222z" />
    <glyph glyph-name="uni1099" unicode="&#x1099;" horiz-adv-x="1217" 
d="M1097 1145q0 -159 -162 -362l-214 -271q113 -150 181 -248t106 -150t55 -72t32 -44h-223l-269 366q-61 -85 -128.5 -181t-132.5 -185h-229l375 512q-126 158 -205.5 268t-106.5 155v-2q-63 127 -63 214q0 122 33.5 208t98.5 149q70 64 157.5 100.5t200.5 36.5
q214 0 359 -141q135 -128 135 -353zM913 1133q0 150 -82 249q-38 49 -96.5 74.5t-131.5 25.5q-151 0 -229 -100q-79 -97 -79 -261q0 -37 39.5 -100.5t115.5 -154.5l153 -190q93 107 153.5 187t96 133.5t48 86t12.5 50.5z" />
    <glyph glyph-name="uni109A" unicode="&#x109a;" horiz-adv-x="579" 
d="M490 838q0 -87 -60 -144.5t-143 -57.5q-78 0 -141 57.5t-63 144.5q0 83 63 140.5t141 57.5q83 0 143 -57.5t60 -140.5zM248 796.5q17 -17.5 43 -17.5q24 0 42.5 17.5t18.5 43.5q0 24 -18.5 40.5t-42.5 16.5q-26 0 -43 -16.5t-17 -40.5q0 -26 17 -43.5z" />
    <glyph glyph-name="uni109B" unicode="&#x109b;" horiz-adv-x="587" 
d="M265 850q26 0 44.5 18t18.5 41q0 24 -18.5 41t-44.5 17q-24 0 -40 -17t-16 -41q0 -23 16 -41t40 -18zM140 447q79 87 117 211l16 68l-6 -2q-4 0 -4 6q-70 0 -125 47q-55 69 -55 138q0 74 59 132t135 58q79 0 136 -58t57 -132q0 -136 -109.5 -282t-220.5 -186z" />
    <glyph glyph-name="uni109C" unicode="&#x109c;" horiz-adv-x="852" 
d="M283 735q25 0 42 16t17 42q0 24 -17 42.5t-42 18.5q-24 0 -42 -18.5t-18 -42.5q0 -26 18 -42t42 -16zM277 609q-74 0 -130 59t-56 135q0 79 56 135t130 56q140 0 277 -98.5t191 -237.5q-95 89 -213 125l-62 18v-6q0 -4 -2 -4h-2q0 -72 -51 -127q-63 -55 -138 -55z
M283 141q25 0 42 16.5t17 40.5q0 29 -17 45t-42 16q-24 0 -42 -16t-18 -45q0 -24 18 -40.5t42 -16.5zM277 16q-74 0 -130 58.5t-56 138.5q0 78 56 132.5t130 54.5q144 0 281 -103t187 -233q-101 92 -213 124l-62 22v-10q0 -4 -2 -4h-2q0 -71 -51 -126q-63 -54 -138 -54z" />
    <glyph glyph-name="uni109D" unicode="&#x109d;" horiz-adv-x="3" 
d="M-174 1130q2 -8 2 -17q0 -27 -21 -46.5t-50 -19.5q-28 0 -49 19.5t-21 46.5q0 11 4 20q0 359 1 366q1 6 1 8q-5 51 -42 81t-83 30q-55 0 -89 -24q-28 -20 -41 -50q2 -8 2 -16q0 -28 -21 -47.5t-50 -19.5q-28 0 -48 20q-22 19 -22 46h-5q1 53 23 96.5t58.5 74.5t85 49.5
t103.5 18.5q56 0 105.5 -19.5t86.5 -53t53.5 -77.5t16.5 -97v-389z" />
    <glyph glyph-name="uni109E" unicode="&#x109e;" horiz-adv-x="573" 
d="M393 -623q8 -54 31.5 -69t72.5 -15h66l30 -28q8 -13 13.5 -24t13.5 -36l-11 -21q-8 -11 -22 -25l-27 -16h-63q-35 0 -60 4t-48 12t-45 18t-46 37q-22 30 -41 81l-11 118l-4 1371q-8 54 -31 69t-72 15h-66l-30 28q-8 13 -13.5 24t-13.5 36l11 22q8 11 22 24l27 17h63
q35 0 59.5 -4.5t48 -12.5t45 -18t46.5 -37q22 -29 41 -81l11 -118zM348 1223q-64 -56 -147 -56q-76 0 -135 63.5t-59 146.5q0 40 18 76t47 62.5t66.5 41.5t77.5 15q76 0 139 -66q56 -65 56 -144q0 -76 -63 -139zM256 1409q-16 16 -47 22q-51 0 -62 -61q0 -24 17 -40t45 -22
q18 0 46 17q9 11 15 45q0 19 -14 39z" />
    <glyph glyph-name="uni109F" unicode="&#x109f;" horiz-adv-x="1697" 
d="M966 540q-29 133 -114 216q-104 111 -243 111q-138 0 -241 -101t-103 -255q0 -143 101 -240q105 -110 234 -110q55 0 75 11t41 11q74 0 74 -79q0 -54 -57 -73.5t-129 -19.5q-194 0 -347 147q-143 145 -143 353q0 211 148 359.5t347 148.5q196 0 356 -152
q97 -102 135 -275v-2q14 -58 14 -123v-1067q0 -32 22 -68q17 -30 59 -38q44 2 67 38q18 36 18 68v1378q17 193 -98 284q-21 19 -53 22q-14 -1 -29 -2q-167 -4 -277 113q-113 116 -113 271q0 161 113 276q110 115 277 115q157 0 273 -118q104 -105 112 -247h2q0 -8 -1 -16v-3
q-9 -66 -74 -71q-84 4 -86 82q0 5 -1 10q-8 77 -67 134q-65 69 -158 69q-51 0 -91.5 -18t-71.5 -48.5t-49 -73.5t-18 -92q0 -90 69 -159q65 -69 161 -69q22 0 44 3l7 2h2q140 -28 221 -145q74 -136 65 -319v-1378q0 -80 -53 -157q-64 -98 -191 -108q-124 10 -189 108
q-50 77 -40 157v1140z" />
    <glyph glyph-name="uniAA60" unicode="&#xaa60;" horiz-adv-x="2062" 
d="M1537 317q-31 -14 -58.5 -37.5t-49 -55t-28.5 -50.5q45 -39 117 -39q59 0 115 43q54 52 71 103q-18 26 -43 38t-62 12q-31 0 -62 -14zM1816 398q16 54 16 118q0 149 -107 254q-107 108 -260 108q-147 0 -254 -113q-108 -110 -108 -260q0 -194 -113 -341
q-91 -126 -224 -163q-85 -18 -85 67q0 57 53 74q93 34 160 141q63 111 63 233q0 149 -107 254q-108 108 -260 108q-147 0 -254 -113q-108 -110 -108 -260q0 -121 59 -220t165 -144q40 -13 45 -67q0 -75 -94 -71q-139 44 -233 190q-88 146 -88 312q0 212 145 365.5t363 153.5
q153 0 278 -78.5t162 -162.5q35 76 158.5 158.5t276.5 82.5q215 0 363 -148q150 -145 150 -360q0 -218 -147 -366q-145 -150 -358 -150q-60 0 -103 10q-106 18 -180 82q16 42 65 113.5t111.5 125t133 85t139.5 31.5q84 0 141 -27q18 -10 36 -22z" />
    <glyph glyph-name="uniAA61" unicode="&#xaa61;" horiz-adv-x="2098" 
d="M1754 773q-108 107 -260 107q-147 0 -254 -112q-108 -110 -108 -260t104.5 -254.5t265.5 -104.5q150 0 254.5 104.5t104.5 265.5q0 149 -107 254zM991 582q-25 97 -101 173q-111 111 -273 111q-112 0 -223 -72q-103 -75 -130 -172q2 -17 -1 -30.5t1 -22.5
q16 -42 29 -58.5t43 -26.5q43 -19 71 -31t45 -23q119 -84 126 -207q2 -91 -70 -163q-75 -73 -169 -73q-46 0 -87.5 14.5t-76.5 39.5t-53.5 62t-18.5 78q0 82 81 82q82 0 82 -82q0 -22 36 -35q34 -9 59 3q55 34 55 67q-8 66 -143 124q-72 26 -104 62q-29 19 -53 88
q-21 55 -8 130q2 14 2 22v14q39 148 189 262q149 112 318 112q229 0 390 -160q35 -35 63 -73q26 40 61 76q144 153 363 153q215 0 362 -147q151 -145 151 -360q0 -218 -148 -366q-144 -150 -357 -150q-212 0 -365 144q-151 145 -151 361q0 38 5 74z" />
    <glyph glyph-name="uniAA62" unicode="&#xaa62;" horiz-adv-x="1487" 
d="M89 921q0 80 75 80q71 0 71 -80v-625l223 292q35 54 70.5 51t48 -42.5t12.5 -84.5q6 -145 101.5 -253t226.5 -108q133 0 227 109t94 252q0 231 -170 346q-37 24 -37 63q0 30 19 55t53 25q15 0 39 -11q113 -73 177.5 -203t64.5 -275q0 -211 -135 -361.5t-332 -150.5
q-192 0 -328 151q-87 94 -116 212l-251 -328q-25 -39 -58 -33q-72 2 -75 74v845z" />
    <glyph glyph-name="uniAA63" unicode="&#xaa63;" horiz-adv-x="2033" 
d="M671 344q0 -62 15.5 -103.5t48.5 -73.5q68 30 136 120q57 94 57 194q0 120 -52 196q-24 -12 -65.5 -48.5t-73 -82t-49 -98t-17.5 -104.5zM1693 773q-108 107 -260 107q-147 0 -254 -112q-108 -110 -108 -260t104.5 -254.5t265.5 -104.5q150 0 254.5 104.5t104.5 265.5
q0 149 -107 254zM1008 227l-12 -20q-76 -121 -227 -186l-54 3q-25 0 -63 32q-48 51 -77 128q-26 72 -26 155q0 139 78 265t166 169q-15 16 -84 48.5t-138 32.5q-150 0 -263 -106q-92 -84 -108 -200h-4v-1q14 -41 26 -57t40 -26q38 -18 64 -30t42 -22q108 -81 115 -201
q2 -87 -64 -158q-68 -70 -154 -70q-43 0 -81 14t-70 38.5t-49 60t-17 75.5q0 79 74 79q75 0 75 -79q0 -22 34 -34q31 -9 53 3q51 33 51 64q-8 64 -131 120q-66 26 -95 61q-27 18 -49 85q-20 53 -7 126q2 14 2 21.5v13.5h14q35 122 137 219q158 150 365 150q205 0 353 -154
q38 -38 66 -81q32 57 80 108q144 153 363 153q215 0 362 -147q151 -145 151 -360q0 -218 -148 -366q-144 -150 -357 -150q-212 0 -365 144q-39 38 -68 80z" />
    <glyph glyph-name="uniAA64" unicode="&#xaa64;" horiz-adv-x="2074" 
d="M1733 773q-108 107 -260 107q-147 0 -254 -112q-108 -110 -108 -260t104.5 -254.5t265.5 -104.5q150 0 254.5 104.5t104.5 265.5q0 149 -107 254zM1033 250q-32 -50 -76 -99q-137 -151 -356 -151q-107 0 -194 34t-166 108q-76 73 -117.5 158.5t-41.5 204.5q0 162 62 284
q20 36 29 49.5t29 36.5l97 100l43 11q26 0 62 -26l17 -49l-26 -51l-73 -76q-26 -26 -43 -62q-48 -100 -48 -217q0 -125 64.5 -207t159.5 -125q67 -24 146 -24q139 0 249 104.5t110 246.5q0 130 -55 230l-46 66l-57 55l-21 21q-26 38 -12 71q13 26 46 40h54l84 -80
q34 -34 74 -94q7 -12 14 -25q29 47 69 89q144 153 363 153q215 0 362 -147q151 -145 151 -360q0 -218 -148 -366q-144 -150 -357 -150q-212 0 -365 144q-50 48 -83 103z" />
    <glyph glyph-name="uniAA65" unicode="&#xaa65;" horiz-adv-x="2062" 
d="M952 154q-16 -16 -34 -30q-150 -124 -331 -124q-213 0 -358 150q-147 148 -147 366q0 215 150 360q148 148 364 148l56 -3l71 -15q47 -26 47 -71q0 -39 -28.5 -58.5t-71.5 -8.5q-12 4 -31 4l-46 6q-151 0 -258 -108q-107 -105 -107 -254q0 -161 104.5 -265.5
t254.5 -104.5q147 0 257 108q89 84 108 192v100h6q14 223 181 359q152 119 331 119q218 0 363 -153.5t145 -365.5q0 -216 -151 -361q-153 -144 -367 -144l-99 11q-74 16 -74 79q12 47 38 60.5t58 5.5q32 -10 79 -10q160 0 265 104.5t105 254.5t-108 260q-107 113 -254 113
q-152 0 -262 -113q-93 -92 -108 -221h2q1 -12 1 -25v-862q0 -215 -147 -363q-145 -153 -363 -153t-366 147q-150 145 -150 358q0 95 73 95t73 -95q0 -150 104.5 -254.5t265.5 -104.5q149 0 254 107q105 105 105 263v497z" />
    <glyph glyph-name="uniAA66" unicode="&#xaa66;" horiz-adv-x="2062" 
d="M850 770q-108 108 -260 108q-147 0 -254 -113q-108 -110 -108 -260t105 -254.5t265 -104.5q150 0 254.5 104.5t104.5 265.5q0 149 -107 254zM233 144q-151 145 -151 361q0 212 145 365.5t363 153.5q153 0 278 -78.5t162 -162.5q35 76 158.5 158.5t276.5 82.5
q215 0 363 -148q150 -145 150 -360q0 -218 -147 -366q-145 -150 -359 -150l-55 6l-53 5q-68 0 -68 75q0 83 84 70l95 -10q148 0 252.5 104.5t104.5 265.5q0 149 -107 254q-107 108 -260 108q-147 0 -254 -113q-108 -110 -108 -260q0 -227 -173 -380q-150 -125 -332 -125
q-212 0 -365 144zM594 332q-75 0 -128.5 54.5t-53.5 130.5q0 77 53.5 131t128.5 54q76 0 129.5 -54t53.5 -131q0 -76 -53.5 -130.5t-129.5 -54.5zM690 518q0 40 -28 68t-68 28q-41 0 -69 -28t-28 -68q0 -41 28 -69t69 -28q40 0 68 28t28 69z" />
    <glyph glyph-name="uniAA67" unicode="&#xaa67;" horiz-adv-x="2062" 
d="M850 770q-108 108 -260 108q-147 0 -254 -113q-108 -110 -108 -260t105 -254.5t265 -104.5q150 0 254.5 104.5t104.5 265.5q0 149 -107 254zM1725 770q-107 108 -260 108q-147 0 -254 -113q-108 -110 -108 -260t105 -254.5t265 -104.5q150 0 254.5 104.5t104.5 265.5
q0 149 -107 254zM1188.5 941.5q123.5 82.5 276.5 82.5q215 0 363 -148q150 -145 150 -360q0 -218 -147 -366q-145 -150 -358 -150q-152 0 -278.5 76.5t-164.5 161.5q-35 -76 -161 -157t-271 -81q-212 0 -365 144q-151 145 -151 361q0 212 145 365.5t363 153.5
q153 0 278 -78.5t162 -162.5q35 76 158.5 158.5zM594 332q-75 0 -128.5 54.5t-53.5 130.5q0 77 53.5 131t128.5 54q76 0 129.5 -54t53.5 -131q0 -76 -53.5 -130.5t-129.5 -54.5zM690 518q0 40 -28 68t-68 28q-41 0 -69 -28t-28 -68q0 -41 28 -69t69 -28q40 0 68 28t28 69z
" />
    <glyph glyph-name="uniAA68" unicode="&#xaa68;" horiz-adv-x="2062" 
d="M849 770q-107 108 -259 108q-147 0 -255 -113q-107 -110 -107 -260t104.5 -254.5t265.5 -104.5q149 0 254 104.5t105 265.5q0 149 -108 254zM1210 115q40 111 159 221q123 92 255 92q108 0 189 -39q19 58 19 127q0 149 -107 254q-108 108 -260 108q-147 0 -255 -113
q-107 -110 -107 -260q0 -227 -174 -380q-150 -125 -331 -125q-213 0 -366 144q-150 145 -150 361q0 212 144.5 365.5t363.5 153.5q152 0 277 -78.5t163 -162.5q34 76 157.5 158.5t277.5 82.5q215 0 362 -148q151 -145 151 -360q0 -218 -148 -366q-144 -150 -359 -150l-55 6
l-52 5q-41 0 -58 27q-53 25 -96 77zM1539.5 301q-34.5 -12 -65 -32.5t-54.5 -48t-32 -43.5q50 -34 130 -34q66 0 128 37q60 45 79 90q-21 22 -48.5 32.5t-68.5 10.5q-34 0 -68.5 -12zM594 332q-75 0 -128.5 54.5t-53.5 130.5q0 77 53.5 131t128.5 54q76 0 129.5 -54
t53.5 -131q0 -76 -53.5 -130.5t-129.5 -54.5zM690 518q0 40 -28 68t-68 28q-41 0 -69 -28t-28 -68q0 -41 28 -69t69 -28q40 0 68 28t28 69z" />
    <glyph glyph-name="uniAA69" unicode="&#xaa69;" horiz-adv-x="2062" 
d="M690 518q0 40 -28 68t-68 28q-41 0 -69 -28t-28 -68q0 -41 28 -69t69 -28q40 0 68 28t28 69zM594 332q-75 0 -128.5 54.5t-53.5 130.5q0 77 53.5 131t128.5 54q76 0 129.5 -54t53.5 -131q0 -76 -53.5 -130.5t-129.5 -54.5zM850 770q-108 108 -260 108q-147 0 -254 -113
q-108 -110 -108 -260t105 -254.5t265 -104.5q150 0 254.5 104.5t104.5 265.5q0 149 -107 254zM1682 212q24 17 46 39q104 104 104 265q0 149 -107 254q-107 108 -260 108q-147 0 -254 -113q-108 -110 -108 -260v-10q5 2 9 5q56 27 140 27q69 0 139.5 -31.5t133 -85
t111.5 -124.5q29 -43 46 -74zM1465 1024q215 0 363 -148q150 -145 150 -360q0 -218 -147 -366q-145 -150 -358 -150q-152 0 -278.5 76.5t-164.5 161.5q-35 -76 -161 -157t-271 -81q-212 0 -365 144q-151 145 -151 361q0 212 145 365.5t363 153.5q153 0 278 -78.5t162 -162.5
q35 76 158.5 158.5t276.5 82.5zM1328 385q-53 6 -90.5 -2.5t-68.5 -33.5q18 -59 90 -124q76 -55 163 -65q104 -12 175 22q-9 22 -36 59.5t-64 68t-80.5 50.5t-88.5 25z" />
    <glyph glyph-name="uniAA6A" unicode="&#xaa6a;" horiz-adv-x="2062" 
d="M850 770q-108 108 -260 108q-147 0 -254 -113q-108 -110 -108 -260t105 -254.5t265 -104.5q150 0 254.5 104.5t104.5 265.5q0 149 -107 254zM1682 212q24 17 46 39q104 104 104 265q0 149 -107 254q-107 108 -260 108q-147 0 -254 -113q-108 -110 -108 -260v-10q5 2 9 5
q56 27 140 27q69 0 139.5 -31.5t133 -85t111.5 -124.5q29 -43 46 -74zM1465 1024q215 0 363 -148q150 -145 150 -360q0 -218 -147 -366q-145 -150 -358 -150q-152 0 -278.5 76.5t-164.5 161.5q-35 -76 -161 -157t-271 -81q-212 0 -365 144q-151 145 -151 361
q0 212 145 365.5t363 153.5q153 0 278 -78.5t162 -162.5q35 76 158.5 158.5t276.5 82.5zM1328 385q-53 6 -90.5 -2.5t-68.5 -33.5q18 -59 90 -124q76 -55 163 -65q104 -12 175 22q-9 22 -36 59.5t-64 68t-80.5 50.5t-88.5 25z" />
    <glyph glyph-name="uniAA6B" unicode="&#xaa6b;" horiz-adv-x="1441" 
d="M1082 13q-22 -9 -44 -9q-33 0 -57.5 24t-24.5 56q0 40 36 64q202 119 202 349q0 144 -106 253t-259 109q-151 0 -259 -106q-59 -61 -86 -135q62 -10 128 -26q169 -71 210 -214q19 -53 14 -117q-18 -133 -160 -238q-15 -11 -27 -15q-15 -8 -37 -8q-21 0 -45 13
q-120 81 -198 213q-66 133 -67 258q-105 24 -197.5 145t-72.5 305q-2 27 8 46q15 27 48 36t68 -9q34 -19 41 -45q-15 -241 126 -304q40 110 133 201q154 151 373 151q223 0 375 -150.5t152 -362.5q0 -145 -73.5 -278t-200.5 -206zM620 172q39 44 48 95q10 76 -30 126
q-39 54 -163 68h-10q12 -177 155 -289z" />
    <glyph glyph-name="uniAA6C" unicode="&#xaa6c;" horiz-adv-x="2232" 
d="M1181 295q-33 89 -35 192q-10 126 40 215v47q0 33 -21 62.5t-54 29.5q-31 0 -53.5 -29.5t-22.5 -62.5v-52q43 -88 43 -208q0 -90 -43 -186q-47 -116 -125 -189q-11 -13 -41 -34q-130 -91 -288 -91q-254 0 -397 215q-85 126 -85 279q0 269 206 412q137 96 292 96
q72 -3 74 -85q-2 -70 -74 -67q-100 0 -203 -75q-139 -100 -139 -277q0 -110 56 -195q97 -145 267 -145q107 0 197 65q64 43 70 57q30 36 41 65q41 101 41 155q0 86 -41 161q-2 10 -2 32v67q0 98 67 172t160 74q91 0 158.5 -74t67.5 -172v-65q0 -17 -10 -34q-33 -75 -33 -161
q0 -63 27 -138q42 -78 71 -104l52 -39q91 -66 197 -66q171 0 268 150q57 85 57 197q0 191 -143 293q-84 59 -184 59q-88 2 -83 94q16 63 85 60q145 0 272 -85q207 -148 207 -423q0 -157 -83 -283q-145 -216 -396 -216q-156 0 -291 93l-35 33q-90 71 -134 181z" />
    <glyph glyph-name="uniAA6D" unicode="&#xaa6d;" horiz-adv-x="1921" 
d="M743 832q0 31 -19.5 50t-50.5 24q-29 0 -47 -21.5t-18 -52.5q-6 -26 15 -48t50 -22q31 0 50.5 22t19.5 48zM306 -581q73 -80 176 -80q111 0 183 77t72 184v1006q-31 -7 -64 -7q-97 -2 -164 66t-70 165q-1 96 68 165.5t166 74.5q95 1 164 -70q41 -43 56 -93h2
q168 163 378 163q216 0 372 -158t156 -384q0 -221 -153 -376q-159 -157 -368 -157q-82 0 -139 22t-57 77q0 82 78 82q18 0 41 -10.5t85 -10.5q133 0 245 115q107 103 107 258q0 165 -109.5 272t-257.5 107q-147 0 -263 -113q-84 -93 -104 -139v-1048q-8 -182 -127 -302.5
t-297 -123.5q-170 0 -296 122q-105 111 -116 260q1 41 38.5 59t76.5 2.5t45 -61.5q15 -85 76 -144z" />
    <glyph glyph-name="uniAA6E" unicode="&#xaa6e;" horiz-adv-x="2087" 
d="M671 172q8 4 14 4q-38 112 -149 164q-36 15 -82 15q-61 0 -142 -37q49 -65 137 -113q71 -35 136 -43h52q21 2 34 10zM256 465q105 48 204 48q80 0 139 -33q227 -103 258 -321q15 -79 -31 -103q-17 -13 -28 -14q-93 -28 -164 -32h-56q-185 7 -335 149q-118 108 -141 267
l-1 14v16h-2v15q-7 31 -7 51q-3 19 7 35q10 184 150 316q149 143 352 143q208 0 371 -151q100 -100 125.5 -199.5t23.5 -119.5q-14 -170 103 -285q108 -99 251 -99t249.5 100.5t106.5 250.5q0 147 -106.5 248t-243.5 101q-52 0 -70.5 -9.5t-38.5 -9.5q-79 0 -79 81
q0 48 55 69t127 21q208 0 366 -151q147 -143 147 -350q0 -211 -152 -359t-361 -148q-126 0 -240 62.5t-185 168.5q-57 89 -73.5 154t-16.5 89q4 176 -103.5 279.5t-255.5 103.5q-139 0 -243 -100t-104 -250q0 -26 2 -48z" />
    <glyph glyph-name="uniAA6F" unicode="&#xaa6f;" horiz-adv-x="1662" 
d="M1420 506q0 138 -101.5 239.5t-243.5 101.5q-143 0 -240.5 -99t-97.5 -242t99.5 -244t238.5 -101q142 0 243.5 101t101.5 244zM612 680q35 96 113 179q140 142 350 142q203 0 347.5 -144.5t144.5 -350.5q2 -202 -143.5 -349.5t-348.5 -147.5q-197 0 -345 147
q-148 148 -148 350l-335 260v-675q0 -77 -76 -77q-79 0 -79 77v809q-3 14 0 19q0 71 71 82q30 3 58 -20z" />
    <glyph glyph-name="uniAA70" unicode="&#xaa70;" horiz-adv-x="1202" 
d="M584 1282q-173 0 -298 -70q-4 -3 -16 -7q-54 -38 -117 8.5t-20 100.5l22 18q173 111 424 113h17q245 -2 427 -113l23 -18q41 -54 -24.5 -100.5t-113.5 -10.5q-12 6 -21 9q-127 70 -300 70h-3zM584 1602q-173 0 -298 -66q-4 -8 -16 -13q-54 -36 -117 9.5t-20 99.5l22 19
q173 111 424 114h17q245 -3 427 -114l23 -19q41 -54 -24.5 -99.5t-113.5 -11.5q-12 7 -21 15q-127 66 -300 66h-3z" />
    <glyph glyph-name="uniAA71" unicode="&#xaa71;" horiz-adv-x="2062" 
d="M109 329q-27 85 -27 176q0 212 145 365.5t363 153.5q153 0 278 -78.5t162 -162.5q35 76 158.5 158.5t276.5 82.5q215 0 363 -148q150 -145 150 -360q0 -218 -147 -366q-145 -150 -358 -150q-80 0 -130 17.5t-50 74.5q0 22 24 54q23 18 65 10l43 -10h48q150 0 254.5 104.5
t104.5 265.5q0 149 -107 254q-107 108 -260 108q-147 0 -254 -113q-108 -110 -108 -260q0 -194 -113 -341q-91 -126 -224 -163q-85 -18 -85 67q0 57 53 74q93 34 160 141q63 111 63 233q0 149 -107 254q-108 108 -260 108q-147 0 -254 -113q-93 -94 -106 -218q13 -1 25 -3
q61 -10 128 -55q55 -36 93 -96t56 -131t14.5 -148t-15.5 -116q-49 -3 -97 6q-14 -2 -31 -1q-59 19 -110 56q-13 7 -26 16q-108 72 -151 208q-5 23 -7 46zM344 334q-25 14 -46 15t-43 -9q-8 -41 9 -96q22 -50 62 -72q48 -27 93 -17q2 15 -0.5 44t-12 55.5t-25.5 47.5t-37 32z
" />
    <glyph glyph-name="uniAA72" unicode="&#xaa72;" horiz-adv-x="2334" 
d="M298 369q38 -12 79 -28q-20 69 -20 142q0 209 148 360.5t362 151.5t364 -152q34 -35 63 -82q30 48 72 86q148 148 353 148q207 0 357 -148.5t150 -353.5q-2 -210 -151 -356t-356 -146q-212 0 -357 144q-36 35 -62 70q-68 -129 -192 -202q-21 -12 -43 -12q-32 0 -52 24
t-20 58q0 37 32 62q190 116 190 348q0 143 -101.5 251.5t-246.5 108.5q-148 0 -249.5 -107t-101.5 -253q0 -227 184 -348q33 -25 33 -62v-2l-9 -32q-1 -16 -10 -28q-24 -23 -54 -23q-20 -4 -71 -7.5t-132 5.5q-78 7 -149 29q-163 65 -239 161q-81 105 -85 188q161 44 314 5z
M113 281q8 -30 43 -61q63 -58 179 -103q73 -17 141 -17q-9 14 -17 29q0 6 -4 10q-12 17 -28 31q-72 71 -188 102q-70 13 -126 9zM1719 843q-140 0 -244 -104t-104 -246q0 -147 100 -245.5t248 -98.5q145 0 248 101.5t103 242.5q0 142 -103 246t-248 104z" />
    <glyph glyph-name="uniAA73" unicode="&#xaa73;" horiz-adv-x="1592" 
d="M559 224l-318 475v-619q0 -76 -67 -76q-80 0 -80 76v834v3q0 78 80 78v-1q39 4 67 -36l452 -650l4 -6h-2q19 -19 41 -44q101 -108 244 -108q145 0 248 107.5t103 250.5q0 229 -192 346q-33 24 -33 63q0 32 22.5 55t53.5 23q19 0 41 -8q123 -73 194.5 -202.5t71.5 -276.5
q0 -206 -147 -357.5t-362 -151.5q-208 0 -353 151q-38 37 -68 74v0z" />
    <glyph glyph-name="uniAA74" unicode="&#xaa74;" horiz-adv-x="1656" 
d="M870 277q98 110 98 249q0 157 -98 272v-521zM728 -640q0 27 -21 46t-43 21q-32 0 -49.5 -19t-17.5 -48q-2 -22 16.5 -43.5t50.5 -21.5q22 0 43 21.5t21 43.5zM728 30q-61 -15 -124 -15q-211 0 -363 150t-152 361q0 131 73 262.5t187 207.5q22 16 45 16q35 0 56.5 -23.5
t21.5 -57.5q0 -40 -36 -63q-188 -123 -188 -342q0 -147 103.5 -254t252.5 -107q63 0 124 22v744q0 30 22.5 54t53.5 24q21 0 44 -13q125 -68 195.5 -200.5t70.5 -269.5q0 -211 -146 -361q-41 -34 -95 -67v-591l411 -168v1024h-5v408q18 193 -97 284q-22 19 -54 22
q-14 -1 -29 -2q-167 -3 -277 113q-113 116 -113 272q0 161 113 276q110 115 277 115q158 0 274 -118q98 -100 111 -232h2v-25h-2q-10 -61 -73 -66q-76 4 -86 67q-6 84 -67 145q-66 69 -159 69q-51 0 -91.5 -18t-71.5 -49t-49 -73.5t-18 -91.5q0 -91 69 -159q65 -70 161 -70
q22 0 45 4l6 2h2q140 -28 222 -146q64 -136 55 -319v-1548q0 -78 -68 -78q-23 0 -39 6q-10 3 -11 5l-428 183q-6 -76 -62 -133q-66 -61 -157 -63q-93 -2 -158.5 61.5t-67.5 153.5q-2 95 64 158.5t162 65.5q33 0 64 -10v458z" />
    <glyph glyph-name="uniAA75" unicode="&#xaa75;" horiz-adv-x="2500" 
d="M1489 -633q0 23 -18.5 41t-47.5 20q-24 0 -41.5 -17.5t-17.5 -43.5q-4 -30 15.5 -49t43.5 -19q29 0 47.5 19t18.5 49zM2162 361h-9v413q18 196 -99 287q-20 20 -55 23q-13 -1 -28 -2q-169 -3 -281 115q-114 117 -114 275q0 163 114 280q112 116 281 116q159 0 276 -119
q102 -103 114 -241h1v-24h-2q-10 -62 -74 -67q-85 4 -87 83v1q-10 77 -68 135q-67 70 -160 70q-52 0 -93.5 -19t-73 -49.5t-49 -73.5t-17.5 -93q0 -92 69 -161q66 -71 164 -71q22 0 45 4l6 2h2q141 -29 214 -147q86 -139 66 -324v-1551q0 -76 -64 -78h-12q-15 0 -33 8
l-551 200q-5 -85 -63 -143q-64 -65 -160 -67q-86 -2 -149 62.5t-65 159.5q-3 92 61 154.5t153 64.5q33 1 68 -5v417q-74 0 -128 20.5t-54 70.5q0 82 73 82q21 0 45 -8t37 -9t30 -1q133 0 236 104t103 249q0 144 -102 248t-240 104q-142 0 -248 -105q-86 -86 -101 -228v-29
q0 -326 -234 -476q-27 -10 -43 -10q-36 0 -56.5 25t-20.5 54q0 36 36 64q154 96 164 317q-1 19 0 46q-6 137 -106 239.5t-242 102.5q-109 0 -211.5 -71.5t-127.5 -158.5q-3 -17 -2.5 -42t27.5 -64q18 -21 43 -33q95 -34 118 -51q108 -79 111 -195q8 -128 -130 -204
q-37 -22 -99 -22q-88 0 -159 50t-71 125t76 75q81 0 81 -75q0 -26 38 -30q31 -3 62 13q51 28 51 55q-4 70 -129 119q-72 28 -94 65q-51 25 -67 128q-10 69 2 108q37 139 177.5 250.5t303.5 111.5q276 0 428 -243q29 50 68 91q151 152 355 152q197 0 346.5 -147.5
t149.5 -357.5t-147 -354q-88 -91 -204 -129v-508l528 -191v1038z" />
    <glyph glyph-name="uniAA76" unicode="&#xaa76;" horiz-adv-x="2477" 
d="M1448 -637q0 25 -17.5 44t-46.5 21q-22 0 -42 -19.5t-20 -45.5q0 -28 20 -48t42 -20q29 0 46.5 20t17.5 48zM1095 -529q0 -148 -49 -223q-75 -106 -208 -106h-507q-90 0 -154 76.5t-64 187.5q0 94 49 176q79 148 269 148q141 0 253 -95q30 -20 30 -55q0 -32 -24.5 -56
t-59.5 -24q-25 0 -47 21q-67 54 -154 54q-88 0 -126 -63t-38 -123q0 -87 66 -87h507q61 0 86.5 36.5t25.5 132.5v1044q0 141 -101 240t-246 99q-73 0 -172.5 -47t-126.5 -109q-23 -48 -66 -48q-32 0 -59.5 24t-27.5 59q0 21 10 35q5 12 8 16l39 50q152 176 395 176
q216 0 353 -133q49 -43 77 -93q28 36 63 72q151 154 352 154q203 0 352 -147t149 -360q0 -210 -143 -352q-95 -92 -209 -131v-498l525 -193v1137h3v314q18 193 -98 285q-21 19 -54 22q-15 -1 -28 -2q-169 -4 -279 114q-113 116 -113 272q0 162 113 278q110 115 279 115
q158 0 274 -118q109 -112 114 -263h-7q-10 -61 -73 -67q-85 5 -87 83q0 4 4 8q-10 72 -66 127q-66 69 -159 69q-52 0 -93 -18t-72 -49t-48.5 -73.5t-17.5 -92.5q0 -91 69 -160q65 -70 162 -70q22 0 44 4l7 2h2q139 -28 222 -146q74 -137 55 -320v-410h2v-1148q0 -80 -76 -80
h-10q-18 0 -37 10l-547 202q-5 -87 -65 -147q-65 -65 -158 -67q-88 -2 -150.5 62.5t-64.5 158.5q0 91 63.5 155t151.5 66q36 3 64 -7v419q-74 0 -126 21t-52 67q0 84 74 84q22 0 44 -6.5t36.5 -7.5t32.5 -1q130 0 233 103.5t103 248.5q0 144 -103 247.5t-242 103.5
q-138 0 -245 -108q-90 -84 -108 -225v-1050z" />
    <glyph glyph-name="uniAA77" unicode="&#xaa77;" horiz-adv-x="1237" 
d="M779 -136q-91 -177 -108 -511q-1 -18 -2 -37l-1 -27h152q78 0 78 -84q1 -72 -78 -72h-231q-75 0 -75 76v80q1 24 2 47h1l2 28h1q23 390 137 577q165 269 247 443q31 77 36 154q-8 138 -107 238q-103 105 -252 105q-108 0 -209.5 -67t-123.5 -159q2 -20 0 -32t0 -23
q19 -39 29.5 -55.5t37.5 -24.5q80 -33 110 -50q114 -81 118 -197q4 -85 -66.5 -154t-155.5 -69t-153.5 54.5t-68.5 128.5q0 84 79 84q72 0 72 -84q0 -23 36 -28q29 -14 54 3q53 25 53 58q-8 63 -133 118q-67 24 -97 59q-32 20 -55 83q-18 52 -3 122q2 24 2 36
q38 140 178 246q96 73 201 96q-91 31 -167 106q-134 134 -134 315q0 174 128 308q123 132 312 132q138 0 250.5 -77t172.5 -215l10 -35q0 -76 -78 -76q-53 0 -67 46q-12 44 -39 82t-65 66.5t-85 44.5t-99 16q-120 0 -206 -87q-86 -80 -86 -205q0 -126 84 -210
q80 -85 207 -85l75 8q34 0 59 -17q29 -15 29 -59q0 -48 -56 -69q118 -36 212 -131q141 -146 151 -338v-12q-4 -105 -45 -212q-69 -149 -174 -310l224 -469l26 -48q8 -13 32 -18q38 -18 83 6l99 51l42 12q34 0 58 -38q12 -26 2 -68l-37 -38l-107 -55q-48 -25 -104 -35
q-39 -10 -99 14q-35 19 -76 62l-54 88z" />
    <glyph glyph-name="uniAA78" unicode="&#xaa78;" horiz-adv-x="1743" 
d="M385 64q7 106 117 218q112 100 274 98q167 0 284 -97v-1q35 238 90 461q73 295 202 541q121 203 259.5 220t236.5 -51q98 -77 67.5 -129t-105.5 -15q-54 44 -139.5 59t-173.5 -129q-126 -240 -201 -539t-113 -630q-2 -11 -13 -23q-2 -5 -4 -11q-28 -26 -61 -20h-4
q-75 -4 -82 48q-14 68 -76 117q-67 56 -167 56q-103 -5 -166 -63q-68 -67 -76 -110q-7 -56 -76 -52t-73 52zM514 949q7 -49 70 -113q69 -57 171 -59q100 -2 167 52q63 50 72 120q11 50 85 44.5t75 -44.5q-12 -131 -115 -224q-117 -98 -284 -100q-165 0 -274 104
q-109 108 -118 220q5 42 73 47t78 -47zM169 877q111 -11 225 -118q106 -103 102 -263q-1 -166 -100 -276q-92 -104 -227 -115q-43 5 -46 75.5t46 78.5q73 14 124 69q56 68 53 168q-4 95 -64 165q-67 60 -113 68q-55 11 -50.5 76.5t50.5 71.5z" />
    <glyph glyph-name="uniAA79" unicode="&#xaa79;" horiz-adv-x="1202" 
d="M520 -640q23 384 137 569q165 265 247 436q31 76 36 152q-8 135 -107 234q-103 103 -252 103q-108 0 -209.5 -66t-123.5 -156q2 -20 0 -32t0 -22q19 -39 29.5 -55t37.5 -24q80 -33 110 -49q114 -80 118 -194q4 -84 -66.5 -152t-155.5 -68t-153.5 53.5t-68.5 126.5
q0 83 79 83q72 0 72 -83q0 -22 36 -27q29 -14 54 3q53 24 53 57q-8 62 -133 116q-67 24 -97 58q-32 20 -55 82q-18 51 -3 120q2 24 2 35q38 138 177.5 242.5t296.5 104.5q213 0 362 -150q141 -143 151 -333v-11q-4 -104 -45 -209q-90 -192 -243 -405q-116 -174 -135 -549
q-1 -18 -2 -37l-1 -26h152q78 0 78 -83q1 -71 -78 -71h-231q-75 0 -75 75v79l2 46h1q1 14 2 27h1z" />
    <glyph glyph-name="uniAA7A" unicode="&#xaa7a;" horiz-adv-x="2400" 
d="M1321 2027q0 26 25 56q25 16 60 20q62 0 74 -74v-38q-9 -100 -51 -182q-83 -83 -233 -86v-2h-825q-66 0 -98.5 -38.5t-32.5 -84.5v-2164q0 -46 35 -89q30 -29 51.5 -37t60.5 -8h731q25 0 48.5 13.5t43 34.5t29.5 44.5t10 41.5v9l-2 19v687q-14 -13 -29 -25
q-150 -124 -331 -124q-213 0 -358 150q-147 148 -147 366q0 215 150 360q148 148 364 148l56 -3l71 -15q47 -26 47 -71q0 -39 -28.5 -58.5t-71.5 -8.5q-12 4 -31 4l-46 6q-151 0 -258 -108q-107 -105 -107 -254q0 -161 104.5 -265.5t254.5 -104.5q147 0 257 108
q113 107 113 251q0 252 182 400q152 119 331 119q218 0 363 -153.5t145 -365.5q0 -216 -151 -361q-153 -144 -367 -144l-99 11q-74 16 -74 79q12 47 38 60.5t58 5.5q32 -10 79 -10q160 0 265 104.5t105 254.5t-108 260q-107 113 -254 113q-152 0 -262 -113
q-111 -110 -111 -271q0 -70 -17 -132q4 -4 8 -9q16 -32 8 -63v-834q0 -67 -12 -127.5t-54 -99.5q-77 -86 -189 -95l-365 1v1h-395q-124 0 -215 91q-53 59 -65.5 113.5t-12.5 115.5l-6 2158q0 104 73 196q73 63 177 73l32 -3h796v2h7l32 -2q30 0 48 9q24 6 36 20l26 42l12 57
v19z" />
    <glyph glyph-name="uniAA7B" unicode="&#xaa7b;" horiz-adv-x="558" 
d="M328 168q16 18 16 41q0 24 -16 41t-41 17q-26 0 -44 -17t-18 -41q0 -23 18 -41t44 -18q25 0 41 18zM192 -67q-109 146 -109 282q0 74 57 132t135 58q77 0 136 -58t59 -132q0 -69 -56 -138q-54 -47 -125 -47q0 -6 -4 -6l-6 2l16 -68q39 -124 117 -211q-111 40 -220 186z
" />
    <glyph glyph-name="uniAA7C" unicode="&#xaa7c;" horiz-adv-x="10" 
d="M-1129 1257q0 78 71 78h777q68 0 68 -78q0 -79 -68 -79h-777q-71 0 -71 79z" />
    <glyph glyph-name="uniAA7D" unicode="&#xaa7d;" horiz-adv-x="1085" 
d="M90 553q0 79 70 79h777q69 0 69 -79q0 -78 -69 -78h-777q-70 0 -70 78z" />
    <glyph glyph-name="uniAA7E" unicode="&#xaa7e;" horiz-adv-x="1428" 
d="M904 147q-150 -147 -365 -147q-153 0 -274 75.5t-186 226.5l3 54q0 25 32 63q51 48 128 77q72 26 155 26q139 0 265 -78t169 -166q16 15 48.5 84t32.5 138q0 150 -106 263q-102 112 -251 112q-97 0 -181 -50t-143 -149l-21 -20q-37 -25 -77 -12t-40 64l4 35l9 9
q63 124 184 196.5t265 72.5q205 0 353 -156q150 -158 150 -365q0 -205 -154 -353zM604.5 333.5q-45.5 31.5 -98 49t-104.5 17.5q-62 0 -103.5 -15.5t-73.5 -48.5q30 -68 120 -136q94 -57 194 -57q120 0 196 52q-12 24 -48.5 65.5t-82 73zM728 -268l-2 75h-2v43q25 65 81 65
q64 0 76 -68v-1h5v-356l304 -181v1649q15 65 71 65q64 0 77 -68v-1694q-27 -75 -40 -89l-19 -8q-40 -25 -83 -25l-40 3l-175 106l-110 67l-1 -5q-19 -57 -53 -91q-46 -49 -87 -58q-46 -17 -102 -17h-124l-52 17q-28 32 -28 62q5 44 37 60l44 9h116q52 0 80 33q20 16 21 31
l3 55v321h3z" />
    <glyph glyph-name="uniAA7F" unicode="&#xaa7f;" horiz-adv-x="2324" 
d="M1682 770q-107 108 -260 108q-147 0 -254 -113q-108 -110 -108 -260t105 -254.5t265 -104.5q150 0 254.5 104.5t104.5 265.5q0 149 -107 254zM686.5 260.5q-36.5 41.5 -82 73t-98 49t-104.5 17.5q-62 0 -103.5 -15.5t-73.5 -48.5q30 -68 120 -136q94 -57 194 -57
q120 0 196 52q-12 24 -48.5 65.5zM822.5 79.5q-130.5 -79.5 -283.5 -79.5t-274 75.5t-186 226.5l3 54q0 25 32 63q51 48 128 77q72 26 155 26q139 0 265 -78t169 -166q16 15 48.5 84t32.5 138q0 150 -106 263q-102 112 -251 112q-97 0 -181 -50t-143 -149l-21 -20
q-37 -25 -77 -12t-40 64l4 35l9 9q63 124 184 196.5t265 72.5q148 0 270 -82q114 -74 158 -162q36 79 161 163t278 84q215 0 363 -148q150 -145 150 -360q0 -218 -147 -366q-145 -150 -358 -150q-152 0 -278.5 75.5t-164.5 162.5q-34 -79 -164.5 -158.5zM1578 -268l-2 75h-2
v43q25 65 81 65q64 0 76 -68v-1h5v-356l304 -181v1649q15 65 71 65q64 0 77 -68v-1694q-27 -75 -40 -89l-19 -8q-40 -25 -83 -25l-40 3l-175 106l-110 67l-1 -5q-19 -57 -53 -91q-46 -49 -87 -58q-46 -17 -102 -17h-124l-52 17q-28 32 -28 62q5 44 37 60l44 9h116
q52 0 80 33q20 16 21 31l3 55v321h3z" />
    <glyph glyph-name="uniA9E0" unicode="&#xa9e0;" horiz-adv-x="1147" 
d="M248 707q39 -30 89 -30q75 0 130 55.5t55 141.5v4q-80 0 -162 -53.5t-112 -117.5zM622 154q112 17 202 115.5t90 232.5q0 133 -88 241q-90 107 -185 124q0 -109 -93 -212q-100 -99 -219 -99q-117 0 -205 97q-29 16 -29 57l10 38q69 134 189 202q116 74 263 74
q211 0 358 -157q145 -152 145 -365t-153.5 -357.5t-365.5 -144.5q-153 0 -275 83.5t-184 219.5v36q16 41 38 52q77 77 193 77q124 0 215 -91q94 -94 94 -225v2zM235 327q42 -74 118 -127.5t147 -53.5v6q0 86 -56 140t-128 54q-57 0 -81 -19z" />
    <glyph glyph-name="uniA9E1" unicode="&#xa9e1;" horiz-adv-x="2039" 
d="M735 826q-76 52 -196 52q-100 0 -194 -57q-90 -68 -120 -136q32 -33 73.5 -48.5t103.5 -15.5q52 0 104.5 17.5t98 49t82 73t48.5 65.5zM979 247q-30 -47 -71 -91q-148 -156 -353 -156q-144 0 -265 72.5t-184 196.5l-9 9l-4 35q0 51 40 64t77 -12l21 -20q59 -99 143 -149
t181 -50q149 0 251 112q106 113 106 263q0 69 -32.5 138t-48.5 84q-43 -88 -169 -166t-265 -78q-83 0 -155 26q-77 29 -128 77q-32 38 -32 63l-3 54q65 151 186 226.5t274 75.5q215 0 365 -147q154 -148 154 -353q0 -49 -8 -94q60 -117 158 -191q101 -77 237 -87
q153 0 260 107q108 105 108 254q0 161 -105 265.5t-255 104.5q-67 0 -148 -29q-47 0 -69 26t-22 52q0 58 63 70q75 27 176 27q213 0 358 -150q147 -148 147 -366q0 -215 -153 -360q-147 -147 -362 -147q-184 0 -334 113q-78 59 -130 131z" />
    <glyph glyph-name="uniA9E2" unicode="&#xa9e2;" horiz-adv-x="2045" 
d="M1212 898q-8 16 -8 31q0 58 63 70q75 27 176 27q213 0 358 -150q147 -148 147 -366q0 -215 -153 -360q-147 -147 -362 -147q-184 0 -334 113q-72 55 -121 119q-30 -43 -71 -82q-156 -150 -365 -150q-153 0 -274 76.5t-186 226.5v35q0 33 56 61l55 -11l26 -26
q36 -92 129 -160q86 -56 194 -56q160 0 265 104q62 61 88 137v33l16 31q3 25 3 51q0 150 -105 263q-102 112 -251 112q-97 0 -181 -50t-144 -149l-20 -20q-38 -25 -77.5 -11.5t-39.5 63.5l4 35l9 10q63 123 183.5 195.5t265.5 72.5q205 0 353 -156q149 -158 149 -365
q0 -51 -9 -98q58 -104 147 -171q101 -77 237 -87q153 0 260 107q108 105 108 254q0 30 -4 58q-74 -32 -169 -32q-135 0 -262 104q-122 126 -161 252q2 3 5 6zM1481 890q-51 0 -85.5 -14.5t-60.5 -45.5q24 -64 98 -128q77 -52 160 -52q99 0 161 48q-10 23 -39.5 61.5
t-67.5 67.5t-81 46t-85 17z" />
    <glyph glyph-name="uniA9E3" unicode="&#xa9e3;" horiz-adv-x="1987" 
d="M248 707q39 -30 89 -30q75 0 130 55.5t55 141.5v4q-80 0 -162 -53.5t-112 -117.5zM235 327q42 -74 118 -127.5t147 -53.5v6q0 86 -56 140t-128 54q-57 0 -81 -19zM1431 143q104 0 192.5 58.5t121.5 133.5q-24 23 -76 45l-50 15l-53 5q-103 0 -197 -60t-134 -145
q75 -52 196 -52zM985 238q-32 -50 -78 -93q-154 -145 -366 -145q-153 0 -275 83.5t-184 219.5v36q16 41 38 52q77 77 193 77q124 0 215 -91q94 -94 94 -225v2q112 17 202 116q79 86 89 201q-1 14 -1 29q0 16 1 32q-9 115 -87 211q-90 107 -185 124q0 -109 -93 -212
q-100 -99 -219 -99q-117 0 -205 97q-29 16 -29 57l10 38q69 134 189 202q116 74 263 74q211 0 358 -157q42 -44 72 -93q29 48 70 91q147 156 358 156q147 0 263 -74q120 -68 189 -201l10 -39q0 -37 -40 -63q-39 -13 -74 9l-25 24q-46 96 -133 146q-83 52 -190 52
q-139 0 -249 -110q-97 -96 -107 -232q1 -15 1 -31q0 -17 -1 -34q4 -58 23 -101q23 -56 57 -90q43 84 173 163q133 82 264 82q154 0 278 -101q17 -17 31 -59q0 -35 7 -57q-64 -140 -186 -222.5t-275 -82.5q-209 0 -365 141q-48 45 -81 97z" />
    <glyph glyph-name="uniA9E4" unicode="&#xa9e4;" horiz-adv-x="2039" 
d="M1302 195q76 -52 196 -52q100 0 194 57q90 68 120 136q-32 33 -73.5 48.5t-103.5 15.5q-52 0 -104.5 -17.5t-98 -49t-82 -73t-48.5 -65.5zM985 422q-6 38 -6 78q0 207 150 365q148 156 353 156q144 0 265 -72.5t184 -196.5l9 -9l4 -35q0 -51 -40 -64t-77 12l-21 20
q-59 99 -143 149t-181 50q-149 0 -251 -112q-106 -113 -106 -263q0 -69 32.5 -138t48.5 -84q43 88 169 166t265 78q83 0 155 -26q77 -29 128 -77q32 -38 32 -63l3 -54q-65 -151 -186 -226.5t-274 -75.5q-215 0 -365 147q-47 45 -79 95q-51 -69 -126 -126
q-150 -113 -334 -113q-215 0 -362 147q-153 145 -153 360q0 218 147 366q145 150 358 150q101 0 176 -27q63 -12 63 -70q0 -26 -22 -52t-69 -26q-81 29 -148 29q-150 0 -255 -104.5t-105 -265.5q0 -149 108 -254q107 -107 260 -107q136 10 237 87q96 72 156 186z" />
    <glyph glyph-name="uniA9E5" unicode="&#xa9e5;" horiz-adv-x="2" 
d="M-1089 1235q79 80 176 118q-92 110 -92 259q0 168 118 287.5t289 119.5q165 0 284.5 -119.5t119.5 -287.5h-179q0 93 -66 162t-162 69q-99 0 -166 -69t-67 -162q0 -95 68 -164q47 -49 109 -63q18 -2 36 -5q10 -1 20 -1v-4q138 -32 244 -140q76 -74 115 -164l-203 1
q-16 22 -36 42q-76 78 -173 96q-13 2 -27 5q-20 2 -40 2q-147 0 -245 -103q-21 -19 -37 -40l-197 1q38 88 111 160z" />
    <glyph glyph-name="uniA9E6" unicode="&#xa9e6;" horiz-adv-x="2" 
d="M-1043 1266q7 36 43 52l639 329q27 10 47 5q25 -8 39.5 -40.5t8.5 -59.5q-6 -44 -38 -56l-635 -329q-34 -7 -51 -3q-28 7 -43 40.5t-10 61.5zM-1144 1517q6 35 45 52l638 328q27 10 48 5q20 -7 37 -39t11 -59q-7 -44 -37 -55l-639 -329q-33 -12 -51 -5q-24 7 -39.5 39
t-12.5 63z" />
    <glyph glyph-name="uniA9E7" unicode="&#xa9e7;" horiz-adv-x="2110" 
d="M977 -603h-2q1 1072 1 1088q0 146 -105 251q-104 105 -257 105q-105 0 -209 -68q-97 -70 -123 -162q2 -16 -0.5 -28.5t0.5 -20.5q15 -40 27.5 -55.5t40.5 -24.5q40 -18 66.5 -29.5t42.5 -21.5q112 -79 119 -195q1 -85 -66 -153q-71 -69 -159 -69q-43 0 -82 14t-72 37.5
t-50.5 58t-17.5 73.5q0 77 76 77q77 0 77 -77q0 -21 34 -33q32 -9 56 3q51 32 51 63q-7 62 -134 116q-68 25 -98 59q-27 17 -50 82q-20 52 -7 123q2 13 2 20.5v12.5q36 140 177 247q140 105 299 105q216 0 367 -150q28 -30 50 -62q52 71 129 130q150 113 334 113
q215 0 362 -147q153 -145 153 -360q0 -218 -147 -366q-145 -150 -358 -150q-101 0 -176 27q-63 12 -63 70q0 26 22 52t69 26q81 -29 148 -29q150 0 255 104.5t105 265.5q0 149 -108 254q-107 107 -260 107q-136 -10 -237 -86q-92 -71 -151 -179q15 -62 15 -130
q0 -16 -1 -1027h9v-110q0 -21 26.5 -46.5t66.5 -25.5h69l33 -17q21 -23 33 -51q0 -47 -38 -70l-30 -11h-67q-94 0 -162 61q-66 54 -85 149v60z" />
    <glyph glyph-name="uniA9E8" unicode="&#xa9e8;" horiz-adv-x="2062" 
d="M1210 254q108 -108 260 -108q147 0 254 113q108 110 108 260t-105 254.5t-265 104.5q-150 0 -254.5 -104.5t-104.5 -265.5q0 -149 107 -254zM952 559v808q0 215 145 365q145 153 363 153q215 0 363 -147q150 -145 150 -361q0 -75 -70 -75q-76 0 -76 75q0 150 -107 255
q-108 107 -260 107q-150 0 -257.5 -107t-107.5 -263l2 -502q16 17 33 32q150 125 332 125q212 0 365 -144q151 -145 151 -361q0 -212 -145 -365.5t-363 -153.5q-153 0 -278 79q-52 32 -89 66v-488q0 -215 -147 -363q-145 -153 -363 -153t-366 147q-150 145 -150 358
q0 95 73 95t73 -95q0 -150 104.5 -254.5t265.5 -104.5q149 0 254 107q105 105 105 263v487q-34 -30 -80 -61q-124 -83 -277 -83q-215 0 -363 148q-150 145 -150 360q0 218 147 366q145 150 359 150l55 -6l53 -5q68 0 68 -75q0 -83 -84 -70l-95 10q-148 0 -252.5 -104.5
t-104.5 -265.5q0 -149 107 -254q107 -108 260 -108q147 0 254 113q85 86 103 197v71q0 16 -1 32h1z" />
    <glyph glyph-name="uniA9E9" unicode="&#xa9e9;" horiz-adv-x="2062" 
d="M681 68q0 57 53 74q93 34 160 141q63 111 63 233q0 149 -107 254q-108 108 -260 108q-147 0 -254 -113q-108 -110 -108 -260q0 -121 59 -220t165 -144q40 -13 45 -67q0 -75 -94 -71q-139 44 -233 190q-88 146 -88 312q0 212 145 365.5t363 153.5q153 0 278 -78.5
t162 -162.5q35 76 158.5 158.5t276.5 82.5q215 0 363 -148q150 -145 150 -360q0 -218 -147 -366q-145 -150 -358 -150q-80 0 -130 17.5t-50 74.5q0 22 24 54q23 18 65 10l43 -10h48q150 0 254.5 104.5t104.5 265.5q0 149 -107 254q-107 108 -260 108q-147 0 -254 -113
q-108 -110 -108 -260q0 -194 -113 -341q-91 -126 -224 -163q-85 -18 -85 67zM1580 518q0 40 -28 68t-68 28q-41 0 -69 -28t-28 -68q0 -41 28 -69t69 -28q40 0 68 28t28 69zM1484 332q-75 0 -128.5 54.5t-53.5 130.5q0 77 53.5 131t128.5 54q76 0 129.5 -54t53.5 -131
q0 -76 -53.5 -130.5t-129.5 -54.5z" />
    <glyph glyph-name="uniA9EA" unicode="&#xa9ea;" horiz-adv-x="2062" 
d="M957 505q0 252 182 400q152 119 331 119q218 0 363 -153.5t145 -365.5q0 -216 -151 -361q-153 -144 -367 -144l-99 11q-74 16 -74 79q12 47 38 60.5t58 5.5q32 -10 79 -10q160 0 265 104.5t105 254.5t-108 260q-107 113 -254 113q-152 0 -262 -113q-111 -110 -111 -271
q0 -225 -179 -370q-150 -124 -331 -124q-213 0 -358 150q-147 148 -147 366q0 215 150 360q148 148 364 148l56 -3l71 -15q47 -26 47 -71q0 -39 -28.5 -58.5t-71.5 -8.5q-12 4 -31 4l-46 6q-151 0 -258 -108q-107 -105 -107 -254q0 -161 104.5 -265.5t254.5 -104.5
q147 0 257 108q113 107 113 251zM1580 518q0 40 -28 68t-68 28q-41 0 -69 -28t-28 -68q0 -41 28 -69t69 -28q40 0 68 28t28 69zM1484 332q-75 0 -128.5 54.5t-53.5 130.5q0 77 53.5 131t128.5 54q76 0 129.5 -54t53.5 -131q0 -76 -53.5 -130.5t-129.5 -54.5z" />
    <glyph glyph-name="uniA9EB" unicode="&#xa9eb;" horiz-adv-x="2062" 
d="M1103 516q0 -161 105 -265.5t254 -104.5q161 0 265.5 104.5t104.5 254.5t-107 260q-108 113 -255 113q-152 0 -259 -108q-108 -105 -108 -254zM1462 0q-181 0 -331 125q-174 153 -174 380q0 150 -107 260q-108 113 -255 113q-152 0 -260 -108q-107 -105 -107 -254
q0 -161 105 -265.5t253 -104.5l94 10q85 13 85 -70q0 -75 -69 -75l-52 -5l-55 -6q-215 0 -359 150q-148 148 -148 366q0 215 151 360q147 148 362 148q154 0 277.5 -82.5t157.5 -158.5q38 84 163 162.5t277 78.5q219 0 363.5 -153.5t144.5 -365.5q0 -216 -150 -361
q-153 -144 -366 -144zM1580 518q0 40 -28 68t-68 28q-41 0 -69 -28t-28 -68q0 -41 28 -69t69 -28q40 0 68 28t28 69zM1484 332q-75 0 -128.5 54.5t-53.5 130.5q0 77 53.5 131t128.5 54q76 0 129.5 -54t53.5 -131q0 -76 -53.5 -130.5t-129.5 -54.5z" />
    <glyph glyph-name="uniA9EC" unicode="&#xa9ec;" horiz-adv-x="2192" 
d="M1161 307q-32 88 -34 189q-9 124 40 212v45q0 33 -21 62t-53 29q-31 0 -53 -29t-22 -62v-51q42 -86 42 -204q0 -88 -42 -182q-46 -114 -123 -186q-10 -13 -40 -34q-128 -89 -282 -89q-250 0 -391 211q-83 124 -83 275q0 264 202 404q134 94 287 94q71 -2 73 -83
q-2 -70 -73 -66q-98 0 -199 -74q-137 -98 -137 -272q0 -108 56 -192q94 -141 262 -141q105 0 193 63q63 42 68 56q30 35 41 64q40 99 40 152q0 85 -40 158q-2 10 -2 31v66q0 96 66 169t157 73q90 0 156 -73t66 -169v-64q0 -17 -10 -33q-33 -73 -33 -158q0 -62 27 -135
q41 -77 70 -103l51 -38q90 -65 194 -65q167 0 263 147q55 84 55 194q0 187 -140 288q-82 58 -180 58q-87 2 -82 92q16 62 84 59q142 0 266 -83q203 -146 203 -416q0 -154 -81 -278q-142 -212 -388 -212q-153 0 -286 92l-35 32q-88 70 -132 177zM1701 518q0 40 -28 68t-68 28
q-41 0 -69 -28t-28 -68q0 -41 28 -69t69 -28q40 0 68 28t28 69zM1605 332q-75 0 -128.5 54.5t-53.5 130.5q0 77 53.5 131t128.5 54q76 0 129.5 -54t53.5 -131q0 -76 -53.5 -130.5t-129.5 -54.5z" />
    <glyph glyph-name="uniA9ED" unicode="&#xa9ed;" horiz-adv-x="2062" 
d="M850 770q-108 108 -260 108q-147 0 -254 -113q-108 -110 -108 -260t105 -254.5t265 -104.5q150 0 254.5 104.5t104.5 265.5q0 149 -107 254zM233 144q-151 145 -151 361q0 212 145 365.5t363 153.5q153 0 278 -78.5t162 -162.5q35 76 158.5 158.5t276.5 82.5
q215 0 363 -148q150 -145 150 -360q0 -218 -147 -366q-145 -150 -359 -150l-55 6l-53 5q-68 0 -68 75q0 83 84 70l95 -10q148 0 252.5 104.5t104.5 265.5q0 149 -107 254q-107 108 -260 108q-147 0 -254 -113q-108 -110 -108 -260q0 -227 -173 -380q-150 -125 -332 -125
q-212 0 -365 144zM594 332q-75 0 -128.5 54.5t-53.5 130.5q0 77 53.5 131t128.5 54q76 0 129.5 -54t53.5 -131q0 -76 -53.5 -130.5t-129.5 -54.5zM690 518q0 40 -28 68t-68 28q-41 0 -69 -28t-28 -68q0 -41 28 -69t69 -28q40 0 68 28t28 69zM1580 518q0 40 -28 68t-68 28
q-41 0 -69 -28t-28 -68q0 -41 28 -69t69 -28q40 0 68 28t28 69zM1484 332q-75 0 -128.5 54.5t-53.5 130.5q0 77 53.5 131t128.5 54q76 0 129.5 -54t53.5 -131q0 -76 -53.5 -130.5t-129.5 -54.5z" />
    <glyph glyph-name="uniA9EE" unicode="&#xa9ee;" horiz-adv-x="2062" 
d="M850 770q-108 108 -260 108q-147 0 -254 -113q-108 -110 -108 -260t105 -254.5t265 -104.5q150 0 254.5 104.5t104.5 265.5q0 149 -107 254zM1725 770q-107 108 -260 108q-147 0 -254 -113q-108 -110 -108 -260t105 -254.5t265 -104.5q150 0 254.5 104.5t104.5 265.5
q0 149 -107 254zM1188.5 941.5q123.5 82.5 276.5 82.5q215 0 363 -148q150 -145 150 -360q0 -218 -147 -366q-145 -150 -358 -150q-152 0 -278.5 76.5t-164.5 161.5q-35 -76 -161 -157t-271 -81q-212 0 -365 144q-151 145 -151 361q0 212 145 365.5t363 153.5
q153 0 278 -78.5t162 -162.5q35 76 158.5 158.5zM594 332q-75 0 -128.5 54.5t-53.5 130.5q0 77 53.5 131t128.5 54q76 0 129.5 -54t53.5 -131q0 -76 -53.5 -130.5t-129.5 -54.5zM690 518q0 40 -28 68t-68 28q-41 0 -69 -28t-28 -68q0 -41 28 -69t69 -28q40 0 68 28t28 69z
M1580 518q0 40 -28 68t-68 28q-41 0 -69 -28t-28 -68q0 -41 28 -69t69 -28q40 0 68 28t28 69zM1484 332q-75 0 -128.5 54.5t-53.5 130.5q0 77 53.5 131t128.5 54q76 0 129.5 -54t53.5 -131q0 -76 -53.5 -130.5t-129.5 -54.5z" />
    <glyph glyph-name="uniA9EF" unicode="&#xa9ef;" horiz-adv-x="1400" 
d="M1041 23q-19 -9 -40 -9q-32 0 -55 23.5t-23 54.5q0 38 34 62q191 116 191 339q0 140 -101.5 246.5t-244.5 106.5t-247 -103q-56 -60 -80 -132q57 -10 120 -25q161 -70 199 -209q19 -51 14 -114q-17 -129 -151 -231q-13 -11 -26 -14q-14 -8 -36 -8q-20 0 -42 13
q-114 78 -187 207q-61 128 -63 252q-100 22 -189 139.5t-70 296.5q-1 26 10 44q13 28 44 36.5t66 -8.5q21 -19 9 -45q4 -234 148 -295q37 107 125 196q147 147 356 147q212 0 355.5 -146.5t143.5 -353.5q0 -141 -69.5 -270t-190.5 -200zM616 177q42 43 53 93q12 74 -34 122
q-46 52 -189 66h-12q14 -172 182 -281zM1054 571q0 -56 -37.5 -94t-90.5 -38q-56 0 -93 38t-37 94t37 95t93 39q53 0 90.5 -39t37.5 -95zM926 628q-25 0 -40.5 -17t-15.5 -40q0 -26 15.5 -42t40.5 -16q22 0 37.5 16t15.5 42q0 23 -15.5 40t-37.5 17z" />
    <glyph glyph-name="uniA9F0" unicode="&#xa9f0;" horiz-adv-x="1027" 
d="M418 -96q-95 18 -154 62q-30 19 -53 44q-52 54 -82 116q-23 69 -23 134v629q0 60 23 130q16 31 33 64q22 30 49 57q131 117 294 117q49 0 91 -8q48 -10 84 -25q35 -16 70 -36q33 -23 57 -48q52 -55 77 -121q27 -59 27 -130v-629q0 -69 -27 -133q-29 -65 -79 -117
q-54 -51 -125 -81q-76 -35 -175 -35q-49 0 -87 10zM277 184q43 -86 132 -115q44 -19 96 -19q50 0 102 19q70 24 110 81q42 72 42 131v591q0 101 -76 165q-74 66 -178 66q-43 0 -88 -17q-45 -15 -85 -49q-73 -64 -74 -165v-591q0 -50 19 -97z" />
    <glyph glyph-name="uniA9F1" unicode="&#xa9f1;" horiz-adv-x="1301" 
d="M1114 -488h-359q0 12 -1 27t-1 49q0 112 14 195.5t35.5 147.5t46.5 112.5t46.5 90t36 81.5t14.5 86q0 55 -22 100t-62 77.5t-97.5 50t-130.5 17.5q-67 0 -124 -14.5t-100 -41t-68 -62t-27 -76.5l3 -1q32 26 67 38t71 12q44 0 85.5 -17t74 -47t52 -73.5t19.5 -93.5
q0 -46 -15 -87t-44.5 -73.5t-72.5 -52t-97 -19.5q-65 0 -118.5 28t-90.5 75.5t-57.5 110t-20.5 129.5q0 77 27 149t83.5 127t143 89t203.5 34q110 0 195.5 -29.5t145.5 -79t91.5 -115.5t31.5 -139q0 -50 -15 -96t-36.5 -91.5t-47.5 -93.5t-47.5 -104t-36 -125t-14.5 -156
h219v-139zM335 1207q46 0 88 -16t74.5 -45.5t51.5 -71t19 -92.5q0 -45 -15.5 -86.5t-45 -73t-72.5 -50.5t-98 -19q-59 0 -104.5 22t-76.5 58t-47 82t-16 96q0 41 12.5 88t39 93.5t69 88t102 73t139 50.5t180.5 19q132 0 235.5 -33t175.5 -91t110 -137t38 -170
q0 -84 -30 -170t-84 -154l-114 84q37 49 59 113t22 124q0 64 -27.5 119.5t-79.5 95.5t-126.5 62.5t-168.5 22.5q-98 0 -178 -23t-133 -56zM353 171q0 -46 28 -73t70 -27q41 0 68 26t27 71q0 43 -27 72.5t-71 29.5q-23 0 -40.5 -8t-29.5 -22t-18.5 -32t-6.5 -37zM245 981
q0 -43 26 -70t67 -27q37 0 63 26t26 69q0 41 -25.5 70.5t-66.5 29.5q-43 0 -66.5 -29.5t-23.5 -68.5z" />
    <glyph glyph-name="uniA9F2" unicode="&#xa9f2;" horiz-adv-x="1206" 
d="M174 1702h13q42 0 71 -57q-4 -74 -4 -92q0 -276 243 -355q57 -11 95 -11q249 0 324 259q10 53 10 116q0 13 -3 83q31 57 71 57h13q73 0 73 -116v-60q0 -112 -73 -263q60 -121 60 -239q0 -175 -111 -327q-29 -11 -33 -11q-32 0 -90 79q-107 86 -219 86h-33
q-207 0 -303 -227q-20 -63 -20 -115v-36q0 -223 224 -326q54 -16 106 -16h26q190 0 305 211q26 21 49 21h7q64 -11 64 -64v-9q-8 -60 -123 -178q-140 -116 -299 -116h-40q-249 0 -403 231q-72 122 -72 271q0 276 260 439q111 51 222 51h21q162 0 292 -100h4q25 84 25 136
q-3 64 -22 128h-3q-136 -101 -313 -101q-311 0 -450 288q-36 105 -36 198v35q0 98 33 117q20 13 39 13z" />
    </font>
</defs>
</svg>
